<?xml version="1.0" encoding="UTF-8" standalone="no"?>
<svg
   xmlns:dc="http://purl.org/dc/elements/1.1/"
   xmlns:cc="http://creativecommons.org/ns#"
   xmlns:rdf="http://www.w3.org/1999/02/22-rdf-syntax-ns#"
   xmlns:svg="http://www.w3.org/2000/svg"
   xmlns="http://www.w3.org/2000/svg"
   xmlns:sodipodi="http://sodipodi.sourceforge.net/DTD/sodipodi-0.dtd"
   xmlns:inkscape="http://www.inkscape.org/namespaces/inkscape"
   enable-background="new 0 0 264 384"
   height="380"
   viewBox="0 0 271.94128 380"
   width="271.94128"
   version="1.1"
   id="svg802"
   sodipodi:docname="nuclear_plant_8x8.svg"
   inkscape:version="0.92.4 (5da689c313, 2019-01-14)">
  <metadata
     id="metadata808">
    <rdf:RDF>
      <cc:Work
         rdf:about="">
        <dc:format>image/svg+xml</dc:format>
        <dc:type
           rdf:resource="http://purl.org/dc/dcmitype/StillImage" />
        <dc:title></dc:title>
      </cc:Work>
    </rdf:RDF>
  </metadata>
  <defs
     id="defs806" />
  <sodipodi:namedview
     pagecolor="#ffffff"
     bordercolor="#666666"
     borderopacity="1"
     objecttolerance="10"
     gridtolerance="10"
     guidetolerance="10"
     inkscape:pageopacity="0"
     inkscape:pageshadow="2"
     inkscape:window-width="1366"
     inkscape:window-height="705"
     id="namedview804"
     showgrid="true"
     inkscape:zoom="0.98700322"
     inkscape:cx="161.45562"
     inkscape:cy="217.38266"
     inkscape:window-x="-8"
     inkscape:window-y="-8"
     inkscape:window-maximized="1"
     inkscape:current-layer="g997"
     fit-margin-top="0"
     fit-margin-left="0"
     fit-margin-right="0"
     fit-margin-bottom="0">
    <inkscape:grid
       type="axonomgrid"
       id="grid810"
       units="px"
       empspacing="1"
       gridanglex="26.57"
       gridanglez="26.57"
       spacingy="16"
       originx="0"
       originy="0" />
  </sodipodi:namedview>
  <g
     id="g997"
     transform="translate(0,-4)">
    <path
       inkscape:connector-curvature="0"
       id="path812"
       d="M 127.97237,384 271.94128,312 159.96546,256 63.986183,294.84122 Z"
       style="fill:#483e37;stroke:none;stroke-width:1px;stroke-linecap:butt;stroke-linejoin:miter;stroke-opacity:1" />
    <g
       id="g418"
       transform="translate(72,60)">
      <path
         id="path410"
         d="m -8,0 c -8.8,0 -16,3.6 -16,8 v 185 c 0,4.4 7.2,8 16,8 8.8,0 16,-3.6 16,-8 V 8 C 8,3.6 0.8,0 -8,0 Z"
         inkscape:connector-curvature="0"
         style="fill:#e5e5e5" />
      <path
         id="path412"
         d="m -8,16 c -8.8,0 -16,-3.6 -16,-8 v 16 c 0,4.4 7.2,8 16,8 8.8,0 16,-3.6 16,-8 V 8 c 0,4.4 -7.2,8 -16,8 z"
         inkscape:connector-curvature="0"
         style="fill:#cc291f" />
      <path
         id="path414"
         d="m -8,16 c -8.8,0 -16,-3.6 -16,-8 v 185 c 0,4.4 7.2,8 16,8 8.8,0 16,-3.6 16,-8 V 8 c 0,4.4 -7.2,8 -16,8 z"
         inkscape:connector-curvature="0"
         style="opacity:0.2" />
      <ellipse
         id="ellipse416"
         ry="5"
         rx="12"
         cy="8"
         cx="-8"
         style="opacity:0.5;fill:#202426" />
    </g>
    <g
       id="g428"
       transform="translate(72,28)">
      <path
         id="path420"
         d="m -8,0 c -8.8,0 -16,3.6 -16,8 v 32 c 0,4.4 7.2,8 16,8 8.8,0 16,-3.6 16,-8 V 8 C 8,3.6 0.8,0 -8,0 Z"
         inkscape:connector-curvature="0"
         style="fill:#e5e5e5" />
      <path
         id="path422"
         d="m -8,16 c -8.8,0 -16,-3.6 -16,-8 v 16 c 0,4.4 7.2,8 16,8 8.8,0 16,-3.6 16,-8 V 8 c 0,4.4 -7.2,8 -16,8 z"
         inkscape:connector-curvature="0"
         style="fill:#cc291f" />
      <path
         id="path424"
         d="m -8,16 c -8.8,0 -16,-3.6 -16,-8 v 32 c 0,4.4 7.2,8 16,8 8.8,0 16,-3.6 16,-8 V 8 c 0,4.4 -7.2,8 -16,8 z"
         inkscape:connector-curvature="0"
         style="opacity:0.2" />
      <ellipse
         id="ellipse426"
         ry="5"
         rx="12"
         cy="8"
         cx="-8"
         style="opacity:0.5;fill:#202426" />
    </g>
    <g
       id="g464"
       transform="translate(64,4)">
      <path
         id="path430"
         d="m -0.1,4.2 c 11,0 19.9,4.4 19.9,9.9 V 12.9 C 19.8,7.4 10.9,3 -0.1,3 -11.1,3 -20,7.4 -20,12.9 v 1.2 c 0,-5.5 8.9,-9.9 19.9,-9.9 z"
         inkscape:connector-curvature="0"
         style="fill:#999999" />
      <path
         id="path432"
         d="m -0.1,7.3 c 11,0 19.9,4.4 19.9,9.9 V 16 c 0,-5.5 -8.9,-9.9 -19.9,-9.9 -11,0 -19.9,4.4 -19.9,9.9 v 1.2 c 0,-5.5 8.9,-9.9 19.9,-9.9 z"
         inkscape:connector-curvature="0"
         style="fill:#999999" />
      <path
         id="path434"
         d="m -0.1,4.2 c 11,0 19.9,4.4 19.9,9.9 V 12.9 C 19.8,7.4 10.9,3 -0.1,3 -11.1,3 -20,7.4 -20,12.9 v 1.2 c 0,-5.5 8.9,-9.9 19.9,-9.9 z"
         inkscape:connector-curvature="0"
         style="opacity:0.2" />
      <path
         id="path436"
         d="m -0.1,7.3 c 11,0 19.9,4.4 19.9,9.9 V 16 c 0,-5.5 -8.9,-9.9 -19.9,-9.9 -11,0 -19.9,4.4 -19.9,9.9 v 1.2 c 0,-5.5 8.9,-9.9 19.9,-9.9 z"
         inkscape:connector-curvature="0"
         style="opacity:0.2" />
      <path
         id="path438"
         d="m 0,22 c -9.4,0 -17,3.8 -17,8.5 v 1 c 0,4.7 7.6,8.5 17,8.5 9.4,0 17,-3.8 17,-8.5 v -1 C 17,25.8 9.4,22 0,22 Z"
         inkscape:connector-curvature="0"
         style="fill:#999999" />
      <path
         id="path440"
         d="m 0,39 c -9.4,0 -17,-3.8 -17,-8.5 v 1 c 0,4.7 7.6,8.5 17,8.5 9.4,0 17,-3.8 17,-8.5 v -1 C 17,35.2 9.4,39 0,39 Z"
         inkscape:connector-curvature="0"
         style="opacity:0.2" />
      <path
         id="path442"
         d="m 0,12 c -8.8,0 -16,3.6 -16,8 v 10 c 0,4.4 7.2,8 16,8 8.8,0 16,-3.6 16,-8 V 20 C 16,15.6 8.8,12 0,12 Z"
         inkscape:connector-curvature="0"
         style="fill:#e5e5e5" />
      <path
         id="path444"
         d="m 0,28 c -8.8,0 -16,-3.6 -16,-8 v 10 c 0,4.4 7.2,8 16,8 8.8,0 16,-3.6 16,-8 V 20 c 0,4.4 -7.2,8 -16,8 z"
         inkscape:connector-curvature="0"
         style="opacity:0.2" />
      <path
         id="path446"
         d="m -0.1,9 c -11,0 -19.9,4.4 -19.9,9.9 v 1.2 c 0,5.5 8.9,9.9 19.9,9.9 11,0 19.9,-4.4 19.9,-9.9 V 18.9 C 19.7,13.4 10.8,9 -0.1,9 Z"
         inkscape:connector-curvature="0"
         style="fill:#999999" />
      <path
         id="path448"
         d="M -0.1,28.9 C -11.1,28.9 -20,24.5 -20,19 v 1.2 c 0,5.5 8.9,9.9 19.9,9.9 11,0 19.9,-4.4 19.9,-9.9 V 19 c -0.1,5.4 -9,9.9 -19.9,9.9 z"
         inkscape:connector-curvature="0"
         style="opacity:0.2" />
      <path
         id="path450"
         d="m 0,0 c -8.8,0 -16,3.6 -16,8 v 10 c 0,4.4 7.2,8 16,8 8.8,0 16,-3.6 16,-8 V 8 C 16,3.6 8.8,0 0,0 Z"
         inkscape:connector-curvature="0"
         style="fill:#cc291f" />
      <path
         id="path452"
         d="m 0,16 c -8.8,0 -16,-3.6 -16,-8 v 10 c 0,4.4 7.2,8 16,8 8.8,0 16,-3.6 16,-8 V 8 c 0,4.5 -7.2,8 -16,8 z"
         inkscape:connector-curvature="0"
         style="opacity:0.2" />
      <path
         id="path454"
         d="M -0.1,25.9 C -11.1,25.9 -20,21.5 -20,16 v 1.2 c 0,5.5 8.9,9.9 19.9,9.9 11,0 19.9,-4.4 19.9,-9.9 V 16 c -0.1,5.5 -9,9.9 -19.9,9.9 z"
         inkscape:connector-curvature="0"
         style="fill:#999999" />
      <path
         id="path456"
         d="m -0.1,22.8 c -11,0 -19.9,-4.4 -19.9,-9.9 v 1.2 c 0,5.5 8.9,9.9 19.9,9.9 11,0 19.9,-4.4 19.9,-9.9 v -1.2 c -0.1,5.5 -9,9.9 -19.9,9.9 z"
         inkscape:connector-curvature="0"
         style="fill:#999999" />
      <path
         id="path458"
         d="M -0.1,25.9 C -11.1,25.9 -20,21.5 -20,16 v 1.2 c 0,5.5 8.9,9.9 19.9,9.9 11,0 19.9,-4.4 19.9,-9.9 V 16 c -0.1,5.5 -9,9.9 -19.9,9.9 z"
         inkscape:connector-curvature="0"
         style="opacity:0.2" />
      <path
         id="path460"
         d="m -0.1,22.8 c -11,0 -19.9,-4.4 -19.9,-9.9 v 1.2 c 0,5.5 8.9,9.9 19.9,9.9 11,0 19.9,-4.4 19.9,-9.9 v -1.2 c -0.1,5.5 -9,9.9 -19.9,9.9 z"
         inkscape:connector-curvature="0"
         style="opacity:0.2" />
      <ellipse
         id="ellipse462"
         ry="6"
         rx="14"
         cy="8"
         cx="0"
         style="opacity:0.4" />
    </g>
    <g
       id="g500"
       transform="translate(24,264)">
      <path
         id="path466"
         d="M 40,0 -24,32 V 56 L 40,88 104,56 V 32 Z"
         inkscape:connector-curvature="0"
         style="fill:#e5e5e5" />
      <path
         id="path468"
         d="m 28,66 v 4 l 8,4 v -4 z"
         inkscape:connector-curvature="0"
         style="fill:#656565" />
      <path
         id="path470"
         d="m 30,71 1,0.5 v -4 L 30,67 Z"
         inkscape:connector-curvature="0"
         style="opacity:0.5;fill:#e5e5e5" />
      <path
         id="path472"
         d="m 34,69 -1,-0.5 v 4 l 1,0.5 z"
         inkscape:connector-curvature="0"
         style="opacity:0.5;fill:#e5e5e5" />
      <path
         id="path474"
         d="m 12,58 v 4 l 8,4 v -4 z"
         inkscape:connector-curvature="0"
         style="fill:#656565" />
      <path
         id="path476"
         d="m 14,63 1,0.5 v -4 L 14,59 Z"
         inkscape:connector-curvature="0"
         style="opacity:0.5;fill:#e5e5e5" />
      <path
         id="path478"
         d="m 18,61 -1,-0.5 v 4 l 1,0.5 z"
         inkscape:connector-curvature="0"
         style="opacity:0.5;fill:#e5e5e5" />
      <path
         id="path480"
         d="m -4,50 v 4 l 8,4 v -4 z"
         inkscape:connector-curvature="0"
         style="fill:#656565" />
      <path
         id="path482"
         d="m -2,55 1,0.5 v -4 L -2,51 Z"
         inkscape:connector-curvature="0"
         style="opacity:0.5;fill:#e5e5e5" />
      <path
         id="path484"
         d="M 2,53 1,52.5 v 4 L 2,57 Z"
         inkscape:connector-curvature="0"
         style="opacity:0.5;fill:#e5e5e5" />
      <path
         id="path486"
         d="m -20,42 v 4 l 8,4 v -4 z"
         inkscape:connector-curvature="0"
         style="fill:#656565" />
      <g
         id="g494"
         style="fill:#e5e5e5">
        <path
           id="path488"
           d="m -18,47 1,0.5 v -4 L -18,43 Z"
           inkscape:connector-curvature="0"
           style="opacity:0.5" />
        <path
           id="path490"
           d="m -14,45 -1,-0.5 v 4 l 1,0.5 z"
           inkscape:connector-curvature="0"
           style="opacity:0.5" />
        <path
           id="path492"
           d="m 46,69 1,-0.5 v 4 L 46,73 Z"
           inkscape:connector-curvature="0"
           style="opacity:0.5" />
      </g>
      <path
         id="path496"
         d="M 104,56 40,88 V 64 l 64,-32 z"
         inkscape:connector-curvature="0"
         style="opacity:0.28999999" />
      <path
         id="path498"
         d="M 40,88 -24,56 V 32 l 64,32 z"
         inkscape:connector-curvature="0"
         style="opacity:0.11000001" />
    </g>
    <g
       id="g568"
       transform="matrix(0.75,0,0,0.75,96,118)">
      <path
         id="path502"
         d="m 40,172 c -37.6,0 -68,15.2 -68,34 v 4 c 0,18.8 30.4,34 68,34 37.6,0 68,-15.2 68,-34 v -4 c 0,-18.8 -30.4,-34 -68,-34 z"
         inkscape:connector-curvature="0"
         style="fill:#999999" />
      <path
         id="path504"
         d="m 40,240 c -37.6,0 -68,-15.2 -68,-34 v 4 c 0,18.8 30.4,34 68,34 37.6,0 68,-15.2 68,-34 v -4 c 0,18.8 -30.4,34 -68,34 z"
         inkscape:connector-curvature="0"
         style="opacity:0.2" />
      <ellipse
         id="ellipse506"
         ry="31"
         rx="63.599998"
         cy="205"
         cx="40"
         style="opacity:0.5" />
      <path
         id="path508"
         d="m 38,236.5 2,1 2,-1 v -24 l -2,-1 -2,1 z"
         inkscape:connector-curvature="0"
         style="fill:#999999" />
      <path
         id="path510"
         d="m 38,236.5 2,1 v -24 l -2,-1 z"
         inkscape:connector-curvature="0"
         style="opacity:0.11000001" />
      <path
         id="path512"
         d="m 40,237.5 2,-1 v -24 l -2,1 z"
         inkscape:connector-curvature="0"
         style="opacity:0.28999999" />
      <path
         id="path514"
         d="m 54,235.5 2,1 2,-1 v -24 l -2,-1 -2,1 z"
         inkscape:connector-curvature="0"
         style="fill:#999999" />
      <path
         id="path516"
         d="m 54,235.5 2,1 v -24 l -2,-1 z"
         inkscape:connector-curvature="0"
         style="opacity:0.11000001" />
      <path
         id="path518"
         d="m 56,236.5 2,-1 v -24 l -2,1 z"
         inkscape:connector-curvature="0"
         style="opacity:0.28999999" />
      <path
         id="path520"
         d="m 22,235.5 2,1 2,-1 v -24 l -2,-1 -2,1 z"
         inkscape:connector-curvature="0"
         style="fill:#999999" />
      <path
         id="path522"
         d="m 22,235.5 2,1 v -24 l -2,-1 z"
         inkscape:connector-curvature="0"
         style="opacity:0.11000001" />
      <path
         id="path524"
         d="m 24,236.5 2,-1 v -24 l -2,1 z"
         inkscape:connector-curvature="0"
         style="opacity:0.28999999" />
      <path
         id="path526"
         d="m 70,232.5 2,1 2,-1 v -24 l -2,-1 -2,1 z"
         inkscape:connector-curvature="0"
         style="fill:#999999" />
      <path
         id="path528"
         d="m 70,232.5 2,1 v -24 l -2,-1 z"
         inkscape:connector-curvature="0"
         style="opacity:0.11000001" />
      <path
         id="path530"
         d="m 72,233.5 2,-1 v -24 l -2,1 z"
         inkscape:connector-curvature="0"
         style="opacity:0.28999999" />
      <path
         id="path532"
         d="m 6,232.5 2,1 2,-1 v -24 l -2,-1 -2,1 z"
         inkscape:connector-curvature="0"
         style="fill:#999999" />
      <path
         id="path534"
         d="m 6,232.5 2,1 v -24 l -2,-1 z"
         inkscape:connector-curvature="0"
         style="opacity:0.11000001" />
      <path
         id="path536"
         d="m 8,233.5 2,-1 v -24 l -2,1 z"
         inkscape:connector-curvature="0"
         style="opacity:0.28999999" />
      <path
         id="path538"
         d="m 86,226.5 2,1 2,-1 v -24 l -2,-1 -2,1 z"
         inkscape:connector-curvature="0"
         style="fill:#999999" />
      <path
         id="path540"
         d="m 86,226.5 2,1 v -24 l -2,-1 z"
         inkscape:connector-curvature="0"
         style="opacity:0.11000001" />
      <path
         id="path542"
         d="m 88,227.5 2,-1 v -24 l -2,1 z"
         inkscape:connector-curvature="0"
         style="opacity:0.28999999" />
      <path
         id="path544"
         d="m -10,226.5 2,1 2,-1 v -24 l -2,-1 -2,1 z"
         inkscape:connector-curvature="0"
         style="fill:#999999" />
      <path
         id="path546"
         d="m -10,226.5 2,1 v -24 l -2,-1 z"
         inkscape:connector-curvature="0"
         style="opacity:0.11000001" />
      <path
         id="path548"
         d="m -8,227.5 2,-1 v -24 l -2,1 z"
         inkscape:connector-curvature="0"
         style="opacity:0.28999999" />
      <path
         id="path550"
         d="m 100,215.5 2,1 2,-1 v -23 l -2,-1 -2,1 z"
         inkscape:connector-curvature="0"
         style="fill:#999999" />
      <path
         id="path552"
         d="m 100,215.5 2,1 v -23 l -2,-1 z"
         inkscape:connector-curvature="0"
         style="opacity:0.11000001" />
      <path
         id="path554"
         d="m 102,216.5 2,-1 v -23 l -2,1 z"
         inkscape:connector-curvature="0"
         style="opacity:0.28999999" />
      <path
         id="path556"
         d="m -24,215.5 2,1 2,-1 v -23 l -2,-1 -2,1 z"
         inkscape:connector-curvature="0"
         style="fill:#999999" />
      <path
         id="path558"
         d="m -24,215.5 2,1 v -23 l -2,-1 z"
         inkscape:connector-curvature="0"
         style="opacity:0.11000001" />
      <path
         id="path560"
         d="m -22,216.5 2,-1 v -23 l -2,1 z"
         inkscape:connector-curvature="0"
         style="opacity:0.28999999" />
      <path
         id="path562"
         d="M 40,0 C 13.5,0 -8,10.7 -8,24 c 5.3,39.7 3.6,80 -5.1,119.1 L -24,192 c 0,17.7 28.7,32 64,32 35.3,0 64,-14.3 64,-32 L 93.1,143.1 C 84.4,104 82.7,63.7 88,24 88,10.7 66.5,0 40,0 Z"
         inkscape:connector-curvature="0"
         style="fill:#999999" />
      <path
         id="path564"
         d="M 40,48 C 13.5,48 -8,37.3 -8,24 c 5.3,39.7 3.6,80 -5.1,119.1 L -24,192 c 0,17.7 28.7,32 64,32 35.3,0 64,-14.3 64,-32 L 93.1,143.1 C 84.4,104 82.7,63.7 88,24 88,37.3 66.5,48 40,48 Z"
         inkscape:connector-curvature="0"
         style="opacity:0.2" />
      <ellipse
         id="ellipse566"
         ry="18"
         rx="39.599998"
         cy="24"
         cx="40"
         style="opacity:0.4" />
    </g>
    <g
       id="g636"
       transform="matrix(0.75,0,0,0.75,174.8,151.9)">
      <path
         style="fill:#999999"
         inkscape:connector-curvature="0"
         id="path570"
         d="m 40,172 c -37.6,0 -68,15.2 -68,34 v 4 c 0,18.8 30.4,34 68,34 37.6,0 68,-15.2 68,-34 v -4 c 0,-18.8 -30.4,-34 -68,-34 z" />
      <path
         style="opacity:0.2"
         inkscape:connector-curvature="0"
         id="path572"
         d="m 40,240 c -37.6,0 -68,-15.2 -68,-34 v 4 c 0,18.8 30.4,34 68,34 37.6,0 68,-15.2 68,-34 v -4 c 0,18.8 -30.4,34 -68,34 z" />
      <ellipse
         style="opacity:0.5"
         id="ellipse574"
         ry="31"
         rx="63.599998"
         cy="205"
         cx="40" />
      <path
         style="fill:#999999"
         inkscape:connector-curvature="0"
         id="path576"
         d="m 38,236.5 2,1 2,-1 v -24 l -2,-1 -2,1 z" />
      <path
         style="opacity:0.11000001"
         inkscape:connector-curvature="0"
         id="path578"
         d="m 38,236.5 2,1 v -24 l -2,-1 z" />
      <path
         style="opacity:0.28999999"
         inkscape:connector-curvature="0"
         id="path580"
         d="m 40,237.5 2,-1 v -24 l -2,1 z" />
      <path
         style="fill:#999999"
         inkscape:connector-curvature="0"
         id="path582"
         d="m 54,235.5 2,1 2,-1 v -24 l -2,-1 -2,1 z" />
      <path
         style="opacity:0.11000001"
         inkscape:connector-curvature="0"
         id="path584"
         d="m 54,235.5 2,1 v -24 l -2,-1 z" />
      <path
         style="opacity:0.28999999"
         inkscape:connector-curvature="0"
         id="path586"
         d="m 56,236.5 2,-1 v -24 l -2,1 z" />
      <path
         style="fill:#999999"
         inkscape:connector-curvature="0"
         id="path588"
         d="m 22,235.5 2,1 2,-1 v -24 l -2,-1 -2,1 z" />
      <path
         style="opacity:0.11000001"
         inkscape:connector-curvature="0"
         id="path590"
         d="m 22,235.5 2,1 v -24 l -2,-1 z" />
      <path
         style="opacity:0.28999999"
         inkscape:connector-curvature="0"
         id="path592"
         d="m 24,236.5 2,-1 v -24 l -2,1 z" />
      <path
         style="fill:#999999"
         inkscape:connector-curvature="0"
         id="path594"
         d="m 70,232.5 2,1 2,-1 v -24 l -2,-1 -2,1 z" />
      <path
         style="opacity:0.11000001"
         inkscape:connector-curvature="0"
         id="path596"
         d="m 70,232.5 2,1 v -24 l -2,-1 z" />
      <path
         style="opacity:0.28999999"
         inkscape:connector-curvature="0"
         id="path598"
         d="m 72,233.5 2,-1 v -24 l -2,1 z" />
      <path
         style="fill:#999999"
         inkscape:connector-curvature="0"
         id="path600"
         d="m 6,232.5 2,1 2,-1 v -24 l -2,-1 -2,1 z" />
      <path
         style="opacity:0.11000001"
         inkscape:connector-curvature="0"
         id="path602"
         d="m 6,232.5 2,1 v -24 l -2,-1 z" />
      <path
         style="opacity:0.28999999"
         inkscape:connector-curvature="0"
         id="path604"
         d="m 8,233.5 2,-1 v -24 l -2,1 z" />
      <path
         style="fill:#999999"
         inkscape:connector-curvature="0"
         id="path606"
         d="m 86,226.5 2,1 2,-1 v -24 l -2,-1 -2,1 z" />
      <path
         style="opacity:0.11000001"
         inkscape:connector-curvature="0"
         id="path608"
         d="m 86,226.5 2,1 v -24 l -2,-1 z" />
      <path
         style="opacity:0.28999999"
         inkscape:connector-curvature="0"
         id="path610"
         d="m 88,227.5 2,-1 v -24 l -2,1 z" />
      <path
         style="fill:#999999"
         inkscape:connector-curvature="0"
         id="path612"
         d="m -10,226.5 2,1 2,-1 v -24 l -2,-1 -2,1 z" />
      <path
         style="opacity:0.11000001"
         inkscape:connector-curvature="0"
         id="path614"
         d="m -10,226.5 2,1 v -24 l -2,-1 z" />
      <path
         style="opacity:0.28999999"
         inkscape:connector-curvature="0"
         id="path616"
         d="m -8,227.5 2,-1 v -24 l -2,1 z" />
      <path
         style="fill:#999999"
         inkscape:connector-curvature="0"
         id="path618"
         d="m 100,215.5 2,1 2,-1 v -23 l -2,-1 -2,1 z" />
      <path
         style="opacity:0.11000001"
         inkscape:connector-curvature="0"
         id="path620"
         d="m 100,215.5 2,1 v -23 l -2,-1 z" />
      <path
         style="opacity:0.28999999"
         inkscape:connector-curvature="0"
         id="path622"
         d="m 102,216.5 2,-1 v -23 l -2,1 z" />
      <path
         style="fill:#999999"
         inkscape:connector-curvature="0"
         id="path624"
         d="m -24,215.5 2,1 2,-1 v -23 l -2,-1 -2,1 z" />
      <path
         style="opacity:0.11000001"
         inkscape:connector-curvature="0"
         id="path626"
         d="m -24,215.5 2,1 v -23 l -2,-1 z" />
      <path
         style="opacity:0.28999999"
         inkscape:connector-curvature="0"
         id="path628"
         d="m -22,216.5 2,-1 v -23 l -2,1 z" />
      <path
         style="fill:#999999"
         inkscape:connector-curvature="0"
         id="path630"
         d="M 40,0 C 13.5,0 -8,10.7 -8,24 c 5.3,39.7 3.6,80 -5.1,119.1 L -24,192 c 0,17.7 28.7,32 64,32 35.3,0 64,-14.3 64,-32 L 93.1,143.1 C 84.4,104 82.7,63.7 88,24 88,10.7 66.5,0 40,0 Z" />
      <path
         style="opacity:0.2"
         inkscape:connector-curvature="0"
         id="path632"
         d="M 40,48 C 13.5,48 -8,37.3 -8,24 c 5.3,39.7 3.6,80 -5.1,119.1 L -24,192 c 0,17.7 28.7,32 64,32 35.3,0 64,-14.3 64,-32 L 93.1,143.1 C 84.4,104 82.7,63.7 88,24 88,37.3 66.5,48 40,48 Z" />
      <ellipse
         style="opacity:0.4"
         id="ellipse634"
         ry="18"
         rx="39.599998"
         cy="24"
         cx="40" />
    </g>
    <g
       id="g692"
       transform="translate(88,296)">
      <path
         id="path638"
         d="M 40,0 -24,32 V 56 L 40,88 104,56 V 32 Z"
         inkscape:connector-curvature="0"
         style="fill:#e5e5e5" />
      <path
         id="path640"
         d="m 28,66 v 4 l 8,4 v -4 z"
         inkscape:connector-curvature="0"
         style="fill:#656565" />
      <path
         id="path642"
         d="m 30,71 1,0.5 v -4 L 30,67 Z"
         inkscape:connector-curvature="0"
         style="opacity:0.5;fill:#e5e5e5" />
      <path
         id="path644"
         d="m 34,69 -1,-0.5 v 4 l 1,0.5 z"
         inkscape:connector-curvature="0"
         style="opacity:0.5;fill:#e5e5e5" />
      <path
         id="path646"
         d="m 12,58 v 4 l 8,4 v -4 z"
         inkscape:connector-curvature="0"
         style="fill:#656565" />
      <path
         id="path648"
         d="m 14,63 1,0.5 v -4 L 14,59 Z"
         inkscape:connector-curvature="0"
         style="opacity:0.5;fill:#e5e5e5" />
      <path
         id="path650"
         d="m 18,61 -1,-0.5 v 4 l 1,0.5 z"
         inkscape:connector-curvature="0"
         style="opacity:0.5;fill:#e5e5e5" />
      <path
         id="path652"
         d="m -4,50 v 4 l 8,4 v -4 z"
         inkscape:connector-curvature="0"
         style="fill:#656565" />
      <path
         id="path654"
         d="m -2,55 1,0.5 v -4 L -2,51 Z"
         inkscape:connector-curvature="0"
         style="opacity:0.5;fill:#e5e5e5" />
      <path
         id="path656"
         d="M 2,53 1,52.5 v 4 L 2,57 Z"
         inkscape:connector-curvature="0"
         style="opacity:0.5;fill:#e5e5e5" />
      <path
         id="path658"
         d="m -20,42 v 4 l 8,4 v -4 z"
         inkscape:connector-curvature="0"
         style="fill:#656565" />
      <path
         id="path660"
         d="m -18,47 1,0.5 v -4 L -18,43 Z"
         inkscape:connector-curvature="0"
         style="opacity:0.5;fill:#e5e5e5" />
      <path
         id="path662"
         d="m -14,45 -1,-0.5 v 4 l 1,0.5 z"
         inkscape:connector-curvature="0"
         style="opacity:0.5;fill:#e5e5e5" />
      <path
         id="path664"
         d="m 52,66 v 4 l -8,4 v -4 z"
         inkscape:connector-curvature="0"
         style="fill:#656565" />
      <path
         id="path666"
         d="m 50,71 -1,0.5 v -4 L 50,67 Z"
         inkscape:connector-curvature="0"
         style="opacity:0.5;fill:#e5e5e5" />
      <path
         id="path668"
         d="m 46,69 1,-0.5 v 4 L 46,73 Z"
         inkscape:connector-curvature="0"
         style="opacity:0.5;fill:#e5e5e5" />
      <path
         id="path670"
         d="m 68,58 v 4 l -8,4 v -4 z"
         inkscape:connector-curvature="0"
         style="fill:#656565" />
      <path
         id="path672"
         d="m 66,63 -1,0.5 v -4 L 66,59 Z"
         inkscape:connector-curvature="0"
         style="opacity:0.5;fill:#e5e5e5" />
      <path
         id="path674"
         d="m 62,61 1,-0.5 v 4 L 62,65 Z"
         inkscape:connector-curvature="0"
         style="opacity:0.5;fill:#e5e5e5" />
      <path
         id="path676"
         d="m 84,50 v 4 l -8,4 v -4 z"
         inkscape:connector-curvature="0"
         style="fill:#656565" />
      <path
         id="path678"
         d="m 82,55 -1,0.5 v -4 L 82,51 Z"
         inkscape:connector-curvature="0"
         style="opacity:0.5;fill:#e5e5e5" />
      <path
         id="path680"
         d="m 78,53 1,-0.5 v 4 L 78,57 Z"
         inkscape:connector-curvature="0"
         style="opacity:0.5;fill:#e5e5e5" />
      <path
         id="path682"
         d="m 100,42 v 4 l -8,4 v -4 z"
         inkscape:connector-curvature="0"
         style="fill:#656565" />
      <path
         id="path684"
         d="m 98,47 -1,0.5 v -4 L 98,43 Z"
         inkscape:connector-curvature="0"
         style="opacity:0.5;fill:#e5e5e5" />
      <path
         id="path686"
         d="m 94,45 1,-0.5 v 4 L 94,49 Z"
         inkscape:connector-curvature="0"
         style="opacity:0.5;fill:#e5e5e5" />
      <path
         id="path688"
         d="M 104,56 40,88 V 64 l 64,-32 z"
         inkscape:connector-curvature="0"
         style="opacity:0.28999999" />
      <path
         id="path690"
         d="M 40,88 -24,56 V 32 l 64,32 z"
         inkscape:connector-curvature="0"
         style="opacity:0.11000001" />
    </g>
    <g
       id="g748"
       transform="translate(24,240)">
      <path
         id="path694"
         d="M 40,0 -24,32 V 56 L 40,88 104,56 V 32 Z"
         inkscape:connector-curvature="0"
         style="fill:#e5e5e5" />
      <path
         id="path696"
         d="m 28,66 v 4 l 8,4 v -4 z"
         inkscape:connector-curvature="0"
         style="fill:#656565" />
      <path
         id="path698"
         d="m 30,71 1,0.5 v -4 L 30,67 Z"
         inkscape:connector-curvature="0"
         style="opacity:0.5;fill:#e5e5e5" />
      <path
         id="path700"
         d="m 34,69 -1,-0.5 v 4 l 1,0.5 z"
         inkscape:connector-curvature="0"
         style="opacity:0.5;fill:#e5e5e5" />
      <path
         id="path702"
         d="m 12,58 v 4 l 8,4 v -4 z"
         inkscape:connector-curvature="0"
         style="fill:#656565" />
      <path
         id="path704"
         d="m 14,63 1,0.5 v -4 L 14,59 Z"
         inkscape:connector-curvature="0"
         style="opacity:0.5;fill:#e5e5e5" />
      <path
         id="path706"
         d="m 18,61 -1,-0.5 v 4 l 1,0.5 z"
         inkscape:connector-curvature="0"
         style="opacity:0.5;fill:#e5e5e5" />
      <path
         id="path708"
         d="m -4,50 v 4 l 8,4 v -4 z"
         inkscape:connector-curvature="0"
         style="fill:#656565" />
      <path
         id="path710"
         d="m -2,55 1,0.5 v -4 L -2,51 Z"
         inkscape:connector-curvature="0"
         style="opacity:0.5;fill:#e5e5e5" />
      <path
         id="path712"
         d="M 2,53 1,52.5 v 4 L 2,57 Z"
         inkscape:connector-curvature="0"
         style="opacity:0.5;fill:#e5e5e5" />
      <path
         id="path714"
         d="m -20,42 v 4 l 8,4 v -4 z"
         inkscape:connector-curvature="0"
         style="fill:#656565" />
      <path
         id="path716"
         d="m -18,47 1,0.5 v -4 L -18,43 Z"
         inkscape:connector-curvature="0"
         style="opacity:0.5;fill:#e5e5e5" />
      <path
         id="path718"
         d="m -14,45 -1,-0.5 v 4 l 1,0.5 z"
         inkscape:connector-curvature="0"
         style="opacity:0.5;fill:#e5e5e5" />
      <path
         id="path720"
         d="m 52,66 v 4 l -8,4 v -4 z"
         inkscape:connector-curvature="0"
         style="fill:#656565" />
      <path
         id="path722"
         d="m 50,71 -1,0.5 v -4 L 50,67 Z"
         inkscape:connector-curvature="0"
         style="opacity:0.5;fill:#e5e5e5" />
      <path
         id="path724"
         d="m 46,69 1,-0.5 v 4 L 46,73 Z"
         inkscape:connector-curvature="0"
         style="opacity:0.5;fill:#e5e5e5" />
      <path
         id="path726"
         d="m 68,58 v 4 l -8,4 v -4 z"
         inkscape:connector-curvature="0"
         style="fill:#656565" />
      <path
         id="path728"
         d="m 66,63 -1,0.5 v -4 L 66,59 Z"
         inkscape:connector-curvature="0"
         style="opacity:0.5;fill:#e5e5e5" />
      <path
         id="path730"
         d="m 62,61 1,-0.5 v 4 L 62,65 Z"
         inkscape:connector-curvature="0"
         style="opacity:0.5;fill:#e5e5e5" />
      <path
         id="path732"
         d="m 84,50 v 4 l -8,4 v -4 z"
         inkscape:connector-curvature="0"
         style="fill:#656565" />
      <path
         id="path734"
         d="m 82,55 -1,0.5 v -4 L 82,51 Z"
         inkscape:connector-curvature="0"
         style="opacity:0.5;fill:#e5e5e5" />
      <path
         id="path736"
         d="m 78,53 1,-0.5 v 4 L 78,57 Z"
         inkscape:connector-curvature="0"
         style="opacity:0.5;fill:#e5e5e5" />
      <path
         id="path738"
         d="m 100,42 v 4 l -8,4 v -4 z"
         inkscape:connector-curvature="0"
         style="fill:#656565" />
      <path
         id="path740"
         d="m 98,47 -1,0.5 v -4 L 98,43 Z"
         inkscape:connector-curvature="0"
         style="opacity:0.5;fill:#e5e5e5" />
      <path
         id="path742"
         d="m 94,45 1,-0.5 v 4 L 94,49 Z"
         inkscape:connector-curvature="0"
         style="opacity:0.5;fill:#e5e5e5" />
      <path
         id="path744"
         d="M 104,56 40,88 V 64 l 64,-32 z"
         inkscape:connector-curvature="0"
         style="opacity:0.28999999" />
      <path
         id="path746"
         d="M 40,88 -24,56 V 32 l 64,32 z"
         inkscape:connector-curvature="0"
         style="opacity:0.11000001" />
    </g>
    <g
       id="g756"
       transform="translate(88,288)">
      <path
         id="path750"
         d="m 40,4 -64,32 v 4 l 64,32 64,-32 v -4 z"
         inkscape:connector-curvature="0"
         style="fill:#2d3134" />
      <path
         id="path752"
         d="M 104,40 40,72 v -4 l 64,-32 z"
         inkscape:connector-curvature="0"
         style="opacity:0.28999999" />
      <path
         id="path754"
         d="M 40,72 -24,40 v -4 l 64,32 z"
         inkscape:connector-curvature="0"
         style="opacity:0.11000001" />
    </g>
    <g
       id="g764"
       transform="translate(24,232)">
      <path
         id="path758"
         d="m 40,4 -64,32 v 4 l 64,32 64,-32 v -4 z"
         inkscape:connector-curvature="0"
         style="fill:#2d3134" />
      <path
         id="path760"
         d="M 104,40 40,72 v -4 l 64,-32 z"
         inkscape:connector-curvature="0"
         style="opacity:0.28999999" />
      <path
         id="path762"
         d="M 40,72 -24,40 v -4 l 64,32 z"
         inkscape:connector-curvature="0"
         style="opacity:0.11000001" />
    </g>
    <g
       id="g772"
       transform="translate(24,252)">
      <path
         id="path766"
         d="m 40,-20 -64,32 v 4 l 16,8 64,-32 v -4 z"
         inkscape:connector-curvature="0"
         style="fill:#2d3134" />
      <path
         id="path768"
         d="M 56,-8 -8,24 v -4 l 64,-32 z"
         inkscape:connector-curvature="0"
         style="opacity:0.28999999" />
      <path
         id="path770"
         d="m -8,24 -16,-8 v -4 l 16,8 z"
         inkscape:connector-curvature="0"
         style="opacity:0.11000001" />
    </g>
  </g>
</svg>
