<?xml version="1.0" encoding="UTF-8" standalone="no"?>
<svg
   xmlns:dc="http://purl.org/dc/elements/1.1/"
   xmlns:cc="http://creativecommons.org/ns#"
   xmlns:rdf="http://www.w3.org/1999/02/22-rdf-syntax-ns#"
   xmlns:svg="http://www.w3.org/2000/svg"
   xmlns="http://www.w3.org/2000/svg"
   xmlns:sodipodi="http://sodipodi.sourceforge.net/DTD/sodipodi-0.dtd"
   xmlns:inkscape="http://www.inkscape.org/namespaces/inkscape"
   enable-background="new 0 0 24 16"
   height="20.444639"
   viewBox="0 0 32.070053 20.444639"
   width="32.070053"
   version="1.1"
   id="svg1252"
   sodipodi:docname="solar_panel_1x1.svg"
   inkscape:version="0.92.4 (5da689c313, 2019-01-14)">
  <metadata
     id="metadata1258">
    <rdf:RDF>
      <cc:Work
         rdf:about="">
        <dc:format>image/svg+xml</dc:format>
        <dc:type
           rdf:resource="http://purl.org/dc/dcmitype/StillImage" />
        <dc:title></dc:title>
      </cc:Work>
    </rdf:RDF>
  </metadata>
  <defs
     id="defs1256" />
  <sodipodi:namedview
     pagecolor="#ffffff"
     bordercolor="#666666"
     borderopacity="1"
     objecttolerance="10"
     gridtolerance="10"
     guidetolerance="10"
     inkscape:pageopacity="0"
     inkscape:pageshadow="2"
     inkscape:window-width="1366"
     inkscape:window-height="705"
     id="namedview1254"
     showgrid="true"
     inkscape:snap-global="false"
     fit-margin-top="0"
     fit-margin-left="0"
     fit-margin-right="0"
     fit-margin-bottom="0"
     inkscape:zoom="5.2149125"
     inkscape:cx="35.270516"
     inkscape:cy="18.917475"
     inkscape:window-x="-8"
     inkscape:window-y="-8"
     inkscape:window-maximized="1"
     inkscape:current-layer="svg1252">
    <inkscape:grid
       type="axonomgrid"
       id="grid1260"
       units="px"
       empspacing="1"
       spacingy="16"
       gridanglex="26.57"
       gridanglez="26.57"
       originx="48.066598"
       originy="0" />
  </sodipodi:namedview>
  <g
     id="g2777"
     transform="translate(34.166598,0.4446388)">
    <path
       inkscape:connector-curvature="0"
       id="path2067"
       d="M -18.093091,20 -2.0965457,12 -18.093091,4 -34.089637,12 Z"
       style="fill:#483e37;fill-opacity:1;stroke:none;stroke-width:1px;stroke-linecap:butt;stroke-linejoin:miter;stroke-opacity:1" />
    <g
       transform="translate(2.1694915,0.6779661)"
       id="g2719">
      <path
         d="m -20.33609,-1.1226049 -16,8 8,7.9999999 16,-7.9999999 z"
         id="path1224"
         inkscape:connector-curvature="0"
         style="fill:#999999" />
      <g
         id="g1250"
         transform="translate(-36.33609,-1.1226049)"
         style="fill:#3366cc">
        <path
           d="m 9.2,4.7 1.4,1.4 c 0.1,0.1 0.3,0.2 0.5,0.1 L 13.6,5 C 13.9,4.9 13.9,4.5 13.7,4.3 L 12.3,2.9 C 12.2,2.8 12,2.7 11.8,2.8 L 9.3,4 C 9.1,4.1 9,4.5 9.2,4.7 Z"
           id="path1226"
           inkscape:connector-curvature="0" />
        <path
           d="M 18.1,3.4 15.9,4.5 C 15.6,4.6 15.6,5 15.8,5.2 l 1.3,1.3 c 0.1,0.1 0.3,0.2 0.5,0.1 L 19.8,5.5 C 20.1,5.4 20.1,5 19.9,4.8 L 18.6,3.5 C 18.5,3.4 18.3,3.3 18.1,3.4 Z"
           id="path1228"
           inkscape:connector-curvature="0" />
        <path
           d="M 5.9,12.6 8.1,11.5 C 8.4,11.4 8.4,11 8.2,10.8 L 6.9,9.4 C 6.8,9.3 6.5,9.2 6.4,9.3 l -2.2,1.1 c -0.3,0.1 -0.3,0.5 -0.1,0.7 l 1.3,1.3 c 0.1,0.2 0.3,0.3 0.5,0.2 z"
           id="path1230"
           inkscape:connector-curvature="0" />
        <path
           d="M 10.4,7.3 7.9,8.6 C 7.6,8.7 7.6,9.1 7.8,9.3 l 1.3,1.3 c 0.1,0.1 0.3,0.2 0.5,0.1 L 12.1,9.5 C 12.4,9.4 12.4,9 12.2,8.8 L 10.9,7.5 C 10.8,7.3 10.5,7.2 10.4,7.3 Z"
           id="path1232"
           inkscape:connector-curvature="0" />
        <path
           d="M 13.6,8.7 16.1,7.5 C 16.4,7.4 16.4,7 16.2,6.8 L 14.9,5.5 C 14.8,5.4 14.6,5.3 14.4,5.4 l -2.5,1.2 c -0.3,0.1 -0.3,0.5 -0.1,0.7 l 1.3,1.3 c 0.1,0.1 0.4,0.2 0.5,0.1 z"
           id="path1234"
           inkscape:connector-curvature="0" />
        <path
           d="M 7.1,8.2 9.6,7 C 9.9,6.9 9.9,6.5 9.7,6.3 L 8.3,4.8 C 8.2,4.7 8,4.7 7.8,4.8 L 5.3,6 C 5.1,6.1 5,6.5 5.2,6.7 L 6.6,8.1 C 6.7,8.2 7,8.3 7.1,8.2 Z"
           id="path1236"
           inkscape:connector-curvature="0" />
        <path
           d="M 14.8,11.3 13.4,9.9 C 13.3,9.8 13.1,9.7 12.9,9.8 L 10.4,11 c -0.3,0.1 -0.3,0.5 -0.1,0.7 l 1.4,1.4 c 0.1,0.1 0.3,0.2 0.5,0.1 L 14.7,12 c 0.2,-0.1 0.3,-0.5 0.1,-0.7 z"
           id="path1238"
           inkscape:connector-curvature="0" />
        <path
           d="M 15.1,4.2 17.3,3.1 C 17.6,3 17.6,2.6 17.4,2.4 L 16.1,1 C 16,0.9 15.8,0.8 15.6,0.9 L 13.3,2 C 13,2.1 13,2.5 13.2,2.7 l 1.4,1.4 c 0.1,0.1 0.4,0.2 0.5,0.1 z"
           id="path1240"
           inkscape:connector-curvature="0" />
        <path
           d="M 8.9,11.8 6.7,12.9 C 6.4,13 6.4,13.4 6.6,13.6 L 7.9,15 c 0.1,0.1 0.3,0.2 0.5,0.1 L 10.6,14 c 0.3,-0.1 0.3,-0.5 0.1,-0.7 L 9.3,11.9 C 9.3,11.8 9,11.7 8.9,11.8 Z"
           id="path1242"
           inkscape:connector-curvature="0" />
        <path
           d="M 5.7,8.2 4.3,6.8 C 4.2,6.7 4,6.7 3.8,6.8 L 1.6,7.9 C 1.3,8 1.2,8.4 1.5,8.6 L 2.8,10 c 0.1,0.1 0.3,0.2 0.5,0.1 L 5.5,9 C 5.9,8.8 5.9,8.4 5.7,8.2 Z"
           id="path1244"
           inkscape:connector-curvature="0" />
        <path
           d="M 16.9,7.8 14.4,9 c -0.3,0.1 -0.3,0.5 -0.1,0.7 l 1.4,1.4 c 0.1,0.1 0.3,0.2 0.5,0.1 L 18.7,10 C 19,9.9 19,9.5 18.8,9.3 L 17.4,7.9 C 17.3,7.8 17,7.7 16.9,7.8 Z"
           id="path1246"
           inkscape:connector-curvature="0" />
        <path
           d="M 20.6,5.9 18.4,7 c -0.3,0.1 -0.3,0.5 -0.1,0.7 l 1.4,1.4 c 0.1,0.1 0.3,0.2 0.5,0.1 L 22.4,8.1 C 22.7,8 22.7,7.6 22.5,7.4 L 21.2,6 C 21,5.9 20.8,5.8 20.6,5.9 Z"
           id="path1248"
           inkscape:connector-curvature="0" />
      </g>
      <g
         style="fill:#3366cc"
         transform="translate(-36.33609,-1.1226049)"
         id="g2636">
        <path
           inkscape:connector-curvature="0"
           id="path2612"
           d="m 9.2,4.7 1.4,1.4 c 0.1,0.1 0.3,0.2 0.5,0.1 L 13.6,5 C 13.9,4.9 13.9,4.5 13.7,4.3 L 12.3,2.9 C 12.2,2.8 12,2.7 11.8,2.8 L 9.3,4 C 9.1,4.1 9,4.5 9.2,4.7 Z" />
        <path
           inkscape:connector-curvature="0"
           id="path2614"
           d="M 18.1,3.4 15.9,4.5 C 15.6,4.6 15.6,5 15.8,5.2 l 1.3,1.3 c 0.1,0.1 0.3,0.2 0.5,0.1 L 19.8,5.5 C 20.1,5.4 20.1,5 19.9,4.8 L 18.6,3.5 C 18.5,3.4 18.3,3.3 18.1,3.4 Z" />
        <path
           inkscape:connector-curvature="0"
           id="path2616"
           d="M 5.9,12.6 8.1,11.5 C 8.4,11.4 8.4,11 8.2,10.8 L 6.9,9.4 C 6.8,9.3 6.5,9.2 6.4,9.3 l -2.2,1.1 c -0.3,0.1 -0.3,0.5 -0.1,0.7 l 1.3,1.3 c 0.1,0.2 0.3,0.3 0.5,0.2 z" />
        <path
           inkscape:connector-curvature="0"
           id="path2618"
           d="M 10.4,7.3 7.9,8.6 C 7.6,8.7 7.6,9.1 7.8,9.3 l 1.3,1.3 c 0.1,0.1 0.3,0.2 0.5,0.1 L 12.1,9.5 C 12.4,9.4 12.4,9 12.2,8.8 L 10.9,7.5 C 10.8,7.3 10.5,7.2 10.4,7.3 Z" />
        <path
           inkscape:connector-curvature="0"
           id="path2620"
           d="M 13.6,8.7 16.1,7.5 C 16.4,7.4 16.4,7 16.2,6.8 L 14.9,5.5 C 14.8,5.4 14.6,5.3 14.4,5.4 l -2.5,1.2 c -0.3,0.1 -0.3,0.5 -0.1,0.7 l 1.3,1.3 c 0.1,0.1 0.4,0.2 0.5,0.1 z" />
        <path
           inkscape:connector-curvature="0"
           id="path2622"
           d="M 7.1,8.2 9.6,7 C 9.9,6.9 9.9,6.5 9.7,6.3 L 8.3,4.8 C 8.2,4.7 8,4.7 7.8,4.8 L 5.3,6 C 5.1,6.1 5,6.5 5.2,6.7 L 6.6,8.1 C 6.7,8.2 7,8.3 7.1,8.2 Z" />
        <path
           inkscape:connector-curvature="0"
           id="path2624"
           d="M 14.8,11.3 13.4,9.9 C 13.3,9.8 13.1,9.7 12.9,9.8 L 10.4,11 c -0.3,0.1 -0.3,0.5 -0.1,0.7 l 1.4,1.4 c 0.1,0.1 0.3,0.2 0.5,0.1 L 14.7,12 c 0.2,-0.1 0.3,-0.5 0.1,-0.7 z" />
        <path
           inkscape:connector-curvature="0"
           id="path2626"
           d="M 15.1,4.2 17.3,3.1 C 17.6,3 17.6,2.6 17.4,2.4 L 16.1,1 C 16,0.9 15.8,0.8 15.6,0.9 L 13.3,2 C 13,2.1 13,2.5 13.2,2.7 l 1.4,1.4 c 0.1,0.1 0.4,0.2 0.5,0.1 z" />
        <path
           inkscape:connector-curvature="0"
           id="path2628"
           d="M 8.9,11.8 6.7,12.9 C 6.4,13 6.4,13.4 6.6,13.6 L 7.9,15 c 0.1,0.1 0.3,0.2 0.5,0.1 L 10.6,14 c 0.3,-0.1 0.3,-0.5 0.1,-0.7 L 9.3,11.9 C 9.3,11.8 9,11.7 8.9,11.8 Z" />
        <path
           inkscape:connector-curvature="0"
           id="path2630"
           d="M 5.7,8.2 4.3,6.8 C 4.2,6.7 4,6.7 3.8,6.8 L 1.6,7.9 C 1.3,8 1.2,8.4 1.5,8.6 L 2.8,10 c 0.1,0.1 0.3,0.2 0.5,0.1 L 5.5,9 C 5.9,8.8 5.9,8.4 5.7,8.2 Z" />
        <path
           inkscape:connector-curvature="0"
           id="path2632"
           d="M 16.9,7.8 14.4,9 c -0.3,0.1 -0.3,0.5 -0.1,0.7 l 1.4,1.4 c 0.1,0.1 0.3,0.2 0.5,0.1 L 18.7,10 C 19,9.9 19,9.5 18.8,9.3 L 17.4,7.9 C 17.3,7.8 17,7.7 16.9,7.8 Z" />
        <path
           inkscape:connector-curvature="0"
           id="path2634"
           d="M 20.6,5.9 18.4,7 c -0.3,0.1 -0.3,0.5 -0.1,0.7 l 1.4,1.4 c 0.1,0.1 0.3,0.2 0.5,0.1 L 22.4,8.1 C 22.7,8 22.7,7.6 22.5,7.4 L 21.2,6 C 21,5.9 20.8,5.8 20.6,5.9 Z" />
      </g>
    </g>
    <path
       d="m -10.354734,3.6672256 -16,8.0000004 8,8 15.9999999,-8 z"
       id="path2638"
       inkscape:connector-curvature="0"
       style="fill:#999999" />
    <g
       id="g2664"
       transform="translate(-26.354734,3.6672256)"
       style="fill:#3366cc">
      <path
         d="m 9.2,4.7 1.4,1.4 c 0.1,0.1 0.3,0.2 0.5,0.1 L 13.6,5 C 13.9,4.9 13.9,4.5 13.7,4.3 L 12.3,2.9 C 12.2,2.8 12,2.7 11.8,2.8 L 9.3,4 C 9.1,4.1 9,4.5 9.2,4.7 Z"
         id="path2640"
         inkscape:connector-curvature="0" />
      <path
         d="M 18.1,3.4 15.9,4.5 C 15.6,4.6 15.6,5 15.8,5.2 l 1.3,1.3 c 0.1,0.1 0.3,0.2 0.5,0.1 L 19.8,5.5 C 20.1,5.4 20.1,5 19.9,4.8 L 18.6,3.5 C 18.5,3.4 18.3,3.3 18.1,3.4 Z"
         id="path2642"
         inkscape:connector-curvature="0" />
      <path
         d="M 5.9,12.6 8.1,11.5 C 8.4,11.4 8.4,11 8.2,10.8 L 6.9,9.4 C 6.8,9.3 6.5,9.2 6.4,9.3 l -2.2,1.1 c -0.3,0.1 -0.3,0.5 -0.1,0.7 l 1.3,1.3 c 0.1,0.2 0.3,0.3 0.5,0.2 z"
         id="path2644"
         inkscape:connector-curvature="0" />
      <path
         d="M 10.4,7.3 7.9,8.6 C 7.6,8.7 7.6,9.1 7.8,9.3 l 1.3,1.3 c 0.1,0.1 0.3,0.2 0.5,0.1 L 12.1,9.5 C 12.4,9.4 12.4,9 12.2,8.8 L 10.9,7.5 C 10.8,7.3 10.5,7.2 10.4,7.3 Z"
         id="path2646"
         inkscape:connector-curvature="0" />
      <path
         d="M 13.6,8.7 16.1,7.5 C 16.4,7.4 16.4,7 16.2,6.8 L 14.9,5.5 C 14.8,5.4 14.6,5.3 14.4,5.4 l -2.5,1.2 c -0.3,0.1 -0.3,0.5 -0.1,0.7 l 1.3,1.3 c 0.1,0.1 0.4,0.2 0.5,0.1 z"
         id="path2648"
         inkscape:connector-curvature="0" />
      <path
         d="M 7.1,8.2 9.6,7 C 9.9,6.9 9.9,6.5 9.7,6.3 L 8.3,4.8 C 8.2,4.7 8,4.7 7.8,4.8 L 5.3,6 C 5.1,6.1 5,6.5 5.2,6.7 L 6.6,8.1 C 6.7,8.2 7,8.3 7.1,8.2 Z"
         id="path2650"
         inkscape:connector-curvature="0" />
      <path
         d="M 14.8,11.3 13.4,9.9 C 13.3,9.8 13.1,9.7 12.9,9.8 L 10.4,11 c -0.3,0.1 -0.3,0.5 -0.1,0.7 l 1.4,1.4 c 0.1,0.1 0.3,0.2 0.5,0.1 L 14.7,12 c 0.2,-0.1 0.3,-0.5 0.1,-0.7 z"
         id="path2652"
         inkscape:connector-curvature="0" />
      <path
         d="M 15.1,4.2 17.3,3.1 C 17.6,3 17.6,2.6 17.4,2.4 L 16.1,1 C 16,0.9 15.8,0.8 15.6,0.9 L 13.3,2 C 13,2.1 13,2.5 13.2,2.7 l 1.4,1.4 c 0.1,0.1 0.4,0.2 0.5,0.1 z"
         id="path2654"
         inkscape:connector-curvature="0" />
      <path
         d="M 8.9,11.8 6.7,12.9 C 6.4,13 6.4,13.4 6.6,13.6 L 7.9,15 c 0.1,0.1 0.3,0.2 0.5,0.1 L 10.6,14 c 0.3,-0.1 0.3,-0.5 0.1,-0.7 L 9.3,11.9 C 9.3,11.8 9,11.7 8.9,11.8 Z"
         id="path2656"
         inkscape:connector-curvature="0" />
      <path
         d="M 5.7,8.2 4.3,6.8 C 4.2,6.7 4,6.7 3.8,6.8 L 1.6,7.9 C 1.3,8 1.2,8.4 1.5,8.6 L 2.8,10 c 0.1,0.1 0.3,0.2 0.5,0.1 L 5.5,9 C 5.9,8.8 5.9,8.4 5.7,8.2 Z"
         id="path2658"
         inkscape:connector-curvature="0" />
      <path
         d="M 16.9,7.8 14.4,9 c -0.3,0.1 -0.3,0.5 -0.1,0.7 l 1.4,1.4 c 0.1,0.1 0.3,0.2 0.5,0.1 L 18.7,10 C 19,9.9 19,9.5 18.8,9.3 L 17.4,7.9 C 17.3,7.8 17,7.7 16.9,7.8 Z"
         id="path2660"
         inkscape:connector-curvature="0" />
      <path
         d="M 20.6,5.9 18.4,7 c -0.3,0.1 -0.3,0.5 -0.1,0.7 l 1.4,1.4 c 0.1,0.1 0.3,0.2 0.5,0.1 L 22.4,8.1 C 22.7,8 22.7,7.6 22.5,7.4 L 21.2,6 C 21,5.9 20.8,5.8 20.6,5.9 Z"
         id="path2662"
         inkscape:connector-curvature="0" />
    </g>
    <g
       style="fill:#3366cc"
       transform="translate(-26.354734,3.6672256)"
       id="g2690">
      <path
         inkscape:connector-curvature="0"
         id="path2666"
         d="m 9.2,4.7 1.4,1.4 c 0.1,0.1 0.3,0.2 0.5,0.1 L 13.6,5 C 13.9,4.9 13.9,4.5 13.7,4.3 L 12.3,2.9 C 12.2,2.8 12,2.7 11.8,2.8 L 9.3,4 C 9.1,4.1 9,4.5 9.2,4.7 Z" />
      <path
         inkscape:connector-curvature="0"
         id="path2668"
         d="M 18.1,3.4 15.9,4.5 C 15.6,4.6 15.6,5 15.8,5.2 l 1.3,1.3 c 0.1,0.1 0.3,0.2 0.5,0.1 L 19.8,5.5 C 20.1,5.4 20.1,5 19.9,4.8 L 18.6,3.5 C 18.5,3.4 18.3,3.3 18.1,3.4 Z" />
      <path
         inkscape:connector-curvature="0"
         id="path2670"
         d="M 5.9,12.6 8.1,11.5 C 8.4,11.4 8.4,11 8.2,10.8 L 6.9,9.4 C 6.8,9.3 6.5,9.2 6.4,9.3 l -2.2,1.1 c -0.3,0.1 -0.3,0.5 -0.1,0.7 l 1.3,1.3 c 0.1,0.2 0.3,0.3 0.5,0.2 z" />
      <path
         inkscape:connector-curvature="0"
         id="path2672"
         d="M 10.4,7.3 7.9,8.6 C 7.6,8.7 7.6,9.1 7.8,9.3 l 1.3,1.3 c 0.1,0.1 0.3,0.2 0.5,0.1 L 12.1,9.5 C 12.4,9.4 12.4,9 12.2,8.8 L 10.9,7.5 C 10.8,7.3 10.5,7.2 10.4,7.3 Z" />
      <path
         inkscape:connector-curvature="0"
         id="path2674"
         d="M 13.6,8.7 16.1,7.5 C 16.4,7.4 16.4,7 16.2,6.8 L 14.9,5.5 C 14.8,5.4 14.6,5.3 14.4,5.4 l -2.5,1.2 c -0.3,0.1 -0.3,0.5 -0.1,0.7 l 1.3,1.3 c 0.1,0.1 0.4,0.2 0.5,0.1 z" />
      <path
         inkscape:connector-curvature="0"
         id="path2676"
         d="M 7.1,8.2 9.6,7 C 9.9,6.9 9.9,6.5 9.7,6.3 L 8.3,4.8 C 8.2,4.7 8,4.7 7.8,4.8 L 5.3,6 C 5.1,6.1 5,6.5 5.2,6.7 L 6.6,8.1 C 6.7,8.2 7,8.3 7.1,8.2 Z" />
      <path
         inkscape:connector-curvature="0"
         id="path2678"
         d="M 14.8,11.3 13.4,9.9 C 13.3,9.8 13.1,9.7 12.9,9.8 L 10.4,11 c -0.3,0.1 -0.3,0.5 -0.1,0.7 l 1.4,1.4 c 0.1,0.1 0.3,0.2 0.5,0.1 L 14.7,12 c 0.2,-0.1 0.3,-0.5 0.1,-0.7 z" />
      <path
         inkscape:connector-curvature="0"
         id="path2680"
         d="M 15.1,4.2 17.3,3.1 C 17.6,3 17.6,2.6 17.4,2.4 L 16.1,1 C 16,0.9 15.8,0.8 15.6,0.9 L 13.3,2 C 13,2.1 13,2.5 13.2,2.7 l 1.4,1.4 c 0.1,0.1 0.4,0.2 0.5,0.1 z" />
      <path
         inkscape:connector-curvature="0"
         id="path2682"
         d="M 8.9,11.8 6.7,12.9 C 6.4,13 6.4,13.4 6.6,13.6 L 7.9,15 c 0.1,0.1 0.3,0.2 0.5,0.1 L 10.6,14 c 0.3,-0.1 0.3,-0.5 0.1,-0.7 L 9.3,11.9 C 9.3,11.8 9,11.7 8.9,11.8 Z" />
      <path
         inkscape:connector-curvature="0"
         id="path2684"
         d="M 5.7,8.2 4.3,6.8 C 4.2,6.7 4,6.7 3.8,6.8 L 1.6,7.9 C 1.3,8 1.2,8.4 1.5,8.6 L 2.8,10 c 0.1,0.1 0.3,0.2 0.5,0.1 L 5.5,9 C 5.9,8.8 5.9,8.4 5.7,8.2 Z" />
      <path
         inkscape:connector-curvature="0"
         id="path2686"
         d="M 16.9,7.8 14.4,9 c -0.3,0.1 -0.3,0.5 -0.1,0.7 l 1.4,1.4 c 0.1,0.1 0.3,0.2 0.5,0.1 L 18.7,10 C 19,9.9 19,9.5 18.8,9.3 L 17.4,7.9 C 17.3,7.8 17,7.7 16.9,7.8 Z" />
      <path
         inkscape:connector-curvature="0"
         id="path2688"
         d="M 20.6,5.9 18.4,7 c -0.3,0.1 -0.3,0.5 -0.1,0.7 l 1.4,1.4 c 0.1,0.1 0.3,0.2 0.5,0.1 L 22.4,8.1 C 22.7,8 22.7,7.6 22.5,7.4 L 21.2,6 C 21,5.9 20.8,5.8 20.6,5.9 Z" />
    </g>
  </g>
</svg>
