<?xml version="1.0" encoding="UTF-8" standalone="no"?>
<svg
   xmlns:dc="http://purl.org/dc/elements/1.1/"
   xmlns:cc="http://creativecommons.org/ns#"
   xmlns:rdf="http://www.w3.org/1999/02/22-rdf-syntax-ns#"
   xmlns:svg="http://www.w3.org/2000/svg"
   xmlns="http://www.w3.org/2000/svg"
   xmlns:sodipodi="http://sodipodi.sourceforge.net/DTD/sodipodi-0.dtd"
   xmlns:inkscape="http://www.inkscape.org/namespaces/inkscape"
   enable-background="new 0 0 48 48"
   height="48"
   viewBox="0 0 48 48"
   width="48"
   version="1.1"
   id="svg10658"
   sodipodi:docname="construction-frame-03.svg"
   inkscape:version="0.92.4 (5da689c313, 2019-01-14)">
  <metadata
     id="metadata10664">
    <rdf:RDF>
      <cc:Work
         rdf:about="">
        <dc:format>image/svg+xml</dc:format>
        <dc:type
           rdf:resource="http://purl.org/dc/dcmitype/StillImage" />
        <dc:title></dc:title>
      </cc:Work>
    </rdf:RDF>
  </metadata>
  <defs
     id="defs10662" />
  <sodipodi:namedview
     pagecolor="#ffffff"
     bordercolor="#666666"
     borderopacity="1"
     objecttolerance="10"
     gridtolerance="10"
     guidetolerance="10"
     inkscape:pageopacity="0"
     inkscape:pageshadow="2"
     inkscape:window-width="1366"
     inkscape:window-height="705"
     id="namedview10660"
     showgrid="true"
     inkscape:zoom="2.8802083"
     inkscape:cx="24.269291"
     inkscape:cy="66.720547"
     inkscape:window-x="-8"
     inkscape:window-y="-8"
     inkscape:window-maximized="1"
     inkscape:current-layer="svg10658">
    <inkscape:grid
       type="axonomgrid"
       id="grid10815"
       units="px"
       empspacing="1"
       spacingy="16"
       gridanglex="26.57"
       gridanglez="26.57" />
  </sodipodi:namedview>
  <g
     id="g10913"
     inkscape:export-xdpi="95"
     inkscape:export-ydpi="95">
    <g
       inkscape:export-ydpi="95"
       inkscape:export-xdpi="95"
       transform="translate(-14,-26.242315)"
       id="g10879">
      <path
         d="m -31.993091,48 18,-9 v -2 l -18,-9 -18,9 v 2 z"
         id="path10628"
         inkscape:connector-curvature="0"
         style="fill:#e5e5e5" />
      <path
         d="m -49.993091,37 18,9 v 2 l -18,-9 z"
         id="path10630"
         inkscape:connector-curvature="0"
         style="opacity:0.11000001" />
      <path
         d="m -31.993091,46 v 2 l 18,-9 v -2 z"
         id="path10632"
         inkscape:connector-curvature="0"
         style="opacity:0.28999999" />
      <path
         d="m -33.993091,7 v 22 l 2,1 2,-1 V 7 l -2,-1 z"
         id="path10634"
         inkscape:connector-curvature="0"
         style="fill:#999999" />
      <path
         d="m -31.993091,30 -2,-1 V 7 l 2,1 z"
         id="path10636"
         inkscape:connector-curvature="0"
         style="opacity:0.11000001" />
      <path
         d="m -31.993091,8 v 22 l 2,-1 V 7 Z"
         id="path10638"
         inkscape:connector-curvature="0"
         style="opacity:0.28999999" />
      <path
         d="m -33.993091,23 v 22 l 2,1 2,-1 V 23 l -2,-1 z"
         id="path10640"
         inkscape:connector-curvature="0"
         style="fill:#999999" />
      <path
         d="m -31.993091,46 -2,-1 V 23 l 2,1 z"
         id="path10642"
         inkscape:connector-curvature="0"
         style="opacity:0.11000001" />
      <path
         d="m -31.993091,24 v 22 l 2,-1 V 23 Z"
         id="path10644"
         inkscape:connector-curvature="0"
         style="opacity:0.28999999" />
      <path
         d="m -49.993091,15 v 22 l 2,1 2,-1 V 15 l -2,-1 z"
         id="path10646"
         inkscape:connector-curvature="0"
         style="fill:#999999" />
      <path
         d="m -47.993091,38 -2,-1 V 15 l 2,1 z"
         id="path10648"
         inkscape:connector-curvature="0"
         style="opacity:0.11000001" />
      <path
         d="m -47.993091,16 v 22 l 2,-1 V 15 Z"
         id="path10650"
         inkscape:connector-curvature="0"
         style="opacity:0.28999999" />
      <path
         d="m -17.993091,15 v 22 l 2,1 2,-1 V 15 l -2,-1 z"
         id="path10652"
         inkscape:connector-curvature="0"
         style="fill:#999999" />
      <path
         d="m -15.993091,38 -2,-1 V 15 l 2,1 z"
         id="path10654"
         inkscape:connector-curvature="0"
         style="opacity:0.11000001" />
      <path
         d="m -15.993091,16 v 22 l 2,-1 V 15 Z"
         id="path10656"
         inkscape:connector-curvature="0"
         style="opacity:0.28999999" />
    </g>
    <g
       transform="translate(-69.993091,-50.242315)"
       id="g10713">
      <path
         style="fill:#e5e5e5"
         inkscape:connector-curvature="0"
         id="path10683"
         d="M 24,48 42,39 V 37 L 24,28 6,37 v 2 z" />
      <path
         style="opacity:0.11000001"
         inkscape:connector-curvature="0"
         id="path10685"
         d="m 6,37 18,9 v 2 L 6,39 Z" />
      <path
         style="opacity:0.28999999"
         inkscape:connector-curvature="0"
         id="path10687"
         d="m 24,46 v 2 l 18,-9 v -2 z" />
      <path
         style="fill:#999999"
         inkscape:connector-curvature="0"
         id="path10689"
         d="m 22,7 v 22 l 2,1 2,-1 V 7 L 24,6 Z" />
      <path
         style="opacity:0.11000001"
         inkscape:connector-curvature="0"
         id="path10691"
         d="M 24,30 22,29 V 7 l 2,1 z" />
      <path
         style="opacity:0.28999999"
         inkscape:connector-curvature="0"
         id="path10693"
         d="m 24,8 v 22 l 2,-1 V 7 Z" />
      <path
         style="fill:#999999"
         inkscape:connector-curvature="0"
         id="path10695"
         d="m 22,23 v 22 l 2,1 2,-1 V 23 l -2,-1 z" />
      <path
         style="opacity:0.11000001"
         inkscape:connector-curvature="0"
         id="path10697"
         d="M 24,46 22,45 V 23 l 2,1 z" />
      <path
         style="opacity:0.28999999"
         inkscape:connector-curvature="0"
         id="path10699"
         d="m 24,24 v 22 l 2,-1 V 23 Z" />
      <path
         style="fill:#999999"
         inkscape:connector-curvature="0"
         id="path10701"
         d="m 6,15 v 22 l 2,1 2,-1 V 15 L 8,14 Z" />
      <path
         style="opacity:0.11000001"
         inkscape:connector-curvature="0"
         id="path10703"
         d="M 8,38 6,37 V 15 l 2,1 z" />
      <path
         style="opacity:0.28999999"
         inkscape:connector-curvature="0"
         id="path10705"
         d="m 8,16 v 22 l 2,-1 V 15 Z" />
      <path
         style="fill:#999999"
         inkscape:connector-curvature="0"
         id="path10707"
         d="m 38,15 v 22 l 2,1 2,-1 V 15 l -2,-1 z" />
      <path
         style="opacity:0.11000001"
         inkscape:connector-curvature="0"
         id="path10709"
         d="M 40,38 38,37 V 15 l 2,1 z" />
      <path
         style="opacity:0.28999999"
         inkscape:connector-curvature="0"
         id="path10711"
         d="m 40,16 v 22 l 2,-1 V 15 Z" />
    </g>
  </g>
  <g
     id="g10813"
     transform="translate(39.403621,-10.556733)">
    <g
       id="g10779">
      <path
         id="path10749"
         d="M 24,48 42,39 V 37 L 24,28 6,37 v 2 z"
         inkscape:connector-curvature="0"
         style="fill:#e5e5e5" />
      <path
         id="path10751"
         d="m 6,37 18,9 v 2 L 6,39 Z"
         inkscape:connector-curvature="0"
         style="opacity:0.11000001" />
      <path
         id="path10753"
         d="m 24,46 v 2 l 18,-9 v -2 z"
         inkscape:connector-curvature="0"
         style="opacity:0.28999999" />
      <path
         id="path10755"
         d="m 22,7 v 22 l 2,1 2,-1 V 7 L 24,6 Z"
         inkscape:connector-curvature="0"
         style="fill:#999999" />
      <path
         id="path10757"
         d="M 24,30 22,29 V 7 l 2,1 z"
         inkscape:connector-curvature="0"
         style="opacity:0.11000001" />
      <path
         id="path10759"
         d="m 24,8 v 22 l 2,-1 V 7 Z"
         inkscape:connector-curvature="0"
         style="opacity:0.28999999" />
      <path
         id="path10761"
         d="m 22,23 v 22 l 2,1 2,-1 V 23 l -2,-1 z"
         inkscape:connector-curvature="0"
         style="fill:#999999" />
      <path
         id="path10763"
         d="M 24,46 22,45 V 23 l 2,1 z"
         inkscape:connector-curvature="0"
         style="opacity:0.11000001" />
      <path
         id="path10765"
         d="m 24,24 v 22 l 2,-1 V 23 Z"
         inkscape:connector-curvature="0"
         style="opacity:0.28999999" />
      <path
         id="path10767"
         d="m 6,15 v 22 l 2,1 2,-1 V 15 L 8,14 Z"
         inkscape:connector-curvature="0"
         style="fill:#999999" />
      <path
         id="path10769"
         d="M 8,38 6,37 V 15 l 2,1 z"
         inkscape:connector-curvature="0"
         style="opacity:0.11000001" />
      <path
         id="path10771"
         d="m 8,16 v 22 l 2,-1 V 15 Z"
         inkscape:connector-curvature="0"
         style="opacity:0.28999999" />
      <path
         id="path10773"
         d="m 38,15 v 22 l 2,1 2,-1 V 15 l -2,-1 z"
         inkscape:connector-curvature="0"
         style="fill:#999999" />
      <path
         id="path10775"
         d="M 40,38 38,37 V 15 l 2,1 z"
         inkscape:connector-curvature="0"
         style="opacity:0.11000001" />
      <path
         id="path10777"
         d="m 40,16 v 22 l 2,-1 V 15 Z"
         inkscape:connector-curvature="0"
         style="opacity:0.28999999" />
    </g>
    <g
       id="g10811"
       transform="translate(0,-24)">
      <path
         d="M 24,48 42,39 V 37 L 24,28 6,37 v 2 z"
         id="path10781"
         inkscape:connector-curvature="0"
         style="fill:#e5e5e5" />
      <path
         d="m 6,37 18,9 v 2 L 6,39 Z"
         id="path10783"
         inkscape:connector-curvature="0"
         style="opacity:0.11000001" />
      <path
         d="m 24,46 v 2 l 18,-9 v -2 z"
         id="path10785"
         inkscape:connector-curvature="0"
         style="opacity:0.28999999" />
      <path
         d="m 22,7 v 22 l 2,1 2,-1 V 7 L 24,6 Z"
         id="path10787"
         inkscape:connector-curvature="0"
         style="fill:#999999" />
      <path
         d="M 24,30 22,29 V 7 l 2,1 z"
         id="path10789"
         inkscape:connector-curvature="0"
         style="opacity:0.11000001" />
      <path
         d="m 24,8 v 22 l 2,-1 V 7 Z"
         id="path10791"
         inkscape:connector-curvature="0"
         style="opacity:0.28999999" />
      <path
         d="m 22,23 v 22 l 2,1 2,-1 V 23 l -2,-1 z"
         id="path10793"
         inkscape:connector-curvature="0"
         style="fill:#999999" />
      <path
         d="M 24,46 22,45 V 23 l 2,1 z"
         id="path10795"
         inkscape:connector-curvature="0"
         style="opacity:0.11000001" />
      <path
         d="m 24,24 v 22 l 2,-1 V 23 Z"
         id="path10797"
         inkscape:connector-curvature="0"
         style="opacity:0.28999999" />
      <path
         d="m 6,15 v 22 l 2,1 2,-1 V 15 L 8,14 Z"
         id="path10799"
         inkscape:connector-curvature="0"
         style="fill:#999999" />
      <path
         d="M 8,38 6,37 V 15 l 2,1 z"
         id="path10801"
         inkscape:connector-curvature="0"
         style="opacity:0.11000001" />
      <path
         d="m 8,16 v 22 l 2,-1 V 15 Z"
         id="path10803"
         inkscape:connector-curvature="0"
         style="opacity:0.28999999" />
      <path
         d="m 38,15 v 22 l 2,1 2,-1 V 15 l -2,-1 z"
         id="path10805"
         inkscape:connector-curvature="0"
         style="fill:#999999" />
      <path
         d="M 40,38 38,37 V 15 l 2,1 z"
         id="path10807"
         inkscape:connector-curvature="0"
         style="opacity:0.11000001" />
      <path
         d="m 40,16 v 22 l 2,-1 V 15 Z"
         id="path10809"
         inkscape:connector-curvature="0"
         style="opacity:0.28999999" />
    </g>
  </g>
</svg>
