<svg enable-background="new 0 0 720 480" height="480" viewBox="0 0 720 480" width="720" xmlns="http://www.w3.org/2000/svg"><path d="m654.5 374.2-3-5c-7.5-12.5-18.4-22.6-31.5-29.2l-40 20-26 94-8 4 6.4 3.2c15.1 7.6 32.6 6.3 46.2-2l32.6-16.3c8.7-3.5 16.5-9.5 22.1-17.8 10.2-15.3 10.7-35.2 1.2-50.9z" fill="#f90"/><path d="m580 360c13.1 6.5 24 16.7 31.5 29.2l3 5c9.5 15.8 9 35.6-1.2 50.9-13.3 20-39.4 26.9-60.9 16.2l-6.4-3.3 8-4z" opacity=".11"/><path d="m621.3 419.9c-.2 8.8-2.9 17.6-8 25.2-3.9 5.9-9 10.6-14.7 14.1l32.6-16.3c8.7-3.5 16.5-9.5 22.1-17.8 5.1-7.6 7.8-16.4 8-25.2z" opacity=".29"/><path d="m625 341-10-5-31 16v6l10 5 31-16z" fill="#f90"/><path d="m594 363 31-16v-6l-31 16z" opacity=".29"/><path d="m594 363-10-5v-6l10 5z" opacity=".11"/><path d="m290 380 220-110-260-130-220 110z" opacity=".3"/><path d="m461.5 271.3c-.7-.3-211.3-105.6-212.1-106-19.6-9.8-35.5-33.6-35.5-53.2 0-8.6 3.1-15 8.1-18.6l-38.8 19.4c-8.4 2.3-13.8 9.8-13.8 21.2 0 19.6 15.9 43.4 35.5 53.2.8.4 211.4 105.7 212.1 106 10.6 5.3 20.1 5.4 26.6 1.3l40-20c-5.9 1.8-13.7.9-22.1-3.3z" fill="#2d3134"/><path d="m236.1 172.4c-1.8-.9-3.5-1-4.8-.5l-9.2 4.7c-1.3.6-2.2 2-2.2 3.9 0 3.8 3.1 8.5 6.9 10.4 1.9.9 3.6 1 4.9.4 0 0 9.2-4.7 9.5-4.8 1.1-.7 1.8-2 1.8-3.8.1-3.7-3-8.4-6.9-10.3z" fill="#2d3134"/><path d="m231.9 191.3c.5-.2 9.2-4.6 9.4-4.8 1.1-.7 1.8-2 1.8-3.8 0-1.5-.5-3.2-1.4-4.8l-9.2 4.7c.8 1.6 1.4 3.2 1.4 4.8 0 2-.8 3.3-2 3.9z" opacity=".29"/><path d="m233.9 187.5c0 3.8-3.1 5.4-6.9 3.5s-6.9-6.6-6.9-10.4 3.1-5.4 6.9-3.5c3.7 1.9 6.9 6.6 6.9 10.4z" opacity=".11"/><path d="m269.6 189.1c-1.8-.9-3.5-1-4.8-.5l-9.2 4.7c-1.3.6-2.2 2-2.2 3.9 0 3.8 3.1 8.5 6.9 10.4 1.9.9 3.6 1 4.9.4 0 0 9.2-4.7 9.5-4.8 1.1-.7 1.8-2 1.8-3.8.1-3.7-3-8.3-6.9-10.3z" fill="#2d3134"/><path d="m265.4 208.1c.5-.2 9.2-4.6 9.4-4.8 1.1-.7 1.8-2 1.8-3.8 0-1.5-.5-3.2-1.4-4.8l-9.2 4.7c.8 1.6 1.4 3.2 1.4 4.8-.1 1.9-.8 3.3-2 3.9z" opacity=".29"/><path d="m267.3 204.2c0 3.8-3.1 5.4-6.9 3.5s-6.9-6.6-6.9-10.4 3.1-5.4 6.9-3.5 6.9 6.6 6.9 10.4z" opacity=".11"/><path d="m303.1 205.9c-1.8-.9-3.5-1-4.8-.5l-9.2 4.7c-1.3.6-2.2 2-2.2 3.9 0 3.8 3.1 8.5 6.9 10.4 1.9.9 3.6 1 4.9.4 0 0 9.2-4.7 9.5-4.8 1.1-.7 1.8-2 1.8-3.8.1-3.7-3-8.4-6.9-10.3z" fill="#2d3134"/><path d="m298.8 224.8c.5-.2 9.2-4.6 9.4-4.8 1.1-.7 1.8-2 1.8-3.8 0-1.5-.5-3.2-1.4-4.8l-9.2 4.7c.8 1.6 1.4 3.2 1.4 4.8 0 2-.7 3.3-2 3.9z" opacity=".29"/><path d="m300.8 221c0 3.8-3.1 5.4-6.9 3.5s-6.9-6.6-6.9-10.4 3.1-5.4 6.9-3.5 6.9 6.5 6.9 10.4z" opacity=".11"/><path d="m336.6 222.6c-1.8-.9-3.5-1-4.8-.5l-9.2 4.7c-1.3.6-2.2 2-2.2 3.9 0 3.8 3.1 8.5 6.9 10.4 1.9.9 3.6 1 4.9.4 0 0 9.2-4.7 9.5-4.8 1.1-.7 1.8-2 1.8-3.8.1-3.7-3-8.4-6.9-10.3z" fill="#2d3134"/><path d="m332.3 241.6c.5-.2 9.2-4.6 9.4-4.8 1.1-.7 1.8-2 1.8-3.8 0-1.5-.5-3.2-1.4-4.8l-9.2 4.7c.8 1.6 1.4 3.2 1.4 4.8 0 1.9-.7 3.2-2 3.9z" opacity=".29"/><path d="m334.3 237.7c0 3.8-3.1 5.4-6.9 3.5s-6.9-6.6-6.9-10.4 3.1-5.4 6.9-3.5 6.9 6.6 6.9 10.4z" opacity=".11"/><path d="m370.1 239.4c-1.8-.9-3.5-1-4.8-.5l-9.2 4.7c-1.3.6-2.2 2-2.2 3.9 0 3.8 3.1 8.5 6.9 10.4 1.9.9 3.6 1 4.9.4 0 0 9.2-4.7 9.5-4.8 1.1-.7 1.8-2 1.8-3.8.1-3.7-3-8.4-6.9-10.3z" fill="#2d3134"/><path d="m365.8 258.3c.5-.2 9.2-4.6 9.4-4.8 1.1-.7 1.8-2 1.8-3.8 0-1.5-.5-3.2-1.4-4.8l-9.2 4.7c.8 1.6 1.4 3.2 1.4 4.8 0 2-.7 3.3-2 3.9z" opacity=".29"/><path d="m367.8 254.5c0 3.8-3.1 5.4-6.9 3.5s-6.9-6.6-6.9-10.4 3.1-5.4 6.9-3.5 6.9 6.5 6.9 10.4z" opacity=".11"/><path d="m403.6 256.1c-1.8-.9-3.5-1-4.8-.5l-9.2 4.7c-1.3.6-2.2 2-2.2 3.9 0 3.8 3.1 8.5 6.9 10.4 1.9.9 3.6 1 4.9.4 0 0 9.2-4.7 9.5-4.8 1.1-.7 1.8-2 1.8-3.8.1-3.7-3.1-8.4-6.9-10.3z" fill="#2d3134"/><path d="m399.3 275.1c.5-.2 9.2-4.6 9.4-4.8 1.1-.7 1.8-2 1.8-3.8 0-1.5-.5-3.2-1.4-4.8l-9.2 4.7c.8 1.6 1.4 3.2 1.4 4.8 0 1.9-.7 3.2-2 3.9z" opacity=".29"/><path d="m401.3 271.2c0 3.8-3.1 5.4-6.9 3.5s-6.9-6.6-6.9-10.4 3.1-5.4 6.9-3.5 6.9 6.6 6.9 10.4z" opacity=".11"/><path d="m221.6 115.8c-5-2.5-9.6-2.8-13-1.3l-25.2 12.8c-3.6 1.6-5.9 5.4-5.9 10.8 0 10.4 8.5 23.2 18.9 28.4 5.2 2.6 9.8 2.8 13.3 1.2 0 0 25.1-12.7 25.9-13.2 3.1-1.8 4.9-5.3 4.9-10.2 0-10.5-8.4-23.3-18.9-28.5z" fill="#2d3134"/><path d="m209.9 167.5c1.3-.7 25-12.7 25.7-13.1 3.1-1.8 4.9-5.3 4.9-10.2 0-4.2-1.4-8.8-3.7-13.1l-25.2 12.8c2.3 4.3 3.7 8.9 3.7 13.1.1 5.1-2 8.8-5.4 10.5z" opacity=".29"/><path d="m215.4 157c0 10.4-8.5 14.7-18.9 9.5s-18.9-17.9-18.9-28.4 8.5-14.7 18.9-9.5 18.9 17.9 18.9 28.4z" opacity=".11"/><path d="m243.2 130.9-26.6 13.3v26.6l193.4 96.7 26.7-13.3v-26.6z" fill="#2d3134"/><path d="m216.6 170.8v-26.6l193.4 96.7v26.6z" opacity=".11"/><path d="m436.7 254.2v-26.6l-26.7 13.3v26.6z" opacity=".29"/><path d="m236.1 128.1c-1.8-.9-3.5-1-4.8-.5l-9.2 4.7c-1.3.6-2.2 2-2.2 3.9 0 3.8 3.1 8.5 6.9 10.4 1.9.9 3.6 1 4.9.4 0 0 9.2-4.7 9.5-4.8 1.1-.7 1.8-2 1.8-3.8.1-3.7-3-8.4-6.9-10.3z" fill="#2d3134"/><path d="m231.9 147.1c.5-.2 9.2-4.6 9.4-4.8 1.1-.7 1.8-2 1.8-3.8 0-1.5-.5-3.2-1.4-4.8l-9.2 4.7c.8 1.6 1.4 3.2 1.4 4.8 0 1.9-.8 3.2-2 3.9z" opacity=".29"/><path d="m233.9 143.2c0 3.8-3.1 5.4-6.9 3.5s-6.9-6.6-6.9-10.4 3.1-5.4 6.9-3.5c3.7 1.9 6.9 6.6 6.9 10.4z" opacity=".11"/><path d="m269.6 144.9c-1.8-.9-3.5-1-4.8-.5l-9.2 4.7c-1.3.6-2.2 2-2.2 3.9 0 3.8 3.1 8.5 6.9 10.4 1.9.9 3.6 1 4.9.4 0 0 9.2-4.7 9.5-4.8 1.1-.7 1.8-2 1.8-3.8.1-3.8-3-8.4-6.9-10.3z" fill="#2d3134"/><path d="m265.4 163.8c.5-.2 9.2-4.6 9.4-4.8 1.1-.7 1.8-2 1.8-3.8 0-1.5-.5-3.2-1.4-4.8l-9.2 4.7c.8 1.6 1.4 3.2 1.4 4.8-.1 1.9-.8 3.3-2 3.9z" opacity=".29"/><path d="m267.3 160c0 3.8-3.1 5.4-6.9 3.5s-6.9-6.6-6.9-10.4 3.1-5.4 6.9-3.5 6.9 6.5 6.9 10.4z" opacity=".11"/><path d="m303.1 161.6c-1.8-.9-3.5-1-4.8-.5l-9.2 4.7c-1.3.6-2.2 2-2.2 3.9 0 3.8 3.1 8.5 6.9 10.4 1.9.9 3.6 1 4.9.4 0 0 9.2-4.7 9.5-4.8 1.1-.7 1.8-2 1.8-3.8.1-3.7-3-8.4-6.9-10.3z" fill="#2d3134"/><path d="m298.8 180.6c.5-.2 9.2-4.6 9.4-4.8 1.1-.7 1.8-2 1.8-3.8 0-1.5-.5-3.2-1.4-4.8l-9.2 4.7c.8 1.6 1.4 3.2 1.4 4.8 0 1.9-.7 3.2-2 3.9z" opacity=".29"/><path d="m300.8 176.7c0 3.8-3.1 5.4-6.9 3.5s-6.9-6.6-6.9-10.4 3.1-5.4 6.9-3.5 6.9 6.6 6.9 10.4z" opacity=".11"/><path d="m336.6 178.4c-1.8-.9-3.5-1-4.8-.5l-9.2 4.7c-1.3.6-2.2 2-2.2 3.9 0 3.8 3.1 8.5 6.9 10.4 1.9.9 3.6 1 4.9.4 0 0 9.2-4.7 9.5-4.8 1.1-.7 1.8-2 1.8-3.8.1-3.8-3-8.4-6.9-10.3z" fill="#2d3134"/><path d="m332.3 197.3c.5-.2 9.2-4.6 9.4-4.8 1.1-.7 1.8-2 1.8-3.8 0-1.5-.5-3.2-1.4-4.8l-9.2 4.7c.8 1.6 1.4 3.2 1.4 4.8 0 1.9-.7 3.3-2 3.9z" opacity=".29"/><path d="m334.3 193.5c0 3.8-3.1 5.4-6.9 3.5s-6.9-6.6-6.9-10.4 3.1-5.4 6.9-3.5 6.9 6.5 6.9 10.4z" opacity=".11"/><path d="m370.1 195.1c-1.8-.9-3.5-1-4.8-.5l-9.2 4.7c-1.3.6-2.2 2-2.2 3.9 0 3.8 3.1 8.5 6.9 10.4 1.9.9 3.6 1 4.9.4 0 0 9.2-4.7 9.5-4.8 1.1-.7 1.8-2 1.8-3.8.1-3.7-3-8.4-6.9-10.3z" fill="#2d3134"/><path d="m365.8 214.1c.5-.2 9.2-4.6 9.4-4.8 1.1-.7 1.8-2 1.8-3.8 0-1.5-.5-3.2-1.4-4.8l-9.2 4.7c.8 1.6 1.4 3.2 1.4 4.8 0 1.9-.7 3.2-2 3.9z" opacity=".29"/><path d="m367.8 210.2c0 3.8-3.1 5.4-6.9 3.5s-6.9-6.6-6.9-10.4 3.1-5.4 6.9-3.5 6.9 6.6 6.9 10.4z" opacity=".11"/><path d="m403.6 211.9c-1.8-.9-3.5-1-4.8-.5l-9.2 4.7c-1.3.6-2.2 2-2.2 3.9 0 3.8 3.1 8.5 6.9 10.4 1.9.9 3.6 1 4.9.4 0 0 9.2-4.7 9.5-4.8 1.1-.7 1.8-2 1.8-3.8.1-3.8-3.1-8.4-6.9-10.3z" fill="#2d3134"/><path d="m399.3 230.8c.5-.2 9.2-4.6 9.4-4.8 1.1-.7 1.8-2 1.8-3.8 0-1.5-.5-3.2-1.4-4.8l-9.2 4.7c.8 1.6 1.4 3.2 1.4 4.8 0 1.9-.7 3.3-2 3.9z" opacity=".29"/><path d="m401.3 226.9c0 3.8-3.1 5.4-6.9 3.5s-6.9-6.6-6.9-10.4 3.1-5.4 6.9-3.5c3.8 2 6.9 6.6 6.9 10.4z" opacity=".11"/><path d="m455.9 229.8c-5-2.5-9.6-2.8-13-1.3l-25.2 12.8c-3.6 1.6-5.9 5.4-5.9 10.8 0 10.4 8.5 23.2 18.9 28.4 5.2 2.6 9.8 2.8 13.3 1.2 0 0 25.1-12.7 25.9-13.2 3.1-1.8 4.9-5.3 4.9-10.2 0-10.6-8.5-23.3-18.9-28.5z" fill="#2d3134"/><path d="m444.2 281.5c1.3-.7 25-12.7 25.7-13.1 3.1-1.8 4.9-5.3 4.9-10.2 0-4.2-1.4-8.8-3.7-13.1l-25.2 12.8c2.3 4.3 3.7 8.9 3.7 13.1 0 5.1-2 8.8-5.4 10.5z" opacity=".29"/><path d="m449.6 271c0 10.4-8.5 14.7-18.9 9.5s-18.9-17.9-18.9-28.4c0-10.4 8.5-14.7 18.9-9.5s18.9 17.9 18.9 28.4z" opacity=".11"/><g fill="#2d3134"><path d="m463.3 201.2v-.1s-213.6-106.7-213.9-106.8c-11.2-5.6-20.3-4.6-27.6-.6l-38.5 19.2c6-1.7 13.5-.7 21.7 3.4.3.1 213.9 106.8 213.9 106.8v.1c18.8 10.3 33.7 33.3 33.7 52.3 0 9-3.3 15.5-8.9 19l40.3-20.2c7.8-4 12.9-9.9 12.9-20.9.1-18.9-14.8-41.9-33.6-52.2z"/><path d="m463.3 201.2v-.1s-213.6-106.7-213.9-106.8c-11.2-5.6-20.3-4.6-27.6-.6l-38.5 19.2c6-1.7 13.5-.7 21.7 3.4.3.1 213.9 106.8 213.9 106.8v.1c18.8 10.3 33.7 33.3 33.7 52.3 0 9-3.3 15.5-8.9 19l40.3-20.2c7.8-4 12.9-9.9 12.9-20.9.1-18.9-14.8-41.9-33.6-52.2z"/><path d="m418.9 223.2v-.1s-213.6-106.7-213.9-106.8c-19.6-9.8-35.5-1.9-35.5 17.8s15.9 43.4 35.5 53.2c.8.4 211.4 105.7 212.1 106 19.6 9.8 35.5 1.9 35.5-17.8 0-19-14.9-41.9-33.7-52.3zm26.3 66.7c-3 3.2-7.2 4.9-12.2 4.9-4.5 0-9.5-1.4-14.7-3.9-.7-.3-211.3-105.6-212.1-106-18.8-9.4-34-32.2-34-50.9 0-12.1 6.3-19.3 17-19.3 4.5 0 9.5 1.4 14.7 3.9.3.1 193.5 96.7 212.4 106.1l1.4.8c18.1 10 32.3 31.9 32.3 50 0 6.1-1.7 11.1-4.8 14.4z"/></g><path d="m418.9 223.2v-.1s-213.6-106.7-213.9-106.8c-19.6-9.8-35.5-1.9-35.5 17.8s15.9 43.4 35.5 53.2c.8.4 211.4 105.7 212.1 106 19.6 9.8 35.5 1.9 35.5-17.8 0-19-14.9-41.9-33.7-52.3zm26.3 66.7c-3 3.2-7.2 4.9-12.2 4.9-4.5 0-9.5-1.4-14.7-3.9-.7-.3-211.3-105.6-212.1-106-18.8-9.4-34-32.2-34-50.9 0-12.1 6.3-19.3 17-19.3 4.5 0 9.5 1.4 14.7 3.9.3.1 193.5 96.7 212.4 106.1l1.4.8c18.1 10 32.3 31.9 32.3 50 0 6.1-1.7 11.1-4.8 14.4z" opacity=".11"/><path d="m452.6 275.6c0 9-3.3 15.5-8.9 19l40.3-20.2c7.8-4 12.9-9.9 12.9-20.9 0-.1 0-.1 0-.2l-44.3 22.3c0-.1 0-.1 0 0z" opacity=".29"/><path d="m200.6 113.1 42.6-21.3 1.8.9-42.6 21.3z" opacity=".5"/><path d="m211.3 118.4 42.6-21.3 1.7.9-42.6 21.3z" opacity=".5"/><path d="m221.9 123.8 42.6-21.3 1.8.8-42.6 21.3z" opacity=".5"/><path d="m232.6 129.1 42.5-21.3 1.8.9-42.6 21.3z" opacity=".5"/><path d="m243.2 134.4 42.6-21.3 1.8.9-42.6 21.3z" opacity=".5"/><path d="m253.9 139.7 42.5-21.3 1.8.9-42.6 21.3z" opacity=".5"/><path d="m264.5 145.1 42.6-21.3 1.8.8-42.6 21.3z" opacity=".5"/><path d="m275.1 150.4 42.6-21.3 1.8.9-42.6 21.3z" opacity=".5"/><path d="m285.8 155.7 42.6-21.3 1.8.9-42.6 21.3z" opacity=".5"/><path d="m296.4 161 42.6-21.3 1.8.9-42.6 21.3z" opacity=".5"/><path d="m307.1 166.4 42.6-21.3 1.8.8-42.6 21.3z" opacity=".5"/><path d="m317.7 171.7 42.6-21.3 1.8.9-42.6 21.3z" opacity=".5"/><path d="m328.4 177 42.6-21.3 1.8.9-42.6 21.3z" opacity=".5"/><path d="m339 182.3 42.6-21.3 1.8.9-42.6 21.3z" opacity=".5"/><path d="m349.7 187.7 42.6-21.3 1.8.8-42.6 21.3z" opacity=".5"/><path d="m360.3 193 42.6-21.3 1.8.9-42.6 21.3z" opacity=".5"/><path d="m371 198.3 42.6-21.3 1.8.9-42.6 21.3z" opacity=".5"/><path d="m381.6 203.6 42.6-21.3 1.8.9-42.6 21.3z" opacity=".5"/><path d="m392.3 208.9 42.6-21.2 1.8.8-42.6 21.3z" opacity=".5"/><path d="m402.9 214.3 42.6-21.3 1.8.9-42.6 21.3z" opacity=".5"/><path d="m413.6 219.6 42.6-21.3 1.8.9-42.6 21.3z" opacity=".5"/><path d="m422.5 225.8 42.6-21.3 1.7.9-42.6 21.3z" opacity=".5"/><path d="m431.3 232 42.6-21.3 1.8.9-42.6 21.3z" opacity=".5"/><path d="m438.4 239.1 42.6-21.3 1.8.9-42.6 21.3z" opacity=".5"/><path d="m445.5 246.2 42.6-21.3v1.8l-42.6 21.3z" opacity=".5"/><path d="m449.1 255.1 42.6-21.3v1.8l-42.6 21.3z" opacity=".5"/><path d="m452.6 264 42.6-21.3v1.7l-42.6 21.3z" opacity=".5"/><path d="m452.6 274.6 42.6-21.3v1.8l-42.6 21.3z" opacity=".5"/><path d="m450.9 286.2 42.6-21.3-1.8 2.6-42.6 21.3z" opacity=".5"/><path d="m284 179-140 70v20l60 30 140-70v-20z" fill="#2d3134"/><path d="m144 269v-20l60 30v20z" opacity=".11"/><path d="m344 229v-20l-140 70v20z" opacity=".29"/><path d="m319.5 342.3c-.7-.3-211.3-105.6-212.1-106-19.6-9.8-35.5-33.6-35.5-53.2 0-8.6 3.1-15 8.1-18.6l-38.8 19.4c-8.4 2.3-13.8 9.8-13.8 21.2 0 19.6 15.9 43.4 35.5 53.2.8.4 211.4 105.7 212.1 106 10.6 5.3 20.1 5.4 26.6 1.3l40-20c-5.9 1.8-13.7.9-22.1-3.3z" fill="#2d3134"/><path d="m94.2 243.4c-1.8-.9-3.5-1-4.8-.5l-9.2 4.7c-1.3.6-2.2 2-2.2 3.9 0 3.8 3.1 8.5 6.9 10.4 1.9.9 3.6 1 4.9.4 0 0 9.2-4.7 9.5-4.8 1.1-.7 1.8-2 1.8-3.8 0-3.7-3.1-8.4-6.9-10.3z" fill="#2d3134"/><path d="m89.9 262.3c.5-.2 9.2-4.6 9.4-4.8 1.1-.7 1.8-2 1.8-3.8 0-1.5-.5-3.2-1.4-4.8l-9.2 4.7c.8 1.6 1.4 3.2 1.4 4.8 0 2-.8 3.3-2 3.9z" opacity=".29"/><path d="m91.9 258.5c0 3.8-3.1 5.4-6.9 3.5s-6.9-6.6-6.9-10.4 3.1-5.4 6.9-3.5 6.9 6.5 6.9 10.4z" opacity=".11"/><path d="m127.7 260.1c-1.8-.9-3.5-1-4.8-.5l-9.2 4.7c-1.3.6-2.2 2-2.2 3.9 0 3.8 3.1 8.5 6.9 10.4 1.9.9 3.6 1 4.9.4 0 0 9.2-4.7 9.5-4.8 1.1-.7 1.8-2 1.8-3.8 0-3.7-3.1-8.4-6.9-10.3z" fill="#2d3134"/><path d="m123.4 279.1c.5-.2 9.2-4.6 9.4-4.8 1.1-.7 1.8-2 1.8-3.8 0-1.5-.5-3.2-1.4-4.8l-9.2 4.7c.8 1.6 1.4 3.2 1.4 4.8 0 1.9-.8 3.2-2 3.9z" opacity=".29"/><path d="m125.4 275.2c0 3.8-3.1 5.4-6.9 3.5s-6.9-6.6-6.9-10.4 3.1-5.4 6.9-3.5 6.9 6.6 6.9 10.4z" opacity=".11"/><path d="m161.2 276.9c-1.8-.9-3.5-1-4.8-.5l-9.2 4.7c-1.3.6-2.2 2-2.2 3.9 0 3.8 3.1 8.5 6.9 10.4 1.9.9 3.6 1 4.9.4 0 0 9.2-4.7 9.5-4.8 1.1-.7 1.8-2 1.8-3.8 0-3.8-3.1-8.4-6.9-10.3z" fill="#2d3134"/><path d="m156.9 295.8c.5-.2 9.2-4.6 9.4-4.8 1.1-.7 1.8-2 1.8-3.8 0-1.5-.5-3.2-1.4-4.8l-9.2 4.7c.8 1.6 1.4 3.2 1.4 4.8 0 2-.8 3.3-2 3.9z" opacity=".29"/><path d="m158.9 292c0 3.8-3.1 5.4-6.9 3.5s-6.9-6.6-6.9-10.4 3.1-5.4 6.9-3.5 6.9 6.5 6.9 10.4z" opacity=".11"/><path d="m194.6 293.6c-1.8-.9-3.5-1-4.8-.5l-9.2 4.7c-1.3.6-2.2 2-2.2 3.9 0 3.8 3.1 8.5 6.9 10.4 1.9.9 3.6 1 4.9.4 0 0 9.2-4.7 9.5-4.8 1.1-.7 1.8-2 1.8-3.8.1-3.7-3-8.4-6.9-10.3z" fill="#2d3134"/><path d="m190.4 312.6c.5-.2 9.2-4.6 9.4-4.8 1.1-.7 1.8-2 1.8-3.8 0-1.5-.5-3.2-1.4-4.8l-9.2 4.7c.8 1.6 1.4 3.2 1.4 4.8 0 1.9-.8 3.2-2 3.9z" opacity=".29"/><path d="m192.4 308.7c0 3.8-3.1 5.4-6.9 3.5s-6.9-6.6-6.9-10.4 3.1-5.4 6.9-3.5c3.7 1.9 6.9 6.6 6.9 10.4z" opacity=".11"/><path d="m228.1 310.4c-1.8-.9-3.5-1-4.8-.5l-9.2 4.7c-1.3.6-2.2 2-2.2 3.9 0 3.8 3.1 8.5 6.9 10.4 1.9.9 3.6 1 4.9.4 0 0 9.2-4.7 9.5-4.8 1.1-.7 1.8-2 1.8-3.8.1-3.8-3-8.4-6.9-10.3z" fill="#2d3134"/><path d="m223.9 329.3c.5-.2 9.2-4.6 9.4-4.8 1.1-.7 1.8-2 1.8-3.8 0-1.5-.5-3.2-1.4-4.8l-9.2 4.7c.8 1.6 1.4 3.2 1.4 4.8-.1 1.9-.8 3.3-2 3.9z" opacity=".29"/><path d="m225.8 325.5c0 3.8-3.1 5.4-6.9 3.5s-6.9-6.6-6.9-10.4 3.1-5.4 6.9-3.5 6.9 6.5 6.9 10.4z" opacity=".11"/><path d="m261.6 327.1c-1.8-.9-3.5-1-4.8-.5l-9.2 4.7c-1.3.6-2.2 2-2.2 3.9 0 3.8 3.1 8.5 6.9 10.4 1.9.9 3.6 1 4.9.4 0 0 9.2-4.7 9.5-4.8 1.1-.7 1.8-2 1.8-3.8.1-3.7-3-8.4-6.9-10.3z" fill="#2d3134"/><path d="m257.3 346.1c.5-.2 9.2-4.6 9.4-4.8 1.1-.7 1.8-2 1.8-3.8 0-1.5-.5-3.2-1.4-4.8l-9.2 4.7c.8 1.6 1.4 3.2 1.4 4.8 0 1.9-.7 3.2-2 3.9z" opacity=".29"/><path d="m259.3 342.2c0 3.8-3.1 5.4-6.9 3.5s-6.9-6.6-6.9-10.4 3.1-5.4 6.9-3.5 6.9 6.6 6.9 10.4z" opacity=".11"/><path d="m79.6 186.8c-5-2.5-9.6-2.8-13-1.3l-25.2 12.8c-3.6 1.6-5.9 5.4-5.9 10.8 0 10.4 8.5 23.2 18.9 28.4 5.2 2.6 9.8 2.8 13.3 1.2 0 0 25.1-12.7 25.9-13.2 3.1-1.8 4.9-5.3 4.9-10.2.1-10.6-8.4-23.3-18.9-28.5z" fill="#2d3134"/><path d="m67.9 238.5c1.3-.7 25-12.7 25.7-13.1 3.1-1.8 4.9-5.3 4.9-10.2 0-4.2-1.4-8.8-3.7-13.1l-25.2 12.8c2.3 4.3 3.7 8.9 3.7 13.1.1 5.1-2 8.8-5.4 10.5z" opacity=".29"/><path d="m73.4 228c0 10.4-8.5 14.7-18.9 9.5s-18.9-17.9-18.9-28.4c0-10.4 8.5-14.7 18.9-9.5s18.9 17.9 18.9 28.4z" opacity=".11"/><path d="m101.2 201.8-26.6 13.4v26.6l193.4 96.7 26.7-13.3v-26.6z" fill="#2d3134"/><path d="m74.6 241.8v-26.6l193.4 96.7v26.6z" opacity=".11"/><path d="m294.7 325.2v-26.6l-26.7 13.3v26.6z" opacity=".29"/><path d="m94.2 199.1c-1.8-.9-3.5-1-4.8-.5l-9.2 4.7c-1.3.6-2.2 2-2.2 3.9 0 3.8 3.1 8.5 6.9 10.4 1.9.9 3.6 1 4.9.4 0 0 9.2-4.7 9.5-4.8 1.1-.7 1.8-2 1.8-3.8 0-3.7-3.1-8.4-6.9-10.3z" fill="#2d3134"/><path d="m89.9 218.1c.5-.2 9.2-4.6 9.4-4.8 1.1-.7 1.8-2 1.8-3.8 0-1.5-.5-3.2-1.4-4.8l-9.2 4.7c.8 1.6 1.4 3.2 1.4 4.8 0 1.9-.8 3.2-2 3.9z" opacity=".29"/><path d="m91.9 214.2c0 3.8-3.1 5.4-6.9 3.5s-6.9-6.6-6.9-10.4 3.1-5.4 6.9-3.5 6.9 6.6 6.9 10.4z" opacity=".11"/><path d="m127.7 215.9c-1.8-.9-3.5-1-4.8-.5l-9.2 4.7c-1.3.6-2.2 2-2.2 3.9 0 3.8 3.1 8.5 6.9 10.4 1.9.9 3.6 1 4.9.4 0 0 9.2-4.7 9.5-4.8 1.1-.7 1.8-2 1.8-3.8 0-3.8-3.1-8.4-6.9-10.3z" fill="#2d3134"/><path d="m123.4 234.8c.5-.2 9.2-4.6 9.4-4.8 1.1-.7 1.8-2 1.8-3.8 0-1.5-.5-3.2-1.4-4.8l-9.2 4.7c.8 1.6 1.4 3.2 1.4 4.8 0 1.9-.8 3.3-2 3.9z" opacity=".29"/><path d="m125.4 231c0 3.8-3.1 5.4-6.9 3.5s-6.9-6.6-6.9-10.4 3.1-5.4 6.9-3.5 6.9 6.5 6.9 10.4z" opacity=".11"/><path d="m161.2 232.6c-1.8-.9-3.5-1-4.8-.5l-9.2 4.7c-1.3.6-2.2 2-2.2 3.9 0 3.8 3.1 8.5 6.9 10.4 1.9.9 3.6 1 4.9.4 0 0 9.2-4.7 9.5-4.8 1.1-.7 1.8-2 1.8-3.8 0-3.7-3.1-8.4-6.9-10.3z" fill="#2d3134"/><path d="m156.9 251.6c.5-.2 9.2-4.6 9.4-4.8 1.1-.7 1.8-2 1.8-3.8 0-1.5-.5-3.2-1.4-4.8l-9.2 4.7c.8 1.6 1.4 3.2 1.4 4.8 0 1.9-.8 3.2-2 3.9z" opacity=".29"/><path d="m158.9 247.7c0 3.8-3.1 5.4-6.9 3.5s-6.9-6.6-6.9-10.4 3.1-5.4 6.9-3.5 6.9 6.6 6.9 10.4z" opacity=".11"/><path d="m194.6 249.4c-1.8-.9-3.5-1-4.8-.5l-9.2 4.7c-1.3.6-2.2 2-2.2 3.9 0 3.8 3.1 8.5 6.9 10.4 1.9.9 3.6 1 4.9.4 0 0 9.2-4.7 9.5-4.8 1.1-.7 1.8-2 1.8-3.8.1-3.8-3-8.4-6.9-10.3z" fill="#2d3134"/><path d="m190.4 268.3c.5-.2 9.2-4.6 9.4-4.8 1.1-.7 1.8-2 1.8-3.8 0-1.5-.5-3.2-1.4-4.8l-9.2 4.7c.8 1.6 1.4 3.2 1.4 4.8 0 1.9-.8 3.3-2 3.9z" opacity=".29"/><path d="m192.4 264.4c0 3.8-3.1 5.4-6.9 3.5s-6.9-6.6-6.9-10.4 3.1-5.4 6.9-3.5c3.7 2 6.9 6.6 6.9 10.4z" opacity=".11"/><path d="m228.1 266.1c-1.8-.9-3.5-1-4.8-.5l-9.2 4.7c-1.3.6-2.2 2-2.2 3.9 0 3.8 3.1 8.5 6.9 10.4 1.9.9 3.6 1 4.9.4 0 0 9.2-4.7 9.5-4.8 1.1-.7 1.8-2 1.8-3.8.1-3.7-3-8.4-6.9-10.3z" fill="#2d3134"/><path d="m223.9 285.1c.5-.2 9.2-4.6 9.4-4.8 1.1-.7 1.8-2 1.8-3.8 0-1.5-.5-3.2-1.4-4.8l-9.2 4.7c.8 1.6 1.4 3.2 1.4 4.8-.1 1.9-.8 3.2-2 3.9z" opacity=".29"/><path d="m225.8 281.2c0 3.8-3.1 5.4-6.9 3.5s-6.9-6.6-6.9-10.4 3.1-5.4 6.9-3.5 6.9 6.6 6.9 10.4z" opacity=".11"/><path d="m261.6 282.9c-1.8-.9-3.5-1-4.8-.5l-9.2 4.7c-1.3.6-2.2 2-2.2 3.9 0 3.8 3.1 8.5 6.9 10.4 1.9.9 3.6 1 4.9.4 0 0 9.2-4.7 9.5-4.8 1.1-.7 1.8-2 1.8-3.8.1-3.8-3-8.4-6.9-10.3z" fill="#2d3134"/><path d="m257.3 301.8c.5-.2 9.2-4.6 9.4-4.8 1.1-.7 1.8-2 1.8-3.8 0-1.5-.5-3.2-1.4-4.8l-9.2 4.7c.8 1.6 1.4 3.2 1.4 4.8 0 1.9-.7 3.3-2 3.9z" opacity=".29"/><path d="m259.3 297.9c0 3.8-3.1 5.4-6.9 3.5s-6.9-6.6-6.9-10.4 3.1-5.4 6.9-3.5c3.8 2 6.9 6.6 6.9 10.4z" opacity=".11"/><path d="m313.9 300.8c-5-2.5-9.6-2.8-13-1.3l-25.2 12.8c-3.6 1.6-5.9 5.4-5.9 10.8 0 10.4 8.5 23.2 18.9 28.4 5.2 2.6 9.8 2.8 13.3 1.2 0 0 25.1-12.7 25.9-13.2 3.1-1.8 4.9-5.3 4.9-10.2 0-10.6-8.4-23.3-18.9-28.5z" fill="#2d3134"/><path d="m302.2 352.5c1.3-.7 25-12.7 25.7-13.1 3.1-1.8 4.9-5.3 4.9-10.2 0-4.2-1.4-8.8-3.7-13.1l-25.1 12.8c2.3 4.3 3.7 8.9 3.7 13.1 0 5.1-2.1 8.8-5.5 10.5z" opacity=".29"/><path d="m307.7 342c0 10.4-8.5 14.7-18.9 9.5s-18.9-17.9-18.9-28.4 8.5-14.7 18.9-9.5 18.9 17.9 18.9 28.4z" opacity=".11"/><path d="m321.3 272.2v-.1s-213.6-106.7-213.9-106.8c-11.2-5.6-20.3-4.6-27.6-.6l-38.5 19.2c6-1.7 13.5-.7 21.7 3.4.3.1 213.9 106.8 213.9 106.8v.1c18.8 10.3 33.7 33.3 33.7 52.3 0 9-3.3 15.5-8.9 19l40.3-20.2c7.8-4 12.9-9.9 12.9-20.9.1-18.9-14.8-41.9-33.6-52.2z" fill="#2d3134"/><path d="m321.3 272.2v-.1s-213.6-106.7-213.9-106.8c-11.2-5.6-20.3-4.6-27.6-.6l-38.5 19.2c6-1.7 13.5-.7 21.7 3.4.3.1 213.9 106.8 213.9 106.8v.1c18.8 10.3 33.7 33.3 33.7 52.3 0 9-3.3 15.5-8.9 19l40.3-20.2c7.8-4 12.9-9.9 12.9-20.9.1-18.9-14.8-41.9-33.6-52.2z" fill="#2d3134"/><path d="m276.9 294.2v-.1s-213.6-106.7-213.9-106.8c-19.6-9.8-35.5-1.9-35.5 17.8s15.9 43.4 35.5 53.2c.8.4 211.4 105.7 212.1 106 19.6 9.8 35.5 1.9 35.5-17.8 0-19-14.9-42-33.7-52.3zm26.3 66.7c-3 3.2-7.2 4.9-12.2 4.9-4.5 0-9.5-1.4-14.7-3.9-.7-.3-211.3-105.6-212.1-106-18.8-9.4-34-32.2-34-50.9 0-12.1 6.3-19.3 17-19.3 4.5 0 9.5 1.4 14.7 3.9.3.1 193.5 96.7 212.4 106.1l1.4.8c18.1 10 32.3 31.9 32.3 50 0 6.1-1.7 11.1-4.8 14.4z" fill="#2d3134"/><path d="m276.9 294.2v-.1s-213.6-106.7-213.9-106.8c-19.6-9.8-35.5-1.9-35.5 17.8s15.9 43.4 35.5 53.2c.8.4 211.4 105.7 212.1 106 19.6 9.8 35.5 1.9 35.5-17.8 0-19-14.9-42-33.7-52.3zm26.3 66.7c-3 3.2-7.2 4.9-12.2 4.9-4.5 0-9.5-1.4-14.7-3.9-.7-.3-211.3-105.6-212.1-106-18.8-9.4-34-32.2-34-50.9 0-12.1 6.3-19.3 17-19.3 4.5 0 9.5 1.4 14.7 3.9.3.1 193.5 96.7 212.4 106.1l1.4.8c18.1 10 32.3 31.9 32.3 50 0 6.1-1.7 11.1-4.8 14.4z" opacity=".11"/><path d="m310.6 346.5c0 9-3.3 15.5-8.9 19l40.3-20.2c7.8-4 12.9-9.9 12.9-20.9 0-.1 0-.1 0-.2z" opacity=".29"/><path d="m58.6 184.1 42.6-21.3 1.8.9-42.6 21.3z" opacity=".5"/><path d="m69.3 189.4 42.6-21.3 1.7.9-42.6 21.3z" opacity=".5"/><path d="m79.9 194.8 42.6-21.3 1.8.8-42.6 21.3z" opacity=".5"/><path d="m90.6 200.1 42.6-21.3 1.7.9-42.6 21.3z" opacity=".5"/><path d="m101.2 205.4 42.6-21.3 1.8.9-42.6 21.3z" opacity=".5"/><path d="m111.9 210.7 42.6-21.3 1.7.9-42.6 21.3z" opacity=".5"/><path d="m122.5 216 42.6-21.2 1.8.8-42.6 21.3z" opacity=".5"/><path d="m133.2 221.4 42.6-21.3 1.7.9-42.6 21.3z" opacity=".5"/><path d="m143.8 226.7 42.6-21.3 1.8.9-42.6 21.3z" opacity=".5"/><path d="m154.5 232 42.6-21.3 1.7.9-42.6 21.3z" opacity=".5"/><path d="m165.1 237.3 42.6-21.3 1.8.9-42.6 21.3z" opacity=".5"/><path d="m175.8 242.7 42.6-21.3 1.7.9-42.6 21.3z" opacity=".5"/><path d="m186.4 248 42.6-21.3 1.8.9-42.6 21.3z" opacity=".5"/><path d="m197.1 253.3 42.6-21.3 1.7.9-42.6 21.3z" opacity=".5"/><path d="m207.7 258.6 42.6-21.3 1.8.9-42.6 21.3z" opacity=".5"/><path d="m218.4 264 42.6-21.3 1.7.9-42.6 21.3z" opacity=".5"/><path d="m229 269.3 42.6-21.3 1.8.9-42.6 21.3z" opacity=".5"/><path d="m239.7 274.6 42.5-21.3 1.8.9-42.6 21.3z" opacity=".5"/><path d="m250.3 279.9 42.6-21.3 1.8.9-42.6 21.3z" opacity=".5"/><path d="m261 285.3 42.5-21.3 1.8.9-42.6 21.3z" opacity=".5"/><path d="m271.6 290.6 42.6-21.3 1.8.9-42.6 21.3z" opacity=".5"/><path d="m280.5 296.8 42.6-21.3 1.7.9-42.6 21.3z" opacity=".5"/><path d="m289.3 303 42.6-21.3 1.8.9-42.6 21.3z" opacity=".5"/><path d="m296.4 310.1 42.6-21.3 1.8.9-42.6 21.3z" opacity=".5"/><path d="m303.5 317.2 42.6-21.3v1.8l-42.6 21.3z" opacity=".5"/><path d="m307.1 326.1 42.6-21.3v1.8l-42.6 21.3z" opacity=".5"/><path d="m310.6 335 42.6-21.3v1.7l-42.6 21.3z" opacity=".5"/><path d="m310.6 345.6 42.6-21.3v1.8l-42.6 21.3z" opacity=".5"/><path d="m308.9 357.1 42.6-21.3-1.8 2.7-42.6 21.3z" opacity=".5"/><path d="m226 58-180 90v10l184 92 180-90v-10z" fill="#f90"/><path d="m46 158v-10l184 92v10z" opacity=".11"/><path d="m410 160v-10l-180 90v10z" opacity=".29"/><path d="m332 84-52 26v30l72 36 52-26-12-36z" fill="#f90"/><path d="m280 140v-30l60 30 12 36z" opacity=".11"/><path d="m404 150-12-36-52 26 12 36z" opacity=".29"/><path d="m222 11-172 86v49l106 53 172-86v-49z" fill="#f90"/><path d="m50 146v-49l106 53v49z" opacity=".11"/><path d="m328 113v-49l-172 86v49z" opacity=".29"/><path d="m214 11-120 60v19l62 31 120-60-12-25z" fill="#2d3134"/><path d="m94 90v-19l50 25 12 25z" opacity=".11"/><path d="m276 61-12-25-120 60 12 25z" opacity=".29"/><path d="m208.2 3.3-4.2 6.7c2.1 1.3 3.3 3.5 3.3 5.9v16.4c0 1.5 1.8 2.6 4 2.6s4-1.2 4-2.6v-16.3c-.1-5.2-2.7-9.9-7.1-12.7z" fill="#2d3134"/><path d="m208.2 3.3-4.2 6.7c2.1 1.3 3.3 3.5 3.3 5.9v16.4c0 1.5 1.8 2.6 4 2.6s4-1.2 4-2.6v-16.3c-.1-5.2-2.7-9.9-7.1-12.7z" opacity=".2"/><path d="m358.7 140c-2.9-2.5-6.3-3.3-7.6-1.8l-32.5 38.6c-1.2 1.5.2 4.7 3.1 7.1 3 2.5 6.3 3.3 7.6 1.8l32.5-38.6c1.2-1.4-.2-4.6-3.1-7.1z" fill="#f90"/><path d="m354.2 145.3c-2.9-2.5-4.3-5.7-3.1-7.1l-32.5 38.6c-1.2 1.5.2 4.7 3.1 7.1 3 2.5 6.3 3.3 7.6 1.8l32.5-38.6c-1.3 1.5-4.7.7-7.6-1.8z" opacity=".2"/><path d="m399.9 90.5c-1.8-1.5-3.8-2-4.5-1.1l-42.2 50.6c-.7.9.1 2.8 1.9 4.3s3.8 2 4.5 1.1l42.1-50.5c.8-1-.1-2.9-1.8-4.4z" fill="#656565"/><path d="m397.2 93.7c-1.8-1.5-2.6-3.4-1.9-4.3l-42.1 50.6c-.7.9.1 2.8 1.9 4.3s3.8 2 4.5 1.1l42.1-50.5c-.7.8-2.7.3-4.5-1.2z" opacity=".2"/><path d="m603.9 147.9-169-89.5c-36.4-18.2-84.2-9.1-112.9 19.7l-64 75.9 52 25.9 4-2 51.7-51.7c17.2-17.2 39-20.3 61.3-10.9l172.9 64.7 4-2z" fill="#f90"/><path d="m599.9 149.9-169-89.5c-36.4-18.2-80.4-11.1-109.1 17.7l-63.8 75.9 52 25.9 51.7-51.7c17.2-17.2 43-22.3 65.3-12.9l172.9 64.7z" opacity=".11"/><path d="m599.9 149.9 4-2v30.1l-4 2z" opacity=".29"/><path d="m444.7 52.3-15.4 7.7-15.3 7.7 30.7 15.3 15.3-7.7v-15.3z" fill="#f90"/><path d="m414 67.7 15.3-7.7 15.4 7.7v15.3z" opacity=".11"/><path d="m460 75.3v-15.3l-15.3 7.7v15.3z" opacity=".29"/><path d="m525.9 94.9c1.2-3.7.6-7.1-1.2-7.7l-70.1-22.5c-1.8-.6-4.3 1.9-5.4 5.6-1.2 3.7-.6 7.1 1.2 7.7l70.1 22.5c1.8.6 4.3-1.9 5.4-5.6z" fill="#f90"/><path d="m519.3 92.8c1.2-3.7 3.6-6.2 5.4-5.6l-70.1-22.5c-1.8-.6-4.3 1.9-5.4 5.6-1.2 3.7-.6 7.1 1.2 7.7l70.1 22.5c-1.8-.6-2.4-4-1.2-7.7z" opacity=".2"/><path d="m587.3 114.3c.7-2.2.4-4.3-.7-4.6l-62.7-19.8c-1.1-.3-2.6 1.1-3.3 3.3s-.4 4.3.7 4.6l62.7 19.8c1.2.4 2.6-1.1 3.3-3.3z" fill="#656565"/><path d="m583.3 113.1c.7-2.2 2.2-3.7 3.3-3.3l-62.7-19.8c-1.1-.3-2.6 1.1-3.3 3.3s-.4 4.3.7 4.6l62.7 19.8c-1-.4-1.4-2.4-.7-4.6z" opacity=".2"/><path d="m602 110-16-8-2 1 20 230 10 5 2-1 10-50v-145z" fill="#f90"/><path d="m614 338 2-1 10-50v-145l-24-32-2 1 24 32v145z" opacity=".29"/><path d="m614 338-10-5-20-230 16 8 24 32v145z" opacity=".11"/><path d="m599 112-16-8-12 6v4l16 8 12-6z" fill="#f90"/><path d="m587 122 12-6v-4l-12 6z" opacity=".29"/><path d="m587 122-16-8v-4l16 8z" opacity=".11"/><path d="m623 150-4-2-12 6v18l4 2 12-6z" fill="#f90"/><path d="m611 174 12-6v-18l-12 6z" opacity=".29"/><path d="m611 174-4-2v-18l4 2z" opacity=".11"/><path d="m623 204-4-2-12 6v84l4 2 12-6z" fill="#f90"/><path d="m611 294 12-6v-84l-12 6z" opacity=".29"/><path d="m611 294-4-2v-84l4 2z" opacity=".11"/><path d="m615 327-10-5-12 6v19l10 5 12-6z" fill="#f90"/><path d="m603 352 12-6v-19l-12 6z" opacity=".29"/><path d="m603 352-10-5v-19l10 5z" opacity=".11"/><path d="m588 117-16-8-2 1 20 230 10 5 2-1 10-50v-145z" fill="#f90"/><path d="m600 345 2-1 10-50v-145l-24-32-2 1 24 32v145z" opacity=".29"/><path d="m600 345-10-5-20-230 16 8 24 32v145z" opacity=".11"/><path d="m623.8 240.7c-2 .1-3.6 1-3.5 2l5.5 95.1c.1 1 1.7 1.7 3.8 1.6 2-.1 3.6-1 3.5-2l-5.5-95.1c-.1-1-1.8-1.7-3.8-1.6z" fill="#656565"/><path d="m624 244.4c-2 .1-3.7-.6-3.8-1.6l5.5 95.1c.1 1 1.7 1.7 3.8 1.6 2-.1 3.6-1 3.5-2l-5.5-95.1c.1 1-1.5 1.9-3.5 2z" opacity=".2"/><path d="m619.5 170c-3.4.2-6 1.7-5.9 3.4l4.2 69.5c.1 1.7 2.9 2.9 6.3 2.7s6-1.7 5.9-3.4l-4.2-69.5c-.1-1.7-2.9-2.9-6.3-2.7z" fill="#f90"/><path d="m619.9 176.1c-3.4.2-6.2-1-6.3-2.7l4.2 69.5c.1 1.7 2.9 2.9 6.3 2.7s6-1.7 5.9-3.4l-4.2-69.5c.1 1.6-2.5 3.2-5.9 3.4z" opacity=".2"/><path d="m626 154-2-1-12 6v18l8 4 12-6z" fill="#f90"/><path d="m620 181 12-6-6-21-12 6z" opacity=".29"/><path d="m620 181-8-4v-18l2 1z" opacity=".11"/><path d="m584 158-169.1-89.6c-36.4-18.2-84.2-9.1-112.9 19.7l-64 75.9 52 25.9 4-2 51.7-51.7c17.2-17.2 39-20.3 61.3-10.9l173 64.7 4-2 6-14.1z" fill="#f90"/><path d="m580 160-169.1-89.6c-36.4-18.2-80.4-11.1-109.1 17.7l-63.8 75.9 52 25.9 51.7-51.7c17.2-17.2 43-22.3 65.3-12.9l173 64.7 6-14.1z" opacity=".11"/><path d="m580 160 4-2 6 16-6 14.1-4 2 6-14.1z" opacity=".29"/><path d="m329.5 153c-2.9-2.5-6.3-3.3-7.6-1.8l-32.5 38.6c-1.2 1.5.2 4.7 3.1 7.1 3 2.5 6.3 3.3 7.6 1.8l32.5-38.6c1.2-1.5-.2-4.6-3.1-7.1z" fill="#f90"/><path d="m325 158.3c-2.9-2.5-4.3-5.7-3.1-7.1l-32.5 38.6c-1.2 1.5.2 4.7 3.1 7.1 3 2.5 6.3 3.3 7.6 1.8l32.5-38.6c-1.2 1.5-4.6.7-7.6-1.8z" opacity=".2"/><path d="m370.7 103.5c-1.8-1.5-3.8-2-4.5-1.1l-42.1 50.6c-.7.9.1 2.8 1.9 4.3s3.8 2 4.5 1.1l42.1-50.5c.7-1-.1-2.9-1.9-4.4z" fill="#656565"/><path d="m368 106.7c-1.8-1.5-2.6-3.4-1.9-4.3l-42 50.6c-.7.9.1 2.8 1.9 4.3s3.8 2 4.5 1.1l42.1-50.5c-.8.8-2.8.3-4.6-1.2z" opacity=".2"/><path d="m375.2 97c-1.5-.7-2.8-.8-3.8-.4l-7.4 3.8c-1.1.5-1.7 1.6-1.7 3.2 0 3.1 2.5 6.8 5.6 8.3 1.5.8 2.9.8 3.9.4 0 0 7.4-3.7 7.6-3.9.9-.5 1.4-1.6 1.4-3 0-3.2-2.5-6.9-5.6-8.4z" fill="#656565"/><path d="m371.8 112.2c.4-.2 7.3-3.7 7.6-3.8.9-.5 1.4-1.6 1.4-3 0-1.2-.4-2.6-1.1-3.8l-7.4 3.8c.7 1.3 1.1 2.6 1.1 3.8 0 1.4-.6 2.4-1.6 3z" opacity=".29"/><path d="m373.4 109.1c0 3.1-2.5 4.3-5.6 2.8s-5.6-5.3-5.6-8.3c0-3.1 2.5-4.3 5.6-2.8s5.6 5.2 5.6 8.3z" opacity=".11"/><path d="m226 65-70 35v99l78 39 70-35v-56l-10-48z" fill="#2d3134"/><path d="m231 226-67-33v-82.4l56 28 11 45.4z" fill="#39c"/><path d="m163 170 29 14v-4l-29-14z" fill="#2d3134"/><path d="m187 120.6v85.4l6 3v-85.4z" fill="#2d3134"/><path d="m206 131.6-42 61.4 13 6 52-30 1-1-10-29.4z" opacity=".1"/><path d="m195 126-31 66.7 23-15.7 33.4-38.3z" fill="#fff" opacity=".1"/><path d="m193 125v27l8 20h27l-8-33.4z" opacity=".15"/><path d="m238 181.6-9.5-45.4 62.6-31.3 8.9 42.5v48.6l-62 31z" fill="#39c"/><path d="m234 182 70-35v56l-70 35z" opacity=".15"/><path d="m156 100v99l78 39v-56l-10-48z" opacity=".11"/><path d="m304 203v-56l-10-48-70 35 10 48v56z" opacity=".29"/><path d="m642 335-6-3-4 2-11 16 6 3 4-2z" fill="#f90"/><path d="m627 353 4-2 11-16-4 2z" opacity=".29"/><path d="m627 353-6-3 11-16 6 3z" opacity=".11"/><path d="m631.4 337.9c-1.8-2-4-2.9-5-2l-17.7 16.1c-1 .9-.3 3.2 1.4 5.2 1.8 2 4 2.9 5 2l17.7-16.1c1.1-.9.4-3.3-1.4-5.2z" fill="#656565"/><path d="m627.9 341.1c-1.8-2-2.4-4.3-1.4-5.2l-17.8 16.1c-1 .9-.3 3.2 1.4 5.2 1.8 2 4 2.9 5 2l17.7-16.1c-.9.8-3.2 0-4.9-2z" opacity=".2"/><path d="m615.1 347.6c1.2 2.3 3.2 3.7 4.4 3.1l21.1-11.3c1.2-.6 1.1-3-.1-5.4-1.2-2.3-3.2-3.7-4.4-3.1l-21.1 11.3c-1.2.6-1.1 3 .1 5.4z" fill="#656565"/><path d="m619.4 345.3c1.2 2.3 1.3 4.8.1 5.4l21.1-11.3c1.2-.6 1.1-3-.1-5.4-1.2-2.3-3.2-3.7-4.4-3.1l-21.1 11.3c1.2-.6 3.1.8 4.4 3.1z" opacity=".2"/><path d="m622 345-6-3-4 2-11 16 6 3 4-2z" fill="#f90"/><path d="m607 363 4-2 11-16-4 2z" opacity=".29"/><path d="m607 363-6-3 11-16 6 3z" opacity=".11"/></svg>