<svg enable-background="new 0 0 560 480" height="480" viewBox="0 0 560 480" width="560" xmlns="http://www.w3.org/2000/svg"><path d="m11 274 141-70 329 165-140 70z" opacity=".3"/><path d="m82 240.3c-7.5-3.7-14.2-4.2-19.2-1.9l-14 7c-5.4 2.4-8.8 7.9-8.8 15.9 0 15.5 12.5 34.3 28 42 7.6 3.8 14.6 4.2 19.6 1.8 0 0 13.9-6.9 15.1-7.6 4.5-2.7 7.3-7.9 7.3-15.2 0-15.5-12.5-34.3-28-42z" fill="#2d3134"/><path d="m87.9 304.9c2-1 13.7-6.8 14.8-7.5 4.5-2.7 7.3-7.9 7.3-15.2 0-6.2-2.1-13-5.5-19.3l-14 7c3.4 6.4 5.5 13.1 5.5 19.3 0 7.8-3.1 13.1-8.1 15.7z" opacity=".29"/><path d="m85.9 284.1c0 9.9-8 13.9-17.9 8.9-9.9-4.9-17.9-17-17.9-26.8s8-13.9 17.9-8.9c9.9 4.9 17.9 16.9 17.9 26.8z" fill="#999"/><path d="m69.5 292.4c-9.9-4.9-17.9-17-17.9-26.8 0-4.9 1.9-8.3 5.1-9.9-4 1.3-6.6 5-6.6 10.6 0 9.9 8 21.9 17.9 26.8 5 2.5 9.6 2.7 12.8 1-3.1.9-7 .4-11.3-1.7z" opacity=".15"/><path d="m76.9 278.2c0 4.1-3.3 5.8-7.5 3.7-4.1-2.1-7.5-7.1-7.5-11.2s3.3-5.8 7.5-3.7 7.5 7.1 7.5 11.2z" fill="#2d3134"/><path d="m76.9 278.2c0 4.1-3.3 5.8-7.5 3.7-4.1-2.1-7.5-7.1-7.5-11.2s3.3-5.8 7.5-3.7 7.5 7.1 7.5 11.2z" opacity=".29"/><path d="m75.5 278.9c0 4.1-3.3 5.8-7.5 3.7-4.1-2.1-7.5-7.1-7.5-11.2s3.3-5.8 7.5-3.7c4.1 2.1 7.5 7.1 7.5 11.2z" fill="#2d3134"/><path d="m96 289.3c0 15.5-12.5 21.7-28 14s-28-26.5-28-42 12.5-21.7 28-14 28 26.5 28 42z" opacity=".11"/><path d="m403 321 36-18-12 20-36 18z" fill="#2d3134"/><path d="m403 321 36-18-12 20-36 18z" opacity=".29"/><path d="m457.4 313.6c-7.5-3.7-14.2-4.2-19.2-1.9l-14 7c-5.4 2.4-8.8 7.9-8.8 15.9 0 15.5 12.5 34.3 28 42 7.6 3.8 14.6 4.2 19.6 1.8 0 0 13.9-6.9 15.1-7.6 4.5-2.7 7.3-7.9 7.3-15.2 0-15.4-12.6-34.2-28-42z" fill="#2d3134"/><path d="m463.3 378.2c2-1 13.7-6.8 14.8-7.5 4.5-2.7 7.3-7.9 7.3-15.2 0-6.2-2.1-13-5.5-19.3l-14 7c3.4 6.4 5.5 13.1 5.5 19.3 0 7.8-3.1 13.2-8.1 15.7z" opacity=".29"/><path d="m461.3 357.4c0 9.9-8 13.9-17.9 8.9-9.9-4.9-17.9-17-17.9-26.8s8-13.9 17.9-8.9c9.8 4.9 17.9 16.9 17.9 26.8z" fill="#999"/><path d="m444.9 365.7c-9.9-4.9-17.9-17-17.9-26.8 0-4.9 1.9-8.3 5.1-9.9-4 1.3-6.6 5-6.6 10.6 0 9.9 8 21.9 17.9 26.8 5 2.5 9.6 2.7 12.8 1-3.1.9-7 .4-11.3-1.7z" opacity=".15"/><path d="m452.3 351.6c0 4.1-3.3 5.8-7.5 3.7-4.1-2.1-7.5-7.1-7.5-11.2s3.3-5.8 7.5-3.7c4.2 2 7.5 7 7.5 11.2z" fill="#2d3134"/><path d="m452.3 351.6c0 4.1-3.3 5.8-7.5 3.7-4.1-2.1-7.5-7.1-7.5-11.2s3.3-5.8 7.5-3.7c4.2 2 7.5 7 7.5 11.2z" opacity=".29"/><path d="m450.8 352.3c0 4.1-3.3 5.8-7.5 3.7-4.1-2.1-7.5-7.1-7.5-11.2s3.3-5.8 7.5-3.7c4.2 2 7.5 7 7.5 11.2z" fill="#2d3134"/><path d="m471.4 362.6c0 15.5-12.5 21.7-28 14s-28-26.5-28-42 12.5-21.7 28-14c15.4 7.8 28 26.6 28 42z" opacity=".11"/><path d="m438 323.1c-7.5-3.7-14.2-4.2-19.2-1.9l-14 7c-5.4 2.4-8.8 7.9-8.8 15.9 0 15.5 12.5 34.3 28 42 7.6 3.8 14.6 4.2 19.6 1.8 0 0 13.9-6.9 15.1-7.6 4.5-2.7 7.3-7.9 7.3-15.2 0-15.5-12.5-34.3-28-42z" fill="#2d3134"/><path d="m443.9 387.7c2-1 13.7-6.8 14.8-7.5 4.5-2.7 7.3-7.9 7.3-15.2 0-6.2-2.1-13-5.5-19.3l-14 7c3.4 6.4 5.5 13.1 5.5 19.3 0 7.7-3.1 13.1-8.1 15.7z" opacity=".29"/><path d="m441.9 366.8c0 9.9-8 13.9-17.9 8.9-9.9-4.9-17.9-17-17.9-26.8s8-13.9 17.9-8.9 17.9 17 17.9 26.8z" fill="#999"/><path d="m425.5 375.2c-9.9-4.9-17.9-17-17.9-26.8 0-4.9 1.9-8.3 5.1-9.9-4 1.3-6.6 5-6.6 10.6 0 9.9 8 21.9 17.9 26.8 5 2.5 9.6 2.7 12.8 1-3.1.9-7 .4-11.3-1.7z" opacity=".15"/><path d="m432.9 361c0 4.1-3.3 5.8-7.5 3.7-4.1-2.1-7.5-7.1-7.5-11.2s3.3-5.8 7.5-3.7 7.5 7.1 7.5 11.2z" fill="#2d3134"/><path d="m432.9 361c0 4.1-3.3 5.8-7.5 3.7-4.1-2.1-7.5-7.1-7.5-11.2s3.3-5.8 7.5-3.7 7.5 7.1 7.5 11.2z" opacity=".29"/><path d="m431.5 361.7c0 4.1-3.3 5.8-7.5 3.7-4.1-2.1-7.5-7.1-7.5-11.2s3.3-5.8 7.5-3.7 7.5 7.1 7.5 11.2z" fill="#2d3134"/><path d="m452 372.1c0 15.5-12.5 21.7-28 14s-28-26.5-28-42 12.5-21.7 28-14 28 26.5 28 42z" opacity=".11"/><path d="m403 321 36-18 36 18-36 18z" fill="#2d3134"/><path d="m453 364 36-18-14-25-36 18z" fill="#2d3134"/><path d="m453 364 36-18-14-25-36 18z" opacity=".29"/><path d="m167 258-36 18v31l62 31 36-18v-31z" fill="#2d3134"/><path d="m131 276v31l62 31v-31z" opacity=".11"/><path d="m229 289v31l-36 18v-31z" opacity=".29"/><path d="m220 301-20 10v27l44 22 20-10v-27z" fill="#999"/><path d="m234 308-4-2-20 10v27l4 2v-27z" fill="#2d3134"/><path d="m254 318-4-2-20 10v27l4 2v-27z" fill="#2d3134"/><path d="m264 323v27l-20 10v-27z" opacity=".29"/><path d="m200 311v27l44 22v-27z" opacity=".11"/><path d="m248 338.6 36-18-12 20-36 18z" fill="#2d3134"/><path d="m248 338.6 36-18-12 20-36 18z" opacity=".29"/><path d="m302.4 331.2c-7.5-3.7-14.2-4.2-19.2-1.9l-14 7c-5.4 2.4-8.8 7.9-8.8 15.9 0 15.5 12.5 34.3 28 42 7.6 3.8 14.6 4.2 19.6 1.8 0 0 13.9-6.9 15.1-7.6 4.5-2.7 7.3-7.9 7.3-15.2 0-15.4-12.6-34.2-28-42z" fill="#2d3134"/><path d="m308.3 395.8c2-1 13.7-6.8 14.8-7.5 4.5-2.7 7.3-7.9 7.3-15.2 0-6.2-2.1-13-5.5-19.3l-14 7c3.4 6.4 5.5 13.1 5.5 19.3 0 7.8-3.1 13.2-8.1 15.7z" opacity=".29"/><path d="m306.3 375c0 9.9-8 13.9-17.9 8.9-9.9-4.9-17.9-17-17.9-26.8s8-13.9 17.9-8.9c9.8 4.9 17.9 16.9 17.9 26.8z" fill="#999"/><path d="m289.9 383.3c-9.9-4.9-17.9-17-17.9-26.8 0-4.9 1.9-8.3 5.1-9.9-4 1.3-6.6 5-6.6 10.6 0 9.9 8 21.9 17.9 26.8 5 2.5 9.6 2.7 12.8 1-3.1.9-7 .4-11.3-1.7z" opacity=".15"/><path d="m297.3 369.1c0 4.1-3.3 5.8-7.5 3.7-4.1-2.1-7.5-7.1-7.5-11.2s3.3-5.8 7.5-3.7 7.5 7.1 7.5 11.2z" fill="#2d3134"/><path d="m297.3 369.1c0 4.1-3.3 5.8-7.5 3.7-4.1-2.1-7.5-7.1-7.5-11.2s3.3-5.8 7.5-3.7 7.5 7.1 7.5 11.2z" opacity=".29"/><path d="m295.8 369.8c0 4.1-3.3 5.8-7.5 3.7-4.1-2.1-7.5-7.1-7.5-11.2s3.3-5.8 7.5-3.7 7.5 7.1 7.5 11.2z" fill="#2d3134"/><path d="m316.4 380.2c0 15.5-12.5 21.7-28 14s-28-26.5-28-42 12.5-21.7 28-14c15.4 7.8 28 26.6 28 42z" opacity=".11"/><path d="m283 340.7c-7.5-3.7-14.2-4.2-19.2-1.9l-14 7c-5.4 2.4-8.8 7.9-8.8 15.9 0 15.5 12.5 34.3 28 42 7.6 3.8 14.6 4.2 19.6 1.8 0 0 13.9-6.9 15.1-7.6 4.5-2.7 7.3-7.9 7.3-15.2 0-15.5-12.5-34.3-28-42z" fill="#2d3134"/><path d="m288.9 405.3c2-1 13.7-6.8 14.8-7.5 4.5-2.7 7.3-7.9 7.3-15.2 0-6.2-2.1-13-5.5-19.3l-14 7c3.4 6.4 5.5 13.1 5.5 19.3 0 7.7-3.1 13.1-8.1 15.7z" opacity=".29"/><path d="m286.9 384.4c0 9.9-8 13.9-17.9 8.9-9.9-4.9-17.9-17-17.9-26.8s8-13.9 17.9-8.9 17.9 17 17.9 26.8z" fill="#999"/><path d="m270.5 392.8c-9.9-4.9-17.9-17-17.9-26.8 0-4.9 1.9-8.3 5.1-9.9-4 1.3-6.6 5-6.6 10.6 0 9.9 8 21.9 17.9 26.8 5 2.5 9.6 2.7 12.8 1-3.1.9-7 .4-11.3-1.7z" opacity=".15"/><path d="m277.9 378.6c0 4.1-3.3 5.8-7.5 3.7-4.1-2.1-7.5-7.1-7.5-11.2s3.3-5.8 7.5-3.7 7.5 7.1 7.5 11.2z" fill="#2d3134"/><path d="m277.9 378.6c0 4.1-3.3 5.8-7.5 3.7-4.1-2.1-7.5-7.1-7.5-11.2s3.3-5.8 7.5-3.7 7.5 7.1 7.5 11.2z" opacity=".29"/><path d="m276.5 379.3c0 4.1-3.3 5.8-7.5 3.7s-7.5-7.1-7.5-11.2 3.3-5.8 7.5-3.7c4.1 2.1 7.5 7.1 7.5 11.2z" fill="#2d3134"/><path d="m297 389.7c0 15.5-12.5 21.7-28 14s-28-26.5-28-42 12.5-21.7 28-14 28 26.5 28 42z" opacity=".11"/><path d="m248 338.6 36-18 36 18-36 18z" fill="#2d3134"/><path d="m298 381.6 36-18-14-25-36 18z" fill="#2d3134"/><path d="m298 381.6 36-18-14-25-36 18z" opacity=".29"/><path d="m306 368.6 36-18-12 20-36 18z" fill="#2d3134"/><path d="m306 368.6 36-18-12 20-36 18z" opacity=".29"/><path d="m360.4 361.2c-7.5-3.7-14.2-4.2-19.2-1.9l-14 7c-5.4 2.4-8.8 7.9-8.8 15.9 0 15.5 12.5 34.3 28 42 7.6 3.8 14.6 4.2 19.6 1.8 0 0 13.9-6.9 15.1-7.6 4.5-2.7 7.3-7.9 7.3-15.2 0-15.4-12.6-34.2-28-42z" fill="#2d3134"/><path d="m366.3 425.8c2-1 13.7-6.8 14.8-7.5 4.5-2.7 7.3-7.9 7.3-15.2 0-6.2-2.1-13-5.5-19.3l-14 7c3.4 6.4 5.5 13.1 5.5 19.3 0 7.8-3.1 13.2-8.1 15.7z" opacity=".29"/><path d="m364.3 405c0 9.9-8 13.9-17.9 8.9-9.9-4.9-17.9-17-17.9-26.8s8-13.9 17.9-8.9c9.8 4.9 17.9 16.9 17.9 26.8z" fill="#999"/><path d="m347.9 413.3c-9.9-4.9-17.9-17-17.9-26.8 0-4.9 1.9-8.3 5.1-9.9-4 1.3-6.6 5-6.6 10.6 0 9.9 8 21.9 17.9 26.8 5 2.5 9.6 2.7 12.8 1-3.1.9-7 .4-11.3-1.7z" opacity=".15"/><path d="m355.3 399.1c0 4.1-3.3 5.8-7.5 3.7-4.1-2.1-7.5-7.1-7.5-11.2s3.3-5.8 7.5-3.7 7.5 7.1 7.5 11.2z" fill="#2d3134"/><path d="m355.3 399.1c0 4.1-3.3 5.8-7.5 3.7-4.1-2.1-7.5-7.1-7.5-11.2s3.3-5.8 7.5-3.7 7.5 7.1 7.5 11.2z" opacity=".29"/><path d="m353.8 399.8c0 4.1-3.3 5.8-7.5 3.7-4.1-2.1-7.5-7.1-7.5-11.2s3.3-5.8 7.5-3.7 7.5 7.1 7.5 11.2z" fill="#2d3134"/><path d="m374.4 410.2c0 15.5-12.5 21.7-28 14s-28-26.5-28-42 12.5-21.7 28-14c15.4 7.8 28 26.6 28 42z" opacity=".11"/><path d="m341 370.7c-7.5-3.7-14.2-4.2-19.2-1.9l-14 7c-5.4 2.4-8.8 7.9-8.8 15.9 0 15.5 12.5 34.3 28 42 7.6 3.8 14.6 4.2 19.6 1.8 0 0 13.9-6.9 15.1-7.6 4.5-2.7 7.3-7.9 7.3-15.2 0-15.5-12.5-34.3-28-42z" fill="#2d3134"/><path d="m346.9 435.3c2-1 13.7-6.8 14.8-7.5 4.5-2.7 7.3-7.9 7.3-15.2 0-6.2-2.1-13-5.5-19.3l-14 7c3.4 6.4 5.5 13.1 5.5 19.3 0 7.7-3.1 13.1-8.1 15.7z" opacity=".29"/><path d="m344.9 414.4c0 9.9-8 13.9-17.9 8.9-9.9-4.9-17.9-17-17.9-26.8s8-13.9 17.9-8.9 17.9 17 17.9 26.8z" fill="#999"/><path d="m328.5 422.8c-9.9-4.9-17.9-17-17.9-26.8 0-4.9 1.9-8.3 5.1-9.9-4 1.3-6.6 5-6.6 10.6 0 9.9 8 21.9 17.9 26.8 5 2.5 9.6 2.7 12.8 1-3.1.9-7 .4-11.3-1.7z" opacity=".15"/><path d="m335.9 408.6c0 4.1-3.3 5.8-7.5 3.7-4.1-2.1-7.5-7.1-7.5-11.2s3.3-5.8 7.5-3.7 7.5 7.1 7.5 11.2z" fill="#2d3134"/><path d="m335.9 408.6c0 4.1-3.3 5.8-7.5 3.7-4.1-2.1-7.5-7.1-7.5-11.2s3.3-5.8 7.5-3.7 7.5 7.1 7.5 11.2z" opacity=".29"/><path d="m334.5 409.3c0 4.1-3.3 5.8-7.5 3.7s-7.5-7.1-7.5-11.2 3.3-5.8 7.5-3.7c4.1 2.1 7.5 7.1 7.5 11.2z" fill="#2d3134"/><path d="m355 419.7c0 15.5-12.5 21.7-28 14s-28-26.5-28-42 12.5-21.7 28-14 28 26.5 28 42z" opacity=".11"/><path d="m306 368.6 36-18 36 18-36 18z" fill="#2d3134"/><path d="m356 411.6 36-18-14-25-36 18z" fill="#2d3134"/><path d="m356 411.6 36-18-14-25-36 18z" opacity=".29"/><path d="m150.8 134.1-139.8 69.9v50l28.9 14.4v-2.9c.5-9.6 4.7-19.4 12.5-21.2 7.5-1.7 15 2.2 23.6 6.6 2.6 1.3 29 15 29 15l140-70v-15z" fill="#f90"/><path d="m167 39-140 70-6.5 17.4c-6.3 16.6-9.5 36.9-9.5 60.6v15l94 47 140-70v-101z" fill="#f90"/><path d="m105 266 140-70v-15l-140 70z" opacity=".29"/><path d="m105 249 140-70v-101l-140 70z" opacity=".29"/><path d="m82.7 182.7c-.1 0-.2 0-.3-.1l-35-17.6c-1.2-.6-2.2-.9-3.2-.9-2.6 0-4.1 2-4.1 5.4 0 1.7-.5 2.5-1.5 2.5-.5 0-1.1-.2-1.7-.5l-14.4-7.1c-2-1-4.3-5.2-4-6.8 1.5-9.5 3.8-18.2 6.8-25.9l4.6-12.1c.4-1.1 1.1-1.6 2.2-1.6.8 0 1.7.3 2.7.8l43.9 22c1.8.9 4 4.6 4 6.5v35.1c.1.2 0 .3 0 .3z" fill="#656565"/><path d="m32.1 119c.4 0 1.2.1 2.3.7l43.9 22c1.4.7 3.5 4 3.5 5.6v33.8l-33.9-17c-1.3-.6-2.5-1-3.6-1-1.6 0-3 .7-3.9 2-.8 1.1-1.2 2.6-1.2 4.4 0 1-.3 1.4-.3 1.5 0 0 0 0-.2 0s-.6-.1-1.3-.4l-14.4-7.1c-1.7-.9-3.7-4.6-3.5-5.8 1.5-9.4 3.8-18 6.7-25.7l4.6-12.1c.3-.7.7-.9 1.3-.9m0-2c-1.5 0-2.6.8-3.1 2.2l-4.6 12.1c-3 7.8-5.3 16.6-6.8 26.1-.4 2.2 2.3 6.7 4.6 7.9l14.4 7.1c.8.4 1.6.6 2.2.6 1.6 0 2.5-1.2 2.5-3.5 0-2.8 1.1-4.4 3.1-4.4.8 0 1.7.3 2.7.8l35 17.6c.3.2.6.2.8.2.6 0 .9-.5.9-1.3v-35.1c0-2.4-2.5-6.4-4.6-7.4l-43.9-22c-1.2-.6-2.3-.9-3.2-.9z" fill="#2d3134"/><path d="m105 251v15s-26.4-13.7-29-15c-8.6-4.5-16.1-8.3-23.6-6.6-8.6 2-12.8 13.7-12.5 24.1l-28.9-14.5v-50z" opacity=".11"/><path d="m84 193.5v5l-10-5v-5z" fill="#2d3134" opacity=".3"/><path d="m74 196 10 5v-2.5l-10-5z" fill="#fff" opacity=".3"/><path d="m27 262-2-1v-50l2 1z" fill="#2d3134" opacity=".3"/><path d="m29 263-2-1v-50l2 1z" fill="#fff" opacity=".3"/><path d="m25.3 168.2c-1.1 0-2.2-.3-3.1-.9-1.8-1.1-2.8-3-2.8-5.1v-32.2c0-2.3 1.3-4.3 3.3-5.3l3.7-1.8.4.9-3.7 1.8c-1.7.8-2.7 2.5-2.7 4.4v32.3c0 1.7.9 3.3 2.4 4.2s3.3 1 4.8.2l.6-.3.4.9-.6.3c-.8.4-1.7.6-2.7.6z" fill="#2d3134"/><path d="m19.6 129.1.7-.3c2.4-.8 4.9 1 4.9 3.5v21.4c0 3.1-1.9 6-4.9 7.1l-.9.3c-2.4.9-5.1-.9-5.1-3.5v-21.5c.2-3 2.2-5.9 5.3-7z" fill="#2d3134"/><path d="m27 109 78 39v101l-94-47v-15c0-23.7 3.2-44.1 9.5-60.6z" opacity=".11"/><path d="m243 183-136 68v10l270 135 136-68v-10z" fill="#2d3134"/><path d="m107 261v-10l270 135v10z" opacity=".11"/><path d="m513 328v-10l-136 68v10z" opacity=".29"/><path d="m125 245.4 93.7-46.4 199.3 131-44 22-147-52z" opacity=".3"/><path d="m336.8 156.9c-4.4-21.2-16.3-33.9-31.9-37.4l-17.6-.6-59.9 7.3c-8.6 1.1-18 5.2-27.4 12.6-28.5 22.5-46.3 66.5-39.8 98.3 2.3 11.4 7.5 19.6 14.5 24.5h-.1l46.5 31.3 13.5 5.8c14.7 3.7 32.8-1.1 51-15.4 36.7-28.9 59.6-85.4 51.2-126.4z" fill="#e5e5e5"/><path d="m253.7 134.9c17.7-13.9 35.4-18.8 49.9-15.6l116.3 31.2c15.6 3.4 27.5 16.2 31.9 37.4 8.4 40.9-14.5 97.5-51.2 126.4-18.2 14.3-36.3 19.1-51 15.4 0 0-116.1-31-119.5-32.2-13.4-4.7-23.6-17-27.5-36.1-8.5-41 14.4-97.6 51.1-126.5z" fill="#e5e5e5"/><path d="m202.5 261.3c-8.4-40.9 14.5-97.5 51.2-126.4 11.6-9.1 23.1-14.3 33.7-16l-59.9 7.3c-8.6 1.1-18 5.2-27.4 12.6-28.5 22.5-46.3 66.5-39.8 98.3 2.3 11.4 7.5 19.6 14.5 24.5h-.1l46.5 31.3.3.1c-9.2-6.2-16-16.9-19-31.7z" opacity=".1"/><path d="m318.9 293c-.5-2.6-1-5.3-1.2-8.1-.7-6.1-.7-12.6-.2-19.1l-116.3-31.1c-.7 9.3-.3 18.3 1.4 26.6 4 19.2 14.1 31.4 27.5 36.1 3 1 90.3 24.4 113.8 30.7-12.2-5.3-21.3-17.2-25-35.1z" opacity=".1"/><path d="m318.8 292.5c8.4 40.9 45 50.7 81.7 21.8s59.6-85.5 51.2-126.4-45-50.7-81.7-21.8-59.6 85.5-51.2 126.4z" opacity=".29"/><path d="m499 223.9c-1.7-8.1-5.4-13.8-10.3-17.2l-57.2-51.7-.1.1c-16-10-38.7-6.9-61.4 11-34.5 27.2-56.8 78.8-52.3 118.8.3 2.7.7 5.4 1.2 8.1 4 19.2 14.1 31.4 27.5 36.1.2.1.6 0 1.2 0 7.8 2.4 16.7 2.4 26.1-.4l75-27.2s14.8-3.2 22.6-9.3c19.9-15.6 32.2-46.2 27.7-68.3z" fill="#e5e5e5"/><path d="m427.2 280.4c4.6 22.1 24.3 27.4 44.1 11.7 19.8-15.6 32.2-46.2 27.6-68.3s-24.3-27.4-44.1-11.7c-19.7 15.7-32.1 46.2-27.6 68.3z" opacity=".29"/><path d="m427.2 280.4c-4.6-22.1 7.8-52.7 27.6-68.3 12.5-9.8 24.9-11.4 33.6-5.7l-57-51.5-.1.1c-16-10-38.7-6.9-61.4 11-34.5 27.2-56.8 78.8-52.3 118.8.3 2.7.7 5.4 1.2 8.1 4 19.2 14.1 31.4 27.5 36.1.2.1.6 0 1.2 0 7.8 2.4 16.7 2.4 26.1-.4l75-27.2s.6-.1 1.7-.4c-11.1.7-20.2-6.5-23.1-20.6z" opacity=".1"/><path d="m200.8 234.8-41.6-18.2c-.6 7.2-.3 14.2 1.1 20.6 2.3 11.4 7.5 19.6 14.5 24.5h-.1l46.5 31.3.3.1c-9.1-6.3-15.9-16.9-18.9-31.7-1.7-8.2-2.1-17-1.4-26z" opacity=".1"/><path d="m427.2 280.4c-.9-4.5-1.1-9.3-.8-14.2l-109.1.1c-.5 6.4-.4 12.7.2 18.7.3 2.7.7 5.4 1.2 8.1 4 19.2 14.1 31.4 27.5 36.1.2.1.6 0 1.2 0 7.8 2.4 16.7 2.4 26.1-.4l75-27.2s.6-.1 1.7-.4c-11 .5-20.1-6.7-23-20.8z" opacity=".1"/><path d="m369 166.3-116.8-30-53.2 3.4c-5.7 4.7-11 10.2-15.8 16.3l44.7 6.2 117.5 29 96.3 34.8.1-.2c2.9-4 6.2-7.7 9.7-10.9z" fill="#fff" opacity=".3"/><path d="m464 264-42 21v62l12 6 42-21v-62z" fill="#e5e5e5"/><path d="m422 285v62l12 6v-62z" opacity=".11"/><path d="m476 270v62l-42 21v-62z" opacity=".29"/><path d="m404 312-18 45v4l4 2 18-45v-4z" fill="#999"/><path d="m386 357v4l4 2v-4z" opacity=".11"/><path d="m408 314v4l-18 45v-4z" opacity=".29"/><path d="m476 241-40 20-10-5v-10l40-20 10 5z" fill="#999"/><path d="m476 241-40 20v-10l40-20z" opacity=".29"/><path d="m404 316-10 5v4l20 10 10-5v-4z" fill="#999"/><path d="m394 321v4l20 10v-4z" opacity=".11"/><path d="m424 326v4l-10 5v-4z" opacity=".29"/><path d="m398 331-10 5v4l20 10 10-5v-4z" fill="#999"/><path d="m388 336v4l20 10v-4z" opacity=".11"/><path d="m418 341v4l-10 5v-4z" opacity=".29"/><path d="m392 346-10 5v4l20 10 10-5v-4z" fill="#999"/><path d="m382 351v4l20 10v-4z" opacity=".11"/><path d="m412 356v4l-10 5v-4z" opacity=".29"/><path d="m472 271-20 10v16.4c0 8.7-3.5 17.1-9.6 23.2l-40.4 40.4v20c0 8.2 5 13.1 13.2 17.2s14.8-2.5 14.8-3.2l58-58 2.4-2.4c6.2-6.2 9.6-14.5 9.6-23.2v-26.4z" fill="#999"/><path d="m500 285v26.4c0 8.7-3.5 17.1-9.6 23.2l-60.4 60.4v-20l40.4-40.4c6.2-6.2 9.6-14.5 9.6-23.2v-16.4z" opacity=".29"/><path d="m472 271v26.4c0 8.7-3.5 17.1-9.6 23.2l-60.4 60.4v-20l40.4-40.4c6.2-6.2 9.6-14.5 9.6-23.2v-16.4z" opacity=".29"/><path d="m514 283-24 12-6-3 6-27-4-2v-47l6-3 28 14 6 3z" fill="#999"/><path d="m514 283-24 12 12-53 24-12z" opacity=".29"/><path d="m490 265-4-2v-47l28 14-18 9z" opacity=".11"/><path d="m490 295-6-3 12-53 6 3z" opacity=".11"/><path d="m559 197.8c0-10.7-10-20.2-25.6-26.4-2-.8-4.2-.7-6.1.3l-86.8 43.4c-.8.4-1.3 1.2-1.3 2h-.2v70.9h.4c3.1 1.9 7.7 3 12.9 3 7.2 0 13.4-2.3 15.8-5.5l80.1-69.5c6.9-5.2 10.8-11.5 10.8-18.2z" fill="#999"/><path d="m491.9 231.4c-20.7 0-39.3-4.7-51.6-12.1-.8-.5-1.2-1.3-1.1-2.2h-.2v70.9h.4c3.1 1.9 7.7 3 12.9 3 7.2 0 13.4-2.3 15.8-5.5l80.1-69.5c-11.9 9.3-32.7 15.4-56.3 15.4z" opacity=".2"/><path d="m554.8 197.8c0-8.4-8.6-16.8-23-22.5-.3-.1-.7-.2-1.1-.2l-35.1 52c32.5-.9 59.2-14 59.2-29.3z" opacity=".11"/><path d="m530.7 175.1c-.5 0-1.1.1-1.5.4l-83.7 41.9c12 6.3 28.7 9.8 46.5 9.8 1.3 0 2.5 0 3.8-.1z" opacity=".29"/><path d="m490 295-24 12-34-17-12-41 6-3 28 14 18-9 6 3z" fill="#999"/><path d="m490 295-24 12-12-41 24-12z" opacity=".29"/><path d="m466 307-34-17-12-41 34 17z" opacity=".11"/><path d="m432 290-32 16v4l34 17 32-16v-4z" fill="#999"/><path d="m400 306v4l34 17v-4z" opacity=".11"/><path d="m466 307v4l-32 16v-4z" opacity=".29"/><path d="m518 271-84 42v14l2 1 84-42v-14z" fill="#999"/><path d="m434 313v14l2 1v-14z" opacity=".11"/><path d="m520 272v14l-84 42v-14z" opacity=".29"/><path d="m135 222.1c4.2-2.1 7.9-2.3 10.7-1.1l39.3 19.6c3 1.3 4.9 4.4 4.9 8.9 0 8.6-7 19.1-15.6 23.4-4.3 2.1-8.1 2.3-10.9 1 0 0-39.3-19.5-40-19.9-2.5-1.5-4.1-4.4-4.1-8.4.1-8.7 7.1-19.2 15.7-23.5z" fill="#999"/><path d="m132.8 258.6c-2.5-1.5-4.1-4.4-4.1-8.4 0-8.6 7-19.1 15.6-23.4 4.2-2.1 7.9-2.3 10.7-1.1l-2.3-1.2c-2.8-1.3-6.6-1-10.7 1.1-8.6 4.3-15.6 14.8-15.6 23.4 0 4 1.5 6.9 4.1 8.4.1.1 2.4 1.2 2.3 1.2z" fill="#2d3134"/><path d="m155.8 270c-2.5-1.5-4.1-4.4-4.1-8.4 0-8.6 7-19.1 15.6-23.4 4.2-2.1 7.9-2.3 10.7-1.1l-2.3-1.2c-2.8-1.3-6.6-1-10.7 1.1-8.6 4.3-15.6 14.8-15.6 23.4 0 4 1.5 6.9 4.1 8.4.2.1 2.5 1.3 2.3 1.2z" fill="#2d3134"/><path d="m163.2 273.7c-1.1-.6-39.2-19.5-39.8-19.8-2.5-1.5-4.1-4.4-4.1-8.4 0-3.5 1.1-7.2 3-10.8l39.3 19.6c-1.9 3.5-3 7.3-3 10.8.1 4.2 1.8 7.2 4.6 8.6z" opacity=".11"/><path d="m158.7 265.1c0 8.6 7 12.1 15.6 7.8s15.6-14.8 15.6-23.4-7-12.1-15.6-7.8-15.6 14.7-15.6 23.4z" opacity=".29"/></svg>