<svg enable-background="new 0 0 560 560" height="560" viewBox="0 0 560 560" width="560" xmlns="http://www.w3.org/2000/svg"><path d="m137 144-84 42v14l2 1 84-42v-14z" fill="#999"/><path d="m53 186v14l2 1v-14z" opacity=".11"/><path d="m139 145v14l-84 42v-14z" opacity=".29"/><path d="m99 157-20 10v16.4c0 8.7-3.5 17.1-9.6 23.2l-40.4 40.4v20c0 8.2 5 13.1 13.2 17.2s14.8-2.4 14.8-3.2l58-58 2.4-2.4c6.2-6.2 9.6-14.5 9.6-23.2v-26.4z" fill="#999"/><path d="m127 171v26.4c0 8.7-3.5 17.1-9.6 23.2l-60.4 60.4v-20l40.4-40.4c6.2-6.2 9.6-14.5 9.6-23.2v-16.4z" opacity=".29"/><path d="m99 157v26.4c0 8.7-3.5 17.1-9.6 23.2l-60.4 60.4v-20l40.4-40.4c6.2-6.2 9.6-14.5 9.6-23.2v-16.4z" opacity=".29"/><path d="m125 135-40 20-4-2v-16l40-20 4 2z" fill="#999"/><path d="m125 135-40 20v-16l40-20z" opacity=".29"/><path d="m174 84.8v-.6h-.1c-.1-.4-.4-.7-.8-.8-11-4.9-25.5-7.8-41.4-7.8-34.6 0-62.7 14.1-62.7 31.4 0 6.7 4.2 12.9 11.3 18l28.6 38.2c1.5 2.7 4.2 5.1 7.6 7.2 1.5.9 3.3.9 4.9.2l52-26c.3-.1.5-.4.5-.6v-.2-59z" fill="#999"/><path d="m87.5 124.2c-.7 0-1.4-.2-2-.6-8.1-4.9-12.5-10.8-12.5-16.7 0-14.9 26.9-27.4 58.8-27.4 12.6 0 24.8 2 35 5.6l-77.3 38.6c-.7.3-1.3.5-2 .5z" opacity=".29"/><g opacity=".2"><path d="m174 84.8v-.6h-.1c0 .2.1.4.1.6z"/><path d="m173.1 86.2-82 41c-2.4 1.2-5.4 1.2-7.7-.3-1.1-.7-2.1-1.3-3.1-2l28.6 38.2c1.5 2.7 4.2 5.1 7.6 7.2 1.5.9 3.3.9 4.9.2l52-26c.3-.1.5-.4.5-.6v-.2-58.9c.1.6-.2 1.2-.8 1.4z"/></g><path d="m145 186-24 12-34-17-12-41 6-3 28 14 18-9 6 3z" fill="#999"/><path d="m145 186-24 12-12-41 24-12z" opacity=".29"/><path d="m121 198-34-17-12-41 34 17z" opacity=".11"/><path d="m48 332 141-70 339 170-140 70z" opacity=".3"/><path d="m59 283 36-18-12 20-36 18z" fill="#2d3134"/><path d="m59 283 36-18-12 20-36 18z" opacity=".29"/><path d="m113.4 275.6c-7.5-3.7-14.2-4.2-19.2-1.9l-14 7c-5.4 2.4-8.8 7.9-8.8 15.9 0 15.5 12.5 34.3 28 42 7.6 3.8 14.6 4.2 19.6 1.8 0 0 13.9-6.9 15.1-7.6 4.5-2.7 7.3-7.9 7.3-15.2 0-15.4-12.6-34.2-28-42z" fill="#2d3134"/><path d="m119.3 340.2c2-1 13.7-6.8 14.8-7.5 4.5-2.7 7.3-7.9 7.3-15.2 0-6.2-2.1-13-5.5-19.3l-14 7c3.4 6.4 5.5 13.1 5.5 19.3 0 7.8-3.1 13.2-8.1 15.7z" opacity=".29"/><path d="m117.3 319.4c0 9.9-8 13.9-17.9 8.9-9.9-4.9-17.9-17-17.9-26.8s8-13.9 17.9-8.9 17.9 16.9 17.9 26.8z" fill="#999"/><path d="m100.9 327.7c-9.9-4.9-17.9-17-17.9-26.8 0-4.9 1.9-8.3 5.1-9.9-4 1.3-6.6 5-6.6 10.6 0 9.9 8 21.9 17.9 26.8 5 2.5 9.6 2.7 12.8 1-3.1.9-7 .4-11.3-1.7z" opacity=".15"/><path d="m108.3 313.6c0 4.1-3.3 5.8-7.5 3.7-4.1-2.1-7.5-7.1-7.5-11.2s3.3-5.8 7.5-3.7c4.2 2 7.5 7 7.5 11.2z" fill="#2d3134"/><path d="m108.3 313.6c0 4.1-3.3 5.8-7.5 3.7-4.1-2.1-7.5-7.1-7.5-11.2s3.3-5.8 7.5-3.7c4.2 2 7.5 7 7.5 11.2z" opacity=".29"/><path d="m106.8 314.3c0 4.1-3.3 5.8-7.5 3.7-4.1-2.1-7.5-7.1-7.5-11.2s3.3-5.8 7.5-3.7c4.2 2 7.5 7 7.5 11.2z" fill="#2d3134"/><path d="m127.4 324.6c0 15.5-12.5 21.7-28 14s-28-26.5-28-42 12.5-21.7 28-14c15.4 7.8 28 26.6 28 42z" opacity=".11"/><path d="m94 285.1c-7.5-3.7-14.2-4.2-19.2-1.9l-14 7c-5.4 2.4-8.8 7.9-8.8 15.9 0 15.5 12.5 34.3 28 42 7.6 3.8 14.6 4.2 19.6 1.8 0 0 13.9-6.9 15.1-7.6 4.5-2.7 7.3-7.9 7.3-15.2 0-15.5-12.5-34.3-28-42z" fill="#2d3134"/><path d="m99.9 349.7c2-1 13.7-6.8 14.8-7.5 4.5-2.7 7.3-7.9 7.3-15.2 0-6.2-2.1-13-5.5-19.3l-14 7c3.4 6.4 5.5 13.1 5.5 19.3 0 7.7-3.1 13.1-8.1 15.7z" opacity=".29"/><path d="m97.9 328.8c0 9.9-8 13.9-17.9 8.9-9.9-4.9-17.9-17-17.9-26.8s8-13.9 17.9-8.9 17.9 17 17.9 26.8z" fill="#999"/><path d="m81.5 337.2c-9.9-4.9-17.9-17-17.9-26.8 0-4.9 1.9-8.3 5.1-9.9-4 1.3-6.6 5-6.6 10.6 0 9.9 8 21.9 17.9 26.8 5 2.5 9.6 2.7 12.8 1-3.1.9-7 .4-11.3-1.7z" opacity=".15"/><path d="m88.9 323c0 4.1-3.3 5.8-7.5 3.7-4.1-2.1-7.5-7.1-7.5-11.2s3.3-5.8 7.5-3.7 7.5 7.1 7.5 11.2z" fill="#2d3134"/><path d="m88.9 323c0 4.1-3.3 5.8-7.5 3.7-4.1-2.1-7.5-7.1-7.5-11.2s3.3-5.8 7.5-3.7 7.5 7.1 7.5 11.2z" opacity=".29"/><path d="m87.5 323.7c0 4.1-3.3 5.8-7.5 3.7-4.1-2.1-7.5-7.1-7.5-11.2s3.3-5.8 7.5-3.7 7.5 7.1 7.5 11.2z" fill="#2d3134"/><path d="m108 334.1c0 15.5-12.5 21.7-28 14s-28-26.5-28-42 12.5-21.7 28-14 28 26.5 28 42z" opacity=".11"/><path d="m59 283 36-18 36 18-36 18z" fill="#2d3134"/><path d="m109 326 36-18-14-25-36 18z" fill="#2d3134"/><path d="m109 326 36-18-14-25-36 18z" opacity=".29"/><path d="m117 312 36-18-12 20-36 18z" fill="#2d3134"/><path d="m117 312 36-18-12 20-36 18z" opacity=".29"/><path d="m171.4 304.6c-7.5-3.7-14.2-4.2-19.2-1.9l-14 7c-5.4 2.4-8.8 7.9-8.8 15.9 0 15.5 12.5 34.3 28 42 7.6 3.8 14.6 4.2 19.6 1.8 0 0 13.9-6.9 15.1-7.6 4.5-2.7 7.3-7.9 7.3-15.2 0-15.4-12.6-34.2-28-42z" fill="#2d3134"/><path d="m177.3 369.2c2-1 13.7-6.8 14.8-7.5 4.5-2.7 7.3-7.9 7.3-15.2 0-6.2-2.1-13-5.5-19.3l-14 7c3.4 6.4 5.5 13.1 5.5 19.3 0 7.8-3.1 13.2-8.1 15.7z" opacity=".29"/><path d="m175.3 348.4c0 9.9-8 13.9-17.9 8.9-9.9-4.9-17.9-17-17.9-26.8s8-13.9 17.9-8.9 17.9 16.9 17.9 26.8z" fill="#999"/><path d="m158.9 356.7c-9.9-4.9-17.9-17-17.9-26.8 0-4.9 1.9-8.3 5.1-9.9-4 1.3-6.6 5-6.6 10.6 0 9.9 8 21.9 17.9 26.8 5 2.5 9.6 2.7 12.8 1-3.1.9-7 .4-11.3-1.7z" opacity=".15"/><path d="m166.3 342.6c0 4.1-3.3 5.8-7.5 3.7-4.1-2.1-7.5-7.1-7.5-11.2s3.3-5.8 7.5-3.7c4.2 2 7.5 7 7.5 11.2z" fill="#2d3134"/><path d="m166.3 342.6c0 4.1-3.3 5.8-7.5 3.7-4.1-2.1-7.5-7.1-7.5-11.2s3.3-5.8 7.5-3.7c4.2 2 7.5 7 7.5 11.2z" opacity=".29"/><path d="m164.8 343.3c0 4.1-3.3 5.8-7.5 3.7-4.1-2.1-7.5-7.1-7.5-11.2s3.3-5.8 7.5-3.7c4.2 2 7.5 7 7.5 11.2z" fill="#2d3134"/><path d="m185.4 353.6c0 15.5-12.5 21.7-28 14s-28-26.5-28-42 12.5-21.7 28-14c15.4 7.8 28 26.6 28 42z" opacity=".11"/><path d="m152 314.1c-7.5-3.7-14.2-4.2-19.2-1.9l-14 7c-5.4 2.4-8.8 7.9-8.8 15.9 0 15.5 12.5 34.3 28 42 7.6 3.8 14.6 4.2 19.6 1.8 0 0 13.9-6.9 15.1-7.6 4.5-2.7 7.3-7.9 7.3-15.2 0-15.5-12.5-34.3-28-42z" fill="#2d3134"/><path d="m157.9 378.7c2-1 13.7-6.8 14.8-7.5 4.5-2.7 7.3-7.9 7.3-15.2 0-6.2-2.1-13-5.5-19.3l-14 7c3.4 6.4 5.5 13.1 5.5 19.3 0 7.7-3.1 13.1-8.1 15.7z" opacity=".29"/><path d="m155.9 357.8c0 9.9-8 13.9-17.9 8.9-9.9-4.9-17.9-17-17.9-26.8s8-13.9 17.9-8.9 17.9 17 17.9 26.8z" fill="#999"/><path d="m139.5 366.2c-9.9-4.9-17.9-17-17.9-26.8 0-4.9 1.9-8.3 5.1-9.9-4 1.3-6.6 5-6.6 10.6 0 9.9 8 21.9 17.9 26.8 5 2.5 9.6 2.7 12.8 1-3.1.9-7 .4-11.3-1.7z" opacity=".15"/><path d="m146.9 352c0 4.1-3.3 5.8-7.5 3.7-4.1-2.1-7.5-7.1-7.5-11.2s3.3-5.8 7.5-3.7 7.5 7.1 7.5 11.2z" fill="#2d3134"/><path d="m146.9 352c0 4.1-3.3 5.8-7.5 3.7-4.1-2.1-7.5-7.1-7.5-11.2s3.3-5.8 7.5-3.7 7.5 7.1 7.5 11.2z" opacity=".29"/><path d="m145.5 352.7c0 4.1-3.3 5.8-7.5 3.7-4.1-2.1-7.5-7.1-7.5-11.2s3.3-5.8 7.5-3.7 7.5 7.1 7.5 11.2z" fill="#2d3134"/><path d="m166 363.1c0 15.5-12.5 21.7-28 14s-28-26.5-28-42 12.5-21.7 28-14 28 26.5 28 42z" opacity=".11"/><path d="m117 312 36-18 36 18-36 18z" fill="#2d3134"/><path d="m167 355 36-18-14-25-36 18z" fill="#2d3134"/><path d="m167 355 36-18-14-25-36 18z" opacity=".29"/><path d="m192 323-20 10v27l52 26 20-10v-27z" fill="#999"/><path d="m206 330-4-2-20 10v27l4 2v-27z" fill="#2d3134"/><path d="m234 344-4-2-20 10v27l4 2v-27z" fill="#2d3134"/><path d="m244 349v27l-20 10v-27z" opacity=".29"/><path d="m172 333v27l52 26v-27z" opacity=".11"/><path d="m297 311-72 36v47l48 24 72-36v-47z" fill="#2d3134"/><path d="m225 347v47l48 24v-47z" opacity=".11"/><path d="m345 335v47l-72 36v-47z" opacity=".29"/><path d="m192 199-136 68v10l252 126 136-68v-10z" fill="#2d3134"/><path d="m56 277v-10l252 126v10z" opacity=".11"/><path d="m444 335v-10l-136 68v10z" opacity=".29"/><path d="m99 246 80.7-40 199.3 131-44 22-95-25z" opacity=".3"/><path d="m85 216-18 45v4l4 2 18-45v-4z" fill="#999"/><path d="m67 261v4l4 2v-4z" opacity=".11"/><path d="m89 218v4l-18 45v-4z" opacity=".29"/><path d="m163 177-42 21v62l12 6 42-21v-62z" fill="#e5e5e5"/><path d="m121 198v62l12 6v-62z" opacity=".11"/><path d="m175 183v62l-42 21v-62z" opacity=".29"/><path d="m301.6 164c4.4-21.2-1.4-37.6-14.3-47l-15.9-7.6-76.7-14c-6.7-2-15-2-24.4.5-28.5 7.5-55.9 34.4-61.3 60.2-1.9 9.2-.8 17 2.8 22.9h-.1l29.6 63.6 10.1 10.7c12 9.3 30.5 12.1 52.9 6.2 45.1-11.9 88.7-54.6 97.3-95.5z" fill="#e5e5e5"/><path d="m234.1 110.6c21.8-5.7 39.9-3.1 51.9 5.6l94.3 75c12.9 9.4 18.8 25.8 14.3 47-8.6 40.9-52.2 83.6-97.3 95.5-22.3 5.9-40.9 3.1-52.9-6.2 0 0-94.1-74.8-96.8-77.2-10.5-9.7-14.9-25-10.9-44.1 8.7-40.9 52.3-83.7 97.4-95.6z" fill="#e5e5e5"/><path d="m136.8 206.2c8.6-40.9 52.2-83.6 97.3-95.5 14.2-3.7 26.9-3.9 37.3-1.2l-76.7-14c-6.7-2-15-2-24.4.5-28.5 7.5-55.9 34.4-61.3 60.2-1.9 9.2-.8 17 2.8 22.9h-.1l29.6 63.6.2.2c-5.8-9.5-7.8-22-4.7-36.7z" opacity=".1"/><path d="m230.9 281.6c.6-2.6 1.3-5.3 2.1-7.9 1.8-5.9 4.3-11.8 7.4-17.6l-94.3-74.9c-4.4 8.2-7.6 16.6-9.3 24.9-4 19.2.4 34.5 10.9 44.1 2.3 2.1 73.1 58.4 92.1 73.5-9-9.7-12.6-24.2-8.9-42.1z" opacity=".1"/><path d="m231.1 281.1c-8.6 40.9 21.1 64.4 66.3 52.5s88.7-54.6 97.3-95.5-21.1-64.4-66.3-52.5-88.7 54.7-97.3 95.5z" opacity=".29"/><path d="m413.6 278.5c2-9.7.7-17.9-3.2-24.1l-21.2-54.4-.2.1c-10.7-15.5-32.7-21.8-60.7-14.4-42.5 11.2-83.5 49.6-95.4 88.1-.8 2.6-1.5 5.3-2.1 7.9-4 19.2.4 34.5 10.9 44.1.1.1.5.3 1.1.4 6.2 5.4 14.4 8.8 24.1 10.1l53.4 4.1s18 3.6 29.6.5c29.6-7.7 58.1-35.7 63.7-62.4z" fill="#e5e5e5"/><path d="m306.7 306.6c-5.6 26.7 13.8 42.1 43.3 34.3s58-35.7 63.6-62.4-13.8-42.1-43.3-34.3c-29.5 7.7-58 35.7-63.6 62.4z" opacity=".29"/><path d="m306.7 306.6c5.6-26.7 34.1-54.7 63.6-62.4 18.6-4.9 33.2-.6 40 9.9l-21-54.1-.2.1c-10.7-15.5-32.7-21.8-60.7-14.4-42.5 11.2-83.5 49.6-95.4 88.1-.8 2.6-1.5 5.3-2.1 7.9-4 19.2.4 34.5 10.9 44.1.1.1.5.3 1.1.4 6.2 5.4 14.4 8.8 24.1 10.1l53.4 4.1s.8.2 2.1.4c-12.8-4.8-19.4-17.2-15.8-34.2z" opacity=".1"/><path d="m145.8 181.1-31-40.7c-2.7 5.2-4.8 10.4-5.9 15.7-1.9 9.2-.8 17 2.8 22.9h-.1l29.6 63.6.2.2c-5.9-9.4-7.8-21.9-4.7-36.6 1.7-8.2 4.8-16.4 9.1-24.4z" opacity=".1"/><path d="m306.7 306.6c1.1-5.4 3.2-10.8 6-16.1l-72.4-33.9c-3 5.7-5.5 11.5-7.2 17.2-.8 2.6-1.5 5.3-2.1 7.9-4 19.2.4 34.5 10.9 44.1.1.1.5.3 1.1.4 6.2 5.4 14.4 8.8 24.1 10.1l53.4 4.1s.8.2 2.1.4c-12.9-4.8-19.5-17.2-15.9-34.2z" opacity=".1"/><path d="m327.4 185.4-95.1-74.1-63.1-15.1c-5.8 1.6-11.5 4-17 7l47.5 22.2 96.2 73.4 53.1 54.3.2-.1c5.2-3 10.6-5.6 16.1-7.4z" fill="#fff" opacity=".3"/><path d="m271.6 331.4c4.2-2.1 7.9-2.3 10.7-1.1l39.3 19.6c3 1.3 4.9 4.4 4.9 8.9 0 8.6-7 19.1-15.6 23.4-4.3 2.1-8.1 2.3-10.9 1 0 0-39.3-19.5-40-19.9-2.5-1.5-4.1-4.4-4.1-8.4.1-8.7 7.1-19.2 15.7-23.5z" fill="#999"/><path d="m269.4 367.9c-2.5-1.5-4.1-4.4-4.1-8.4 0-8.6 7-19.1 15.6-23.4 4.2-2.1 7.9-2.3 10.7-1.1l-2.3-1.2c-2.8-1.3-6.6-1-10.7 1.1-8.6 4.3-15.6 14.8-15.6 23.4 0 4 1.5 6.9 4.1 8.4.1.1 2.4 1.3 2.3 1.2z" fill="#2d3134"/><path d="m292.5 379.3c-2.5-1.5-4.1-4.4-4.1-8.4 0-8.6 7-19.1 15.6-23.4 4.2-2.1 7.9-2.3 10.7-1.1l-2.3-1.2c-2.8-1.3-6.6-1-10.7 1.1-8.6 4.3-15.6 14.8-15.6 23.4 0 4 1.5 6.9 4.1 8.4.1.1 2.4 1.3 2.3 1.2z" fill="#2d3134"/><path d="m299.8 383.1c-1.1-.6-39.2-19.5-39.8-19.8-2.5-1.5-4.1-4.4-4.1-8.4 0-3.5 1.1-7.2 3-10.8l39.3 19.6c-1.9 3.5-3 7.3-3 10.8.1 4.1 1.9 7.1 4.6 8.6z" opacity=".11"/><path d="m295.3 374.4c0 8.6 7 12.1 15.6 7.8s15.6-14.8 15.6-23.4-7-12.1-15.6-7.8-15.6 14.8-15.6 23.4z" opacity=".29"/><path d="m541 313.4h-1v-30.7c0-1.1-.6-2.1-1.5-2.7s-2.1-.6-3-.1l-2.3 1.1-.4-.9 2.3-1.1c1.3-.6 2.8-.6 4 .2s2 2.1 2 3.5v30.7z" fill="#2d3134"/><path d="m534.7 289v20.9c0 1.9 2.1 3 3.6 1.9l.5-.4c2.5-1.8 4-4.7 4-7.7v-21c0-1.9-2.2-3-3.7-1.8l-.8.6c-2.2 1.8-3.6 4.6-3.6 7.5z" fill="#2d3134"/><path d="m352 414.3c-7.5-3.7-14.2-4.2-19.2-1.9l-14 7c-5.4 2.4-8.8 7.9-8.8 15.9 0 15.5 12.5 34.3 28 42 7.6 3.8 14.6 4.2 19.6 1.8 0 0 13.9-6.9 15.1-7.6 4.5-2.7 7.3-7.9 7.3-15.2 0-15.5-12.5-34.3-28-42z" fill="#2d3134"/><path d="m357.9 478.9c2-1 13.7-6.8 14.8-7.5 4.5-2.7 7.3-7.9 7.3-15.2 0-6.2-2.1-13-5.5-19.3l-14 7c3.4 6.4 5.5 13.1 5.5 19.3 0 7.8-3.1 13.1-8.1 15.7z" opacity=".29"/><path d="m355.9 458.1c0 9.9-8 13.9-17.9 8.9-9.9-4.9-17.9-17-17.9-26.8s8-13.9 17.9-8.9 17.9 16.9 17.9 26.8z" fill="#999"/><path d="m339.5 466.4c-9.9-4.9-17.9-17-17.9-26.8 0-4.9 1.9-8.3 5.1-9.9-4 1.3-6.6 5-6.6 10.6 0 9.9 8 21.9 17.9 26.8 5 2.5 9.6 2.7 12.8 1-3.1.9-7 .4-11.3-1.7z" opacity=".15"/><path d="m346.9 452.2c0 4.1-3.3 5.8-7.5 3.7-4.1-2.1-7.5-7.1-7.5-11.2s3.3-5.8 7.5-3.7 7.5 7.1 7.5 11.2z" fill="#2d3134"/><path d="m346.9 452.2c0 4.1-3.3 5.8-7.5 3.7-4.1-2.1-7.5-7.1-7.5-11.2s3.3-5.8 7.5-3.7 7.5 7.1 7.5 11.2z" opacity=".29"/><path d="m345.5 452.9c0 4.1-3.3 5.8-7.5 3.7s-7.5-7.1-7.5-11.2 3.3-5.8 7.5-3.7c4.1 2.1 7.5 7.1 7.5 11.2z" fill="#2d3134"/><path d="m366 463.3c0 15.5-12.5 21.7-28 14s-28-26.5-28-42 12.5-21.7 28-14 28 26.5 28 42z" opacity=".11"/><path d="m546 373-98-49-140 70v15l18 9s10.4 4.8 13 6c8.6 4.1 16.1 7.8 23.6 16.9 8.6 10.5 12.8 26.5 12.5 36.6l30.9 15.5 140-70z" fill="#f90"/><path d="m433.5 330.9 86-43c1.9-1 4.2 0 4.9 2l14.7 44.1z" opacity=".15"/><path d="m448 221.3-140 70v100.7l98 49 140-70v-15c0-23.7-3.2-47.3-9.5-70.1l-6.5-23.6z" fill="#f90"/><path d="m411.6 393.3c-1.5 0-2.7-1.1-2.9-2.5-1.6-12.2-4.1-24.4-7.3-36.2l-4.8-17.3c-.4-1.3.3-2.8 1.5-3.4l125.6-62.8c.4-.2.8-.3 1.3-.3 1.3 0 2.5.9 2.8 2.1l3.9 14.3c3.6 13.2 6.2 26.8 7.7 40.4.1 1.2-.5 2.4-1.6 2.9l-125 62.5c-.3.2-.8.3-1.2.3z" fill="#656565"/><path d="m524.9 271.8c.9 0 1.6.6 1.9 1.4l3.9 14.3c3.6 13.1 6.2 26.7 7.7 40.2.1.8-.3 1.6-1.1 1.9l-125 62.5c-.3.1-.6.2-.9.2-.8 0-1.8-.6-1.9-1.7-1.6-12.3-4.1-24.5-7.4-36.3l-4.8-17.3c-.2-.9.2-1.8 1-2.2l125.8-62.8c.2-.2.5-.2.8-.2m0-2c-.6 0-1.2.1-1.7.4l-125.6 62.8c-1.7.8-2.5 2.7-2 4.5l4.8 17.3c3.3 11.9 5.7 23.9 7.3 36.1.3 2 2 3.4 3.9 3.4.6 0 1.2-.1 1.7-.4l125-62.5c1.5-.7 2.3-2.3 2.2-3.9-1.5-13.7-4.1-27.2-7.8-40.5l-3.9-14.3c-.6-1.8-2.2-2.9-3.9-2.9z" fill="#2d3134"/><path d="m540.4 327.5c-.5-4.3-.8-6.2-.4-2.8.2 1.6-.7 3.2-2.2 3.9l-125 62.5c-2.2 1.1-4.8-.1-5.5-2.3.1.7.2 1.4.3 2.1.4 2.7 3.2 4.2 5.6 3l125-62.5c1.5-.7 2.4-2.3 2.2-3.9z" fill="#2d3134"/><path d="m396.3 392.5c-.3 0-.7-.1-1-.2l-20.2-10.1c-2.5-1.3-4.1-3.8-4.1-6.7 0-4.4-2.4-8.4-6.4-10.3l-31.2-15.6c-.7-.4-1.2-1.1-1.2-1.9v-35.1c0-1.3 1.1-2.2 2.2-2.2.3 0 .7.1 1 .2l45.9 23c2.8 1.4 4.9 4 5.8 7l4.6 16.6c3 10.7 5.2 21.8 6.8 32.8.1.6-.1 1.3-.5 1.7-.4.5-1 .8-1.7.8z" fill="#656565"/><path d="m334.4 311.4c.2 0 .4 0 .5.1l45.9 23c2.6 1.3 4.5 3.6 5.3 6.4l4.6 16.6c2.9 10.7 5.2 21.7 6.8 32.7.1.4-.1.8-.3.9-.2.3-.6.4-.9.4-.2 0-.4 0-.5-.1l-20.2-10.1c-2.2-1.1-3.6-3.3-3.6-5.8 0-4.8-2.7-9.1-6.9-11.2l-31.2-15.6c-.4-.2-.7-.6-.7-1.1v-35.1c0-.7.7-1.1 1.2-1.1m0-2c-1.7 0-3.2 1.3-3.2 3.2v35.1c0 1.2.7 2.3 1.8 2.8l31.2 15.6c3.6 1.8 5.8 5.4 5.8 9.4 0 3.2 1.8 6.1 4.7 7.5l20.2 10.1c.5.2 1 .3 1.4.3 1.8 0 3.4-1.6 3.2-3.6-1.6-11.1-3.8-22.1-6.8-32.9l-4.6-16.6c-.9-3.3-3.2-6.1-6.3-7.7l-45.9-23c-.5-.1-1-.2-1.5-.2z" fill="#2d3134"/><path d="m445.5 339c35 0 67.6-4.8 94.7-13.1-1.5-13.1-4.1-26.1-7.6-38.9l-3.9-14.3c-.7-2.4-3.3-3.6-5.5-2.5l-125.6 62.8c-1.1.5-1.8 1.5-2.1 2.6 15.9 2.2 32.6 3.4 50 3.4z" opacity=".2"/><path d="m528.8 282.6c1-.5 1.7-1.4 2-2.4l-2.1-7.6c-.7-2.4-3.3-3.6-5.5-2.5l-125.6 62.9c-1.7.8-2.5 2.7-2 4.5l2.3 8.4c1.1.7 2.6.9 3.9.2z" fill="#2d3134"/><path d="m308 394v15l18 9s10.4 4.8 13 6c8.6 4.1 16.1 7.8 23.6 16.9 8.6 10.5 12.8 26.5 12.5 36.6l30.9 15.5v-50z" opacity=".11"/><path d="m331 358.5v5l10 5v-5z" fill="#2d3134" opacity=".3"/><path d="m341 371-10-5v-2.5l10 5z" fill="#fff" opacity=".3"/><path d="m479 332.5c-.8-.7-1.9-.6-2.6.2l-34.2 38.9c-.7.8-.6 1.9.2 2.6s1.9.6 2.6-.2l9.2-10.5v9h2.3v-11.5h-.1l22.9-26c.5-.7.4-1.8-.3-2.5z" fill="#2d3134"/><path d="m511.9 314.5c-.8-.7-1.9-.6-2.6.2l-34.2 38.9c-.7.8-.6 1.9.2 2.6s1.9.6 2.6-.2l8.2-9.3v9.9h2.3v-12.6l23.8-27c.5-.7.4-1.9-.3-2.5z" fill="#2d3134"/><path d="m546 341-6.8 3.4-35.2 88-56 28-35.2-52.8-6.8 3.4" fill="none" opacity=".2" stroke="#000" stroke-miterlimit="10" stroke-width=".8485"/><path d="m521.1 378.5 10-25.1-110.2 55.1 10 15.1z" fill="#2d3134"/><path d="m445.4 445.3 5.7 8.6 49.8-24.9 5.7-14.3z" fill="#2d3134"/><path d="m510.1 406 5.5-13.8-79.2 39.6 5.5 8.3z" fill="#2d3134"/><path d="m517.8 409.1-5.5 13.8 33.7-16.9v-11z" fill="#2d3134"/><path d="m546 366v-20l-3.7 1.8-10 25.1z" opacity=".2"/><path d="m546 388v-11l-19.2 9.6-5.5 13.8z" fill="#fff"/><path d="m419.7 429.2-10-15.1-3.7 1.9v20z" opacity=".2"/><path d="m406 465v11l33.7-16.8-5.5-8.3z" fill="#2d3134"/><path d="m430.7 445.7-5.5-8.3-19.2 9.6v11z" fill="#fff"/><path d="m527 413.5 17-8.5v-7l-17 8.5z" fill="#fff"/><path d="m460 463 36-18v-7l-36 18z" fill="#fff"/><path d="m408 473 17-8.5v-7l-17 8.5z" fill="#fff"/><g fill="#2d3134"><ellipse cx="421.2" cy="463.4" opacity=".3" rx="2.6" ry="1.7" transform="matrix(-.6313 .7756 -.7756 -.6313 1046.5109 429.2193)"/><ellipse cx="418.8" cy="463.4" opacity=".3" rx="2.6" ry="1.7" transform="matrix(-.6313 .7756 -.7756 -.6313 1042.5808 431.0877)"/><ellipse cx="422.5" cy="445.6" opacity=".3" rx="4.4" ry="2.9" transform="matrix(-.6313 .7756 -.7756 -.6313 1034.7201 399.1689)"/><ellipse cx="418.4" cy="445.6" opacity=".3" rx="4.4" ry="2.9" transform="matrix(-.6313 .7756 -.7756 -.6313 1028.072 402.3296)"/><ellipse cx="529.5" cy="391.6" opacity=".3" rx="4.4" ry="2.9" transform="matrix(-.6313 .7756 -.7756 -.6313 1167.3865 228.0953)"/><ellipse cx="533.4" cy="387.6" opacity=".3" rx="4.4" ry="2.9" transform="matrix(-.6313 .7756 -.7756 -.6313 1170.6864 218.5263)"/><ellipse cx="413.2" cy="467.4" opacity=".3" rx="2.6" ry="1.7" transform="matrix(-.6313 .7756 -.7756 -.6313 1036.5629 441.9489)"/><ellipse cx="410.8" cy="467.4" opacity=".3" rx="2.6" ry="1.7" transform="matrix(-.6313 .7756 -.7756 -.6313 1032.6329 443.8173)"/><ellipse cx="541.2" cy="403.4" opacity=".3" rx="2.6" ry="1.7" transform="matrix(-.6313 .7756 -.7756 -.6313 1195.7303 238.2758)"/><ellipse cx="538.8" cy="403.4" opacity=".3" rx="2.6" ry="1.7" transform="matrix(-.6313 .7756 -.7756 -.6313 1191.8004 240.1442)"/><ellipse cx="533.2" cy="407.4" opacity=".3" rx="2.6" ry="1.7" transform="matrix(-.6313 .7756 -.7756 -.6313 1185.7823 251.0053)"/><ellipse cx="530.8" cy="407.4" opacity=".3" rx="2.6" ry="1.7" transform="matrix(-.6313 .7756 -.7756 -.6313 1181.8524 252.8737)"/></g><path d="m407 456 6-3v-5l-6 3z" fill="#fc0"/><path d="m539 390 6-3v-5l-6 3z" fill="#fc0"/><path d="m387 391c-1.1 0-2.2-.3-3.1-.9-1.8-1.1-2.8-3-2.8-5.1v-32.3c0-2.3 1.3-4.3 3.3-5.3l3.7-1.8.4.9-3.7 1.8c-1.7.8-2.7 2.5-2.7 4.4v32.3c0 1.7.9 3.3 2.4 4.2s3.3 1 4.8.2l.6-.3.4.9-.6.3c-.9.4-1.8.7-2.7.7z" fill="#2d3134"/><path d="m381.3 351.9.7-.3c2.4-.8 4.9 1 4.9 3.5v21.4c0 3.1-1.9 6-4.9 7.1l-.9.3c-2.4.9-5.1-.9-5.1-3.5v-21.4c.2-3.2 2.2-6.1 5.3-7.1z" fill="#2d3134"/><path d="m406 493 140-70v-50l-140 70z" opacity=".29"/><path d="m530 262.3-140 70 6.5 23.6c6.3 22.8 9.5 46.4 9.5 70.1v15l140-70v-15c0-23.7-3.2-47.3-9.5-70.1z" opacity=".29"/><path d="m390 332.3-82-41v100.7l98 49v-15c0-23.7-3.2-47.3-9.5-70.1z" opacity=".11"/><path d="m388 484-2-1v-50l2 1z" fill="#2d3134" opacity=".3"/><path d="m390 485-2-1v-50l2 1z" fill="#fff" opacity=".3"/><path d="m74 214-10 5v4l20 10 10-5v-4z" fill="#999"/><path d="m64 219v4l20 10v-4z" opacity=".11"/><path d="m94 224v4l-10 5v-4z" opacity=".29"/><path d="m68 229-10 5v4l20 10 10-5v-4z" fill="#999"/><path d="m58 234v4l20 10v-4z" opacity=".11"/><path d="m88 239v4l-10 5v-4z" opacity=".29"/><path d="m62 244-10 5v4l20 10 10-5v-4z" fill="#999"/><path d="m52 249v4l20 10v-4z" opacity=".11"/><path d="m82 254v4l-10 5v-4z" opacity=".29"/><path d="m87 181-32 16v4l34 17 32-16v-4z" fill="#999"/><path d="m55 197v4l34 17v-4z" opacity=".11"/><path d="m121 198v4l-32 16v-4z" opacity=".29"/></svg>