<svg enable-background="new 0 0 560 480" height="480" viewBox="0 0 560 480" width="560" xmlns="http://www.w3.org/2000/svg"><path d="m410 430 142-71-366-183-142 71z" fill="#262626" opacity=".3"/><path d="m48 241 16 8 4-2v-1l-16-8h-4v2z" fill="#f90"/><path d="m48 241 16 8 4-2v-1l-4 2-16-8z" opacity=".11"/><path d="m190 130-120 60-20 55 30 15 120-60v-45z" fill="#f90"/><path d="m50 245 20-55 10 25v45z" opacity=".11"/><path d="m200 200v-45l-120 60v45z" opacity=".29"/><path d="m176 182-2 1v5l44-7 78 9 2-1v-11l-82-8z" fill="#f90"/><path d="m174 188v-5l40-12 82 8v11l-78-9z" opacity=".11"/><path d="m298 178v11l-2 1v-11z" opacity=".29"/><path d="m202 201.4 16 8-56 28-16-8z" fill="#2d3134"/><path d="m218 220.4v-11l-56 28v11z" fill="#f90"/><path d="m218 220.4v-11l-56 28v11z" opacity=".29"/><path d="m146 229.4v11l16 8v-11z" fill="#f90"/><path d="m146 229.4v11l16 8v-11z" opacity=".11"/><path d="m239.4 165.5c-5.2-1.1-10.3-.4-14.7 1.6l-56.7 27.9-.1.1c-7 3.5-12 10.4-12.8 18.7l-.1.2v36l112 56 55.6-27.8.4.2v-.4-92.6-.4z" fill="#f90"/><path d="m323 278v-93l-56 28v93z" opacity=".29"/><path d="m180 233.9v-24.6c0-4-2.3-7.7-5.9-9.5l-7.7-3.9c-6.7 4.1-11.4 11.4-11.4 20.1v12.4l18.7 9.3c2.9 1.6 6.3-.5 6.3-3.8z" fill="#2d3134"/><path d="m155 250v-33.9c0-14.9 13.8-26.1 28.4-22.9l83.6 19.8v93z" opacity=".11"/><path d="m275 314-25-12v-38l25 12z" fill="#2d3134"/><path d="m275 314-25-12v-38l25 12z" opacity=".11"/><path d="m380 275v-40l-94 47v40z" fill="#f90"/><path d="m207 223.8c-11.4-5.7-21.8-6.1-29.1-2.2l-21.1 10.6c-7.1 3.8-11.5 11.5-11.5 22.5 0 22.4 18.2 49.7 40.6 60.9 12.3 6.2 23.3 6.2 30.8 1.2l17.1-8.6c8.5-3.2 13.8-11.4 13.8-23.6 0-22.3-18.1-49.6-40.6-60.8z" fill="#2d3134"/><path d="m226.5 295.3c0 22.4-18.2 31.5-40.6 20.3s-40.6-38.5-40.6-60.9 18.2-31.5 40.6-20.3 40.6 38.5 40.6 60.9z" opacity=".11"/><path d="m187.8 233.4c-12.2-6.1-23.1-6.2-30.6-1.4 7-2.3 16.1-1.3 25.9 3.6 22.4 11.2 40.6 38.5 40.6 60.9 0 10.2-3.8 17.7-10 21.7 9-3 14.7-11.3 14.7-23.9 0-22.5-18.2-49.7-40.6-60.9z" fill="#fff" opacity=".1"/><g fill="#f90"><path d="m205.8 284.9c0 11-8.9 15.4-19.9 9.9s-19.9-18.9-19.9-29.8c0-11 8.9-15.4 19.9-9.9s19.9 18.8 19.9 29.8z"/><path d="m204.2 284.1c0 10.1-8.2 14.2-18.3 9.1-10.1-5-18.3-17.3-18.3-27.4s8.2-14.2 18.3-9.1 18.3 17.3 18.3 27.4z"/><path d="m204.2 284.1c0 10.1-8.2 14.2-18.3 9.1-10.1-5-18.3-17.3-18.3-27.4s8.2-14.2 18.3-9.1 18.3 17.3 18.3 27.4z"/></g><path d="m204.2 284.1c0 10.1-8.2 14.2-18.3 9.1-10.1-5-18.3-17.3-18.3-27.4s8.2-14.2 18.3-9.1 18.3 17.3 18.3 27.4z" opacity=".29"/><path d="m185.9 256.7c-10.1-5-18.3-1-18.3 9.1 0 5.5 2.4 11.6 6.2 16.8l25.8-12.9c-3.3-5.4-8.2-10.3-13.7-13z" opacity=".15"/><path d="m189.5 258.8-4.8 2.6c-2.2 1-4 2.7-4 6 0 5.5 4.5 12.2 9.9 14.9 2.6 1.3 4.9 1.5 6.6.8l6.5-3.1c-1.5-7.9-7.1-16.2-14.2-21.2z" fill="#f90"/><path d="m189.5 258.8-4.8 2.6c-2.2 1-4 2.7-4 6 0 5.5 4.5 12.2 9.9 14.9 2.6 1.3 4.9 1.5 6.6.8l6.5-3.1c-1.5-7.9-7.1-16.2-14.2-21.2z" opacity=".29"/><path d="m215.4 261.9c6.9 10.7 11.1 22.6 11.1 33.4 0 10.1-3.7 17.5-9.8 21.6l17.1-8.6c8.5-3.2 13.8-11.4 13.8-23.6 0-10.8-4.2-22.7-11.1-33.4z" opacity=".29"/><path d="m200.5 277.3c0 5.5-4.5 7.7-9.9 5s-9.9-9.4-9.9-14.9 4.5-7.7 9.9-5c5.5 2.7 9.9 9.4 9.9 14.9z" fill="#f90"/><g opacity=".5"><path d="m192.2 266.6c0 .9-.7 1.3-1.6.8s-1.6-1.5-1.6-2.4.7-1.3 1.6-.8 1.6 1.5 1.6 2.4z"/><path d="m192.2 279.6c0 .9-.7 1.3-1.6.8s-1.6-1.5-1.6-2.4.7-1.3 1.6-.8 1.6 1.5 1.6 2.4z"/><path d="m187.2 264.9c.6 1 .6 2 0 2.3s-1.7-.2-2.3-1.1c-.6-1-.6-2 0-2.3.6-.4 1.6.1 2.3 1.1z"/><path d="m196.3 278.6c.6 1 .6 2 0 2.3s-1.7-.2-2.3-1.1c-.6-1-.6-2 0-2.3.7-.3 1.7.2 2.3 1.1z"/><path d="m184.1 267.4c.9.4 1.6 1.5 1.6 2.4s-.7 1.3-1.6.8c-.9-.4-1.6-1.5-1.6-2.4s.7-1.2 1.6-.8z"/><path d="m197.1 273.9c.9.4 1.6 1.5 1.6 2.4s-.7 1.3-1.6.8-1.6-1.5-1.6-2.4.7-1.2 1.6-.8z"/><path d="m184.9 272.9c.6-.3 1.7.2 2.3 1.1.6 1 .6 2 0 2.3s-1.7-.2-2.3-1.1c-.7-1-.7-2 0-2.3z"/><path d="m194 268.3c.6-.3 1.7.2 2.3 1.1.6 1 .6 2 0 2.3s-1.7-.2-2.3-1.1c-.6-1-.6-2 0-2.3z"/></g><path d="m185.9 234.4c-22.4-11.2-40.6-2.1-40.6 20.3s18.2 49.7 40.6 60.9 40.6 2.1 40.6-20.3-18.1-49.7-40.6-60.9zm0 76.3c-19.7-9.9-35.7-33.9-35.7-53.6s16-27.7 35.7-17.9 35.7 33.9 35.7 53.6c.1 19.8-15.9 27.8-35.7 17.9z" fill="#fff" opacity=".1"/><g opacity=".5"><path d="m183 236.2 6.5 3.2-3.2-4.9c-.1 0-.2-.1-.3-.1-2-1-3.9-1.8-5.8-2.5z"/><path d="m189.4 314.1-6.5-3.2 2.4 4.4.6.3c1.9 1 3.8 1.8 5.7 2.4z"/><path d="m164.7 233.5 5.6-.4-4.4-3.4c-.1 0-.2 0-.2 0-1.7.1-3.3.4-4.8.9z"/><path d="m207.6 316.4-5.6.4 3.7 3.4h.5c1.7-.1 3.2-.4 4.7-.8z"/><path d="m152 241.9 3.2-4-4.4-1c0 .1-.1.1-.1.2-1 1.2-1.8 2.5-2.5 4z"/><path d="m220 307.6-3.2 4 4 1.5c.1-.1.2-.2.3-.3 1-1.2 1.8-2.5 2.5-3.9z"/><path d="m148.6 259.2v-6.5l-3.2 1.6v.3c0 2 .1 4 .4 6z"/><path d="m223.3 290.1v6.5l3.2-.8c0-.2 0-.4 0-.5 0-1.9-.1-3.9-.4-5.9z"/><path d="m155.1 280.7-3.2-7.2-1.2 3.8c0 .1.1.2.1.3 1 2.2 2.1 4.4 3.3 6.5z"/><path d="m216.5 268.5 3.2 7.2 1.6-2.9c-.1-.2-.2-.4-.3-.6-1-2.1-2-4.2-3.2-6.3z"/><path d="m169.8 300.7-5.6-6.1 1.2 5c.1.1.2.2.2.3 1.7 1.8 3.5 3.6 5.2 5.2z"/><path d="m201.6 248.6 5.6 6.1-.5-4.3c-.2-.2-.3-.4-.5-.5-1.7-1.8-3.4-3.5-5.1-5z"/></g><g opacity=".5"><path d="m179.5 220.8c-.5.2-1.1.5-1.6.8l-5.3 2.6-.6 1-11.2 5.3c1.5-.4 3.1-.7 4.8-.9h.2l11.3-4.8z"/><path d="m229.9 242.2c-1.2-1.4-2.5-2.9-3.8-4.2l-6.4 7.5-18.5-.7c1.7 1.6 3.4 3.2 5.1 5l.5.5 16.3.4z"/><path d="m185.9 234.4c.1 0 .2.1.3.1l18-1.8 4.4-8.2c-.5-.3-1-.5-1.5-.8-1.2-.6-2.3-1.1-3.4-1.6l-4.2 7.2-19.3 2.5c1.8.8 3.8 1.6 5.7 2.6z"/><path d="m237.5 298.7 8.8-4.2c.7-2.2 1.1-4.6 1.3-7.2l-9.3 4.9-12-2.8c.3 2 .4 3.9.4 5.9v.5z"/><path d="m223.5 308.9c-.7 1.4-1.5 2.7-2.5 3.9-.1.1-.2.2-.3.3l2.6.4 7-3.5z"/><path d="m221.4 272.8 15.7 3.3 8-7c-.8-2.4-1.7-4.9-2.8-7.3l-8 6.7-16.3-2.6c1.1 2 2.2 4.1 3.2 6.3 0 .2.1.4.2.6z"/></g><path d="m250 265-10 5v52l4 2 4-2 6-55z" fill="#f90"/><path d="m240 270 4 2v52l-4-2z" opacity=".11"/><path d="m254 267-10 5v52l4-2z" opacity=".29"/><path d="m252 278-8 4v4l18 9 4-10z" fill="#f90"/><path d="m244 282v4l18 9v-4z" opacity=".11"/><path d="m250 295-6 3v4l18 9 2-9z" fill="#f90"/><path d="m244 298v4l18 9v-4z" opacity=".11"/><path d="m248 312-4 2v4l18 9v-8z" fill="#f90"/><path d="m244 314v4l18 9v-4z" opacity=".11"/><path d="m272 276-10 5v52l4 2 4-2 6-55z" fill="#f90"/><path d="m262 281 4 2v52l-4-2z" opacity=".11"/><path d="m276 278-10 5v52l4-2z" opacity=".29"/><path d="m397.7 211.4v38.7l-46.7 14 6.6-32.7 40.4-20.3" fill="#f90"/><path d="m397.7 211.4v38.7l-46.7 14 6.6-32.7 40.4-20.3" opacity=".29"/><path d="m441.1 231.2c-12.6-6.3-24.1-6.8-32.2-2.5l-23.3 11.7c-7.9 4.2-12.7 12.8-12.7 24.9 0 24.8 20.1 54.9 44.9 67.3 13.6 6.8 25.8 6.8 34 1.4l18.9-9.5c9.4-3.5 15.3-12.6 15.3-26.1 0-24.6-20.1-54.8-44.9-67.2z" fill="#2d3134"/><path d="m462.7 310.3c0 24.8-20.1 34.8-44.9 22.4s-44.9-42.5-44.9-67.3 20.1-34.8 44.9-22.4c24.8 12.3 44.9 42.5 44.9 67.3z" opacity=".11"/><path d="m419.8 241.8c-13.5-6.7-25.6-6.8-33.8-1.5 7.8-2.6 17.8-1.5 28.6 4 24.8 12.4 44.9 42.5 44.9 67.3 0 11.3-4.2 19.5-11.1 24 9.9-3.3 16.2-12.5 16.2-26.4.1-24.9-20-55-44.8-67.4z" fill="#fff" opacity=".1"/><path d="m439.8 298.8c0 12.1-9.8 17.1-22 11-12.1-6.1-22-20.8-22-33 0-12.1 9.8-17.1 22-11 12.1 6.1 22 20.9 22 33z" fill="#f90"/><path d="m438 297.9c0 11.2-9 15.7-20.2 10.1s-20.2-19.1-20.2-30.3 9-15.7 20.2-10.1 20.2 19.2 20.2 30.3z" fill="#f90"/><path d="m438 297.9c0 11.2-9 15.7-20.2 10.1s-20.2-19.1-20.2-30.3 9-15.7 20.2-10.1 20.2 19.2 20.2 30.3z" fill="#f90"/><path d="m438 297.9c0 11.2-9 15.7-20.2 10.1s-20.2-19.1-20.2-30.3 9-15.7 20.2-10.1 20.2 19.2 20.2 30.3z" opacity=".29"/><path d="m417.8 267.6c-11.2-5.6-20.2-1.1-20.2 10.1 0 6 2.6 12.8 6.8 18.6l28.5-14.2c-3.7-6.1-9.1-11.5-15.1-14.5z" opacity=".15"/><path d="m421.7 270-5.3 2.8c-2.5 1.1-4.4 3-4.4 6.6 0 6.1 4.9 13.5 11 16.5 2.8 1.4 5.4 1.6 7.3.8l7.2-3.5c-1.8-8.6-8-17.8-15.8-23.2z" fill="#f90"/><path d="m421.7 270-5.3 2.8c-2.5 1.1-4.4 3-4.4 6.6 0 6.1 4.9 13.5 11 16.5 2.8 1.4 5.4 1.6 7.3.8l7.2-3.5c-1.8-8.6-8-17.8-15.8-23.2z" opacity=".29"/><path d="m450.4 273.3c7.6 11.8 12.3 25 12.3 36.9 0 11.2-4.1 19.3-10.9 23.8l18.9-9.5c9.4-3.5 15.3-12.6 15.3-26.1 0-11.9-4.7-25.1-12.2-36.9z" opacity=".29"/><path d="m433.9 290.4c0 6.1-4.9 8.5-11 5.5s-11-10.4-11-16.5 4.9-8.5 11-5.5 11 10.4 11 16.5z" fill="#f90"/><g opacity=".5"><path d="m424.7 278.6c0 1-.8 1.4-1.8.9s-1.8-1.7-1.8-2.7.8-1.4 1.8-.9 1.8 1.7 1.8 2.7z"/><path d="m424.7 292.9c0 1-.8 1.4-1.8.9s-1.8-1.7-1.8-2.7.8-1.4 1.8-.9 1.8 1.8 1.8 2.7z"/><path d="m419.1 276.6c.7 1.1.7 2.2 0 2.5-.7.4-1.8-.2-2.5-1.3s-.7-2.2 0-2.5 1.8.3 2.5 1.3z"/><path d="m429.3 291.8c.7 1.1.7 2.2 0 2.5s-1.8-.2-2.5-1.3-.7-2.2 0-2.5 1.8.3 2.5 1.3z"/><path d="m415.8 279.5c1 .5 1.8 1.7 1.8 2.7s-.8 1.4-1.8.9-1.8-1.7-1.8-2.7.8-1.4 1.8-.9z"/><path d="m430.1 286.7c1 .5 1.8 1.7 1.8 2.7s-.8 1.4-1.8.9-1.8-1.7-1.8-2.7.8-1.4 1.8-.9z"/><path d="m416.6 285.5c.7-.4 1.8.2 2.5 1.3s.7 2.2 0 2.5c-.7.4-1.8-.2-2.5-1.3s-.7-2.1 0-2.5z"/><path d="m426.8 280.4c.7-.4 1.8.2 2.5 1.3s.7 2.2 0 2.5-1.8-.2-2.5-1.3-.7-2.1 0-2.5z"/></g><path d="m417.8 242.9c-24.8-12.4-44.9-2.3-44.9 22.4s20.1 54.9 44.9 67.3 44.9 2.3 44.9-22.4-20.1-54.9-44.9-67.3zm0 84.4c-21.8-10.9-39.5-37.4-39.5-59.2s17.7-30.7 39.5-19.7c21.8 10.9 39.5 37.4 39.5 59.2s-17.7 30.6-39.5 19.7z" fill="#fff" opacity=".1"/><g opacity=".5"><path d="m414.5 244.9 7.2 3.6-3.6-5.4c-.1-.1-.2-.1-.3-.2-2.2-1.1-4.3-2-6.4-2.7z"/><path d="m421.7 331-7.2-3.6 2.7 4.9.6.3c2.1 1.1 4.2 1.9 6.2 2.7z"/><path d="m394.3 241.9 6.2-.5-4.9-3.8c-.1 0-.2 0-.3 0-1.9.1-3.7.5-5.3.9z"/><path d="m441.8 333.6-6.2.5 4.1 3.8h.5c1.8-.1 3.6-.5 5.2-.9z"/><path d="m380.3 251.2 3.6-4.4-4.9-1.1c-.1.1-.1.1-.2.2-1.1 1.3-2 2.8-2.8 4.4z"/><path d="m455.4 323.8-3.6 4.4 4.4 1.7c.1-.1.2-.2.3-.4 1.1-1.3 2-2.7 2.7-4.3z"/><path d="m376.6 270.4v-7.2l-3.6 1.8v.3c0 2.2.2 4.4.5 6.6z"/><path d="m459.1 304.5v7.2l3.6-.9c0-.2 0-.4 0-.6 0-2.1-.2-4.3-.4-6.5z"/><path d="m383.7 294.2-3.6-8-1.3 4.2c.1.1.1.2.1.3 1.1 2.4 2.3 4.8 3.6 7.1z"/><path d="m451.6 280.6 3.6 8 1.8-3.2c-.1-.2-.2-.5-.3-.7-1.1-2.4-2.2-4.7-3.5-6.9z"/><path d="m400 316.3-6.2-6.7 1.3 5.5.3.3c1.9 2 3.8 3.9 5.8 5.7z"/><path d="m435.1 258.7 6.2 6.7-.5-4.7c-.2-.2-.3-.4-.5-.6-1.8-2-3.7-3.8-5.6-5.6z"/></g><g opacity=".5"><path d="m410.7 227.9c-.6.3-1.2.5-1.8.8l-5.8 2.9-.6 1.1-12.4 5.8c1.7-.5 3.4-.8 5.3-.9h.3l12.5-5.3z"/><path d="m466.4 251.6c-1.4-1.6-2.8-3.2-4.2-4.7l-7 8.3-20.5-.7c1.9 1.7 3.8 3.6 5.6 5.6.2.2.3.4.5.6l18 .4z"/><path d="m417.8 242.9c.1.1.2.1.3.2l19.9-2 4.8-9c-.6-.3-1.1-.6-1.7-.9-1.3-.6-2.5-1.2-3.8-1.7l-4.6 7.9-21.4 2.7c2.2.9 4.3 1.8 6.5 2.8z"/><path d="m474.8 314 9.7-4.7c.7-2.4 1.2-5.1 1.4-8l-10.3 5.4-13.3-3.1c.3 2.2.4 4.3.4 6.5v.6z"/><path d="m459.3 325.3c-.8 1.5-1.7 3-2.7 4.3-.1.1-.2.2-.3.4l2.9.4 7.7-3.8z"/><path d="m457 285.4 17.3 3.6 8.8-7.7c-.9-2.7-1.9-5.4-3.1-8l-8.9 7.4-18-2.9c1.3 2.3 2.4 4.6 3.5 6.9.2.2.3.5.4.7z"/></g><path d="m420.4 270.6-76.4 38c-2.7 1.2-4.9 3.3-4.9 7.2 0 6.7 5.4 14.7 12 18.1 3.1 1.5 5.9 1.8 8 .9l78.5-38.7c-1.8-9.5-8.6-19.6-17.2-25.5z" fill="#2d3134"/><path d="m420.4 270.6-76.4 38c-2.7 1.2-4.9 3.3-4.9 7.2 0 6.7 5.4 14.7 12 18.1 3.1 1.5 5.9 1.8 8 .9l78.5-38.7c-1.8-9.5-8.6-19.6-17.2-25.5z" opacity=".29"/><path d="m481.1 238.1-63.3-32-20.1 5.3-40.1 20 20-5.2 63.4 32z" fill="#f90"/><path d="m417.8 206.1-20.1 5.3-40.1 20 20-5.2z" opacity=".1"/><path d="m315.1 258.3-3.4 34.7-46.7 14 10-28.6 40.4-20.4" fill="#f90"/><path d="m315.1 258.3-3.4 34.7-46.7 14 10-28.6 40.4-20.4" opacity=".29"/><path d="m332.2 275.6c-12.6-6.3-24.1-6.8-32.2-2.5l-23.3 11.7c-7.9 4.2-12.7 12.8-12.7 24.9 0 24.8 20.1 54.9 44.9 67.3 13.6 6.8 25.8 6.8 34 1.4l18.9-9.5c9.4-3.5 15.3-12.6 15.3-26.1 0-24.7-20.1-54.8-44.9-67.2z" fill="#2d3134"/><path d="m353.7 354.6c0 24.8-20.1 34.8-44.9 22.4s-44.9-42.5-44.9-67.3 20.1-34.8 44.9-22.4c24.9 12.4 44.9 42.5 44.9 67.3z" opacity=".11"/><path d="m310.9 286.2c-13.5-6.7-25.6-6.8-33.8-1.5 7.8-2.6 17.8-1.5 28.6 4 24.8 12.4 44.9 42.5 44.9 67.3 0 11.3-4.2 19.5-11.1 24 9.9-3.3 16.2-12.5 16.2-26.4.1-24.9-20-55-44.8-67.4z" fill="#fff" opacity=".1"/><path d="m330.9 343.2c0 12.1-9.8 17.1-22 11-12.1-6.1-22-20.8-22-33 0-12.1 9.8-17.1 22-11 12.1 6 22 20.8 22 33z" fill="#f90"/><path d="m329.1 342.3c0 11.2-9 15.7-20.2 10.1s-20.2-19.1-20.2-30.3 9-15.7 20.2-10.1c11.1 5.5 20.2 19.1 20.2 30.3z" fill="#f90"/><path d="m329.1 342.3c0 11.2-9 15.7-20.2 10.1s-20.2-19.1-20.2-30.3 9-15.7 20.2-10.1c11.1 5.5 20.2 19.1 20.2 30.3z" fill="#f90"/><path d="m329.1 342.3c0 11.2-9 15.7-20.2 10.1s-20.2-19.1-20.2-30.3 9-15.7 20.2-10.1c11.1 5.5 20.2 19.1 20.2 30.3z" opacity=".29"/><path d="m308.9 312c-11.2-5.6-20.2-1.1-20.2 10.1 0 6 2.6 12.8 6.8 18.6l28.5-14.2c-3.7-6.2-9.1-11.5-15.1-14.5z" opacity=".15"/><path d="m312.8 314.3-5.3 2.8c-2.5 1.1-4.4 3-4.4 6.6 0 6.1 4.9 13.5 11 16.5 2.8 1.4 5.4 1.6 7.3.8l7.2-3.5c-1.8-8.6-8-17.8-15.8-23.2z" fill="#f90"/><path d="m312.8 314.3-5.3 2.8c-2.5 1.1-4.4 3-4.4 6.6 0 6.1 4.9 13.5 11 16.5 2.8 1.4 5.4 1.6 7.3.8l7.2-3.5c-1.8-8.6-8-17.8-15.8-23.2z" opacity=".29"/><path d="m341.5 317.7c7.6 11.8 12.3 25 12.3 36.9 0 11.2-4.1 19.3-10.9 23.8l18.9-9.5c9.4-3.5 15.3-12.6 15.3-26.1 0-11.9-4.7-25.1-12.2-36.9z" opacity=".29"/><path d="m325 334.7c0 6.1-4.9 8.5-11 5.5s-11-10.4-11-16.5 4.9-8.5 11-5.5 11 10.4 11 16.5z" fill="#f90"/><g opacity=".5"><path d="m315.8 322.9c0 1-.8 1.4-1.8.9s-1.8-1.7-1.8-2.7.8-1.4 1.8-.9 1.8 1.7 1.8 2.7z"/><path d="m315.8 337.3c0 1-.8 1.4-1.8.9s-1.8-1.7-1.8-2.7.8-1.4 1.8-.9 1.8 1.7 1.8 2.7z"/><path d="m310.2 321c.7 1.1.7 2.2 0 2.5-.7.4-1.8-.2-2.5-1.3s-.7-2.2 0-2.5 1.8.2 2.5 1.3z"/><path d="m320.4 336.2c.7 1.1.7 2.2 0 2.5-.7.4-1.8-.2-2.5-1.3s-.7-2.2 0-2.5c.6-.3 1.8.2 2.5 1.3z"/><path d="m306.9 323.8c1 .5 1.8 1.7 1.8 2.7s-.8 1.4-1.8.9-1.8-1.7-1.8-2.7.8-1.4 1.8-.9z"/><path d="m321.2 331c1 .5 1.8 1.7 1.8 2.7s-.8 1.4-1.8.9-1.8-1.7-1.8-2.7.8-1.4 1.8-.9z"/><path d="m307.7 329.8c.7-.4 1.8.2 2.5 1.3s.7 2.2 0 2.5c-.7.4-1.8-.2-2.5-1.3-.7-1-.7-2.1 0-2.5z"/><path d="m317.8 324.8c.7-.4 1.8.2 2.5 1.3s.7 2.2 0 2.5c-.7.4-1.8-.2-2.5-1.3s-.7-2.2 0-2.5z"/></g><path d="m308.9 287.3c-24.8-12.4-44.9-2.3-44.9 22.4 0 24.8 20.1 54.9 44.9 67.3s44.9 2.3 44.9-22.4c-.1-24.8-20.1-54.9-44.9-67.3zm0 84.4c-21.8-10.9-39.5-37.4-39.5-59.2s17.7-30.7 39.5-19.7 39.5 37.4 39.5 59.2c0 21.7-17.7 30.6-39.5 19.7z" fill="#fff" opacity=".1"/><g opacity=".5"><path d="m305.6 289.2 7.2 3.6-3.6-5.4c-.1-.1-.2-.1-.3-.2-2.2-1.1-4.3-2-6.4-2.7z"/><path d="m312.8 375.4-7.2-3.6 2.7 4.9.6.3c2.1 1.1 4.2 1.9 6.2 2.7z"/><path d="m285.4 286.3 6.2-.5-4.9-3.8c-.1 0-.2 0-.3 0-1.9.1-3.7.5-5.3.9z"/><path d="m332.9 377.9-6.2.5 4.1 3.8h.5c1.8-.1 3.6-.5 5.2-.9z"/><path d="m271.4 295.6 3.6-4.4-4.9-1.1c-.1.1-.1.1-.2.2-1.1 1.3-2 2.8-2.8 4.4z"/><path d="m346.5 368.2-3.6 4.4 4.4 1.7c.1-.1.2-.2.3-.4 1.1-1.3 2-2.7 2.7-4.3z"/><path d="m267.7 314.7v-7.2l-3.6 1.8v.3c0 2.2.2 4.4.5 6.6z"/><path d="m350.2 348.8v7.2l3.6-.9c0-.2 0-.4 0-.6 0-2.1-.2-4.3-.4-6.5z"/><path d="m274.8 338.5-3.6-8-1.3 4.2c.1.1.1.2.1.3 1.1 2.4 2.3 4.8 3.6 7.1z"/><path d="m342.7 325 3.6 8 1.8-3.2c-.1-.2-.2-.5-.3-.7-1.1-2.4-2.2-4.7-3.5-6.9z"/><path d="m291.1 360.6-6.2-6.7 1.3 5.5.3.3c1.9 2 3.8 3.9 5.8 5.7z"/><path d="m326.1 303 6.2 6.7-.5-4.7c-.2-.2-.3-.4-.5-.6-1.8-2-3.7-3.8-5.6-5.6z"/></g><g opacity=".5"><path d="m301.8 272.3c-.6.3-1.2.5-1.8.8l-5.8 2.9-.6 1.1-12.4 5.8c1.7-.5 3.4-.8 5.3-.9h.3l12.5-5.3z"/><path d="m357.4 296c-1.4-1.6-2.8-3.2-4.2-4.7l-7 8.3-20.5-.7c1.9 1.7 3.8 3.6 5.6 5.6.2.2.3.4.5.6l18 .4z"/><path d="m308.9 287.3c.1.1.2.1.3.2l19.9-2 4.8-9c-.6-.3-1.1-.6-1.7-.9-1.3-.6-2.5-1.2-3.8-1.7l-4.6 7.9-21.4 2.7c2.2.8 4.3 1.7 6.5 2.8z"/><path d="m365.9 358.3 9.7-4.7c.7-2.4 1.2-5.1 1.4-8l-10.3 5.4-13.3-3.1c.3 2.2.4 4.3.4 6.5v.6z"/><path d="m350.4 369.7c-.8 1.5-1.7 3-2.7 4.3-.1.1-.2.2-.3.4l2.9.4 7.7-3.8z"/><path d="m348.1 329.7 17.3 3.6 8.8-7.7c-.9-2.7-1.9-5.4-3.1-8l-8.9 7.4-18-2.9c1.3 2.3 2.4 4.6 3.5 6.9.2.3.3.5.4.7z"/></g><path d="m443 257-58-30-48.7 24-21.2 7.3-40.1 20.1 21.1-7.3 58.9 30z" fill="#f90"/><path d="m336.3 251-21.2 7.3-40.1 20.1 21.1-7.3z" opacity=".1"/><path d="m356 106.7-94 47-12 111.3 26 13 31-17 37 18 94-47-10-89.3z" fill="#2d3134"/><path d="m311 252-35 19-16-8 12-93.3 58 29 10 67.3z" fill="#656565"/><path d="m272 169.7 58 29 10 67.3z" fill="#fff" opacity=".1"/><path d="m314 263.1-6-3v-85.4l6 3z" fill="#2d3134"/><path d="m433 224-9-68.3-86 43 9 68.3z" fill="#656565"/><path d="m340 198h90l-6-42z" opacity=".15"/><path d="m428 153.7v-11l-94 47v11z" fill="#2d3134"/><path d="m394.7 202.9-16.6 8.3c-6.9 3.5-11.3 10.6-11.3 18.3v26.5l7-3.5v.6l38.2-19.1v-22.6c0-12.4-14.2-10-17.3-8.5z" opacity=".2"/><path d="m272 169.7v7l19 2z" fill="#fff" opacity=".3"/><path d="m314 254 12-6v-29l6-11 8 58z" opacity=".15"/><path d="m334 192.7-72-39-12 111.3 26 13 31-17 37 18z" opacity=".11"/><path d="m438 232-10-89.3-94 47 10 89.3z" opacity=".29"/><path d="m354 97.7-94 47v15l76 38 94-47v-15z" fill="#f90"/><path d="m260 159.7v-15l76 38v15z" opacity=".11"/><path d="m430 150.7v-15l-94 47v15z" opacity=".29"/><path d="m493 230-10-5-10 5v85l10 5 10-5z" fill="#f90"/><path d="m483 320 10-5v-85l-10 5z" opacity=".29"/><path d="m483 320-10-5v-85l10 5z" opacity=".11"/><path d="m483 288-10-5-110 55v24.5l10 5 110-55z" fill="#f90"/><path d="m373 367.5 110-55v-24.5l-110 55z" opacity=".29"/><path d="m373 367.5-10-5v-24.5l10 5z" opacity=".11"/><path d="m483 246.5-10-5-110 55v24.5l10 5 110-55z" fill="#f90"/><path d="m373 326 110-55v-24.5l-110 55z" opacity=".29"/><path d="m373 326-10-5v-24.5l10 5z" opacity=".11"/><path d="m373 290-10-5-10 5v85l10 5 10-5z" fill="#f90"/><path d="m363 380 10-5v-85l-10 5z" opacity=".29"/><path d="m363 380-10-5v-85l10 5z" opacity=".11"/><path d="m247.9 149-4.2 6.7c2.1 1.3 3.3 3.5 3.3 5.9v38.4c0 1.5 1.8 2.6 4 2.6s4-1.2 4-2.6v-38.4c0-5.1-2.6-9.9-7.1-12.6z" fill="#2d3134"/><path d="m115 213-2 1v5l44-7 78 9 2-1v-11l-82-8z" fill="#f90"/><path d="m113 219v-5l40-12 82 8v11l-78-9z" opacity=".11"/><path d="m237 209v11l-2 1v-11z" opacity=".29"/><path d="m440 280 4 2 8 27-4 2-12-6v-23z" fill="#f90"/><path d="m444 282-4 2 8 27 4-2z" opacity=".29"/><path d="m436 282 4 2 8 27-12-6z" opacity=".11"/><path d="m457.8 230.3c1.6 1.3 3.4 1.6 4 .8l61.9-78.4c.6-.8-.1-2.5-1.7-3.7-1.6-1.3-3.4-1.6-4-.8l-61.9 78.4c-.6.8.1 2.4 1.7 3.7z" fill="#656565"/><path d="m460.1 227.4c1.6 1.3 2.4 2.9 1.7 3.7l61.9-78.4c.6-.8-.1-2.5-1.7-3.7-1.6-1.3-3.4-1.6-4-.8l-61.9 78.4c.6-.8 2.4-.4 4 .8z" opacity=".2"/><path d="m498 338.8-29 14.5 29 14.5 29-14.5z" fill="#f90"/><path d="m496 308.8 4-2 36 38v24.2l-4 2-13.1-6.5c-14.1-7-22.9-21.4-22.9-37.1z" fill="#f90"/><path d="m532 371-13.1-6.5c-14.1-7-22.9-21.4-22.9-37.1v-18.6l36 38z" opacity=".11"/><path d="m532 371 4-2v-24.2l-4 2z" opacity=".29"/><path d="m532 346.8-2-1-36 18v24.2l2 1 36-18z" fill="#f90"/><path d="m496 389 36-18v-24.2l-36 18z" opacity=".29"/><path d="m496 389-2-1v-24.2l2 1z" opacity=".11"/><path d="m498 309.8-2-1-36 18v30l2 1 36-18z" fill="#f90"/><path d="m462 357.8 36-18v-30l-36 18z" opacity=".29"/><path d="m462 357.8-2-1v-30l2 1z" opacity=".11"/><path d="m498 303.8-2-1h-2l-2 2v6l2 1 4-2z" fill="#f90"/><path d="m494 311.8 4-2v-6h-2l-2 2z" opacity=".29"/><path d="m494 311.8-2-1v-6l2 1z" opacity=".11"/><path d="m490 307.8-2-1h-2l-2 2v6l2 1 4-2z" fill="#f90"/><path d="m486 315.8 4-2v-6h-2l-2 2z" opacity=".29"/><path d="m486 315.8-2-1v-6l2 1z" opacity=".11"/><path d="m482 311.8-2-1h-2l-2 2v6l2 1 4-2z" fill="#f90"/><path d="m478 319.8 4-2v-6h-2l-2 2z" opacity=".29"/><path d="m478 319.8-2-1v-6l2 1z" opacity=".11"/><path d="m474 315.8-2-1h-2l-2 2v6l2 1 4-2z" fill="#f90"/><path d="m470 323.8 4-2v-6h-2l-2 2z" opacity=".29"/><path d="m470 323.8-2-1v-6l2 1z" opacity=".11"/><path d="m466 319.8-2-1h-2l-2 2v6l2 1 4-2z" fill="#f90"/><path d="m462 327.8 4-2v-6h-2l-2 2z" opacity=".29"/><path d="m462 327.8-2-1v-6l2 1z" opacity=".11"/><path d="m456 328.8 4-2 36 38v24.2l-4 2-13.1-6.5c-14.1-7-22.9-21.4-22.9-37.1z" fill="#f90"/><path d="m492 391-13.1-6.5c-14.1-7-22.9-21.4-22.9-37.1v-18.6l36 38z" opacity=".11"/><path d="m492 391 4-2v-24.2l-4 2z" opacity=".29"/><path d="m438 297 4 2v4l-18 9-2-7z" fill="#f90"/><path d="m442 299v4l-18 9v-4z" opacity=".29"/><path d="m542 161-10-5-37 22-2 1-55 104v17l2-1z" fill="#f90"/><path d="m438 300 2-1 102-138-2 1z" opacity=".29"/><path d="m438 300v-17l55-104 37-22 10 5z" opacity=".11"/><path d="m536 147-10-5-2 1v187l10 5 2-1 10-29v-141z" fill="#f90"/><path d="m534 335 2-1 10-29v-141l-10-17-2 1 10 17v141z" opacity=".29"/><path d="m534 335-10-5v-187l10 5 10 17v141z" opacity=".11"/><path d="m522.1 153v144.4c0 1.5 1.8 2.6 4 2.6s4-1.2 4-2.6v-144.4c-.1-5.2-8-2.5-8 0z" fill="#656565"/><path d="m522.1 153v144.4c0 1.5 1.8 2.6 4 2.6s4-1.2 4-2.6v-144.4c-.1-5.2-8-2.5-8 0z" opacity=".2"/><path d="m533 149-10-5-12 6v4l10 5 12-6z" fill="#f90"/><path d="m521 159 12-6v-4l-12 6z" opacity=".29"/><path d="m521 159-10-5v-4l10 5z" opacity=".11"/><path d="m543 172-4-2-12 6v18l4 2 12-6z" fill="#f90"/><path d="m531 196 12-6v-18l-12 6z" opacity=".29"/><path d="m531 196-4-2v-18l4 2z" opacity=".11"/><path d="m543 225-4-2-12 6v80l4 2 12-6z" fill="#f90"/><path d="m531 311 12-6v-80l-12 6z" opacity=".29"/><path d="m531 311-4-2v-80l4 2z" opacity=".11"/><path d="m533 327-10-5-12 6v44l10 5 12-6z" fill="#f90"/><path d="m521 377 12-6v-44l-12 6z" opacity=".29"/><path d="m521 377-10-5v-44l10 5z" opacity=".11"/><path d="m522 154-10-5-2 1v187l10 5 2-1 10-29v-141z" fill="#f90"/><path d="m520 342 2-1 10-29v-141l-10-17-2 1 10 17v141z" opacity=".29"/><path d="m520 342-10-5v-187l10 5 10 17v141z" opacity=".11"/><path d="m450.8 256.6c-3-1.5-6-1.6-6.8-.1l-20.4 39.2c-.8 1.5 1 4 4 5.5s6 1.6 6.8.1l20.4-39.2c.8-1.5-1-4-4-5.5z" fill="#f90"/><path d="m448 262c-3-1.5-4.8-4-4-5.5l-20.4 39.2c-.8 1.5 1 4 4 5.5s6 1.6 6.8.1l20.4-39.2c-.8 1.5-3.8 1.4-6.8-.1z" opacity=".2"/><path d="m463.5 231.7c-1.8-.9-3.6-1-4.1-.1l-13.3 26c-.5.9.6 2.4 2.4 3.3s3.6 1 4.1.1l13.3-26c.5-.9-.6-2.4-2.4-3.3z" fill="#656565"/><path d="m461.8 235c-1.8-.9-2.9-2.4-2.4-3.3l-13.3 26c-.5.9.6 2.4 2.4 3.3s3.6 1 4.1.1l13.3-26c-.4.8-2.3.8-4.1-.1z" opacity=".2"/><path d="m522 171-10-5-37 22-2 1-55 104v17l2-1z" fill="#f90"/><path d="m418 310 2-1 102-138-2 1z" opacity=".29"/><path d="m418 310v-17l55-104 37-22 10 5z" opacity=".11"/><path d="m418 291 4 2 8 27-4 2-12-6v-23z" fill="#f90"/><path d="m422 293-4 2 8 27 4-2z" opacity=".29"/><path d="m414 293 4 2 8 27-12-6z" opacity=".11"/></svg>