<svg enable-background="new 0 0 560 480" height="480" viewBox="0 0 560 480" width="560" xmlns="http://www.w3.org/2000/svg"><path d="m352 440 138-69-334-167-138 69z" fill="#262626" opacity=".3"/><path d="m58 38-2 1v6l65 147 16 8 2-1-27-85z" fill="#f90"/><path d="m56 45v-6l54 76 27 85-16-8z" opacity=".11"/><path d="m139 199-27-85-2 1 27 85z" opacity=".29"/><path d="m60 25-10-5-2 1-10 10v115l10 45 10 5 2-1z" fill="#f90"/><path d="m58 196 2-1v-170l-2 1z" opacity=".29"/><path d="m58 196-10-5-10-45v-115l10-10 10 5z" opacity=".11"/><path d="m103 201 18-9-53-123-18 9z" fill="#f90"/><path d="m109.3 146.1c-3.2 1.1-5.4 3.2-4.8 4.8l13.7 42c.5 1.6 3.5 2 6.8 1 3.2-1.1 5.4-3.2 4.8-4.8l-13.7-42c-.6-1.6-3.6-2-6.8-1z" fill="#f90"/><path d="m111.2 151.9c-3.2 1.1-6.2.6-6.8-1l13.7 42c.5 1.6 3.5 2 6.8 1 3.2-1.1 5.4-3.2 4.8-4.8l-13.7-42c.6 1.6-1.6 3.8-4.8 4.8z" opacity=".2"/><path d="m100.5 119.6c-1.9.6-3.2 1.9-2.9 2.9l9.2 27.7c.3 1 2.1 1.2 4.1.6 1.9-.6 3.2-1.9 2.9-2.9l-9.2-27.7c-.4-.9-2.2-1.2-4.1-.6z" fill="#656565"/><path d="m101.6 123.1c-1.9.6-3.7.4-4.1-.6l9.2 27.7c.3 1 2.1 1.2 4.1.6 1.9-.6 3.2-1.9 2.9-2.9l-9.2-27.7c.3 1-1 2.3-2.9 2.9z" opacity=".2"/><path d="m87 127.1c.9 1.7 2.3 2.8 3.2 2.3l17.9-9.3c.9-.4.9-2.2 0-3.9s-2.3-2.8-3.2-2.3l-17.9 9.2c-.9.5-.9 2.2 0 4z" fill="#656565"/><path d="m90.1 125.5c.9 1.7.9 3.5 0 3.9l17.9-9.3c.9-.4.9-2.2 0-3.9s-2.3-2.8-3.2-2.3l-17.8 9.2c.8-.4 2.3.6 3.1 2.4z" opacity=".2"/><path d="m45.3 34.2c-1.7 1.1-2.7 2.6-2.1 3.5l53.6 84.3c.5.9 2.4.7 4.1-.4s2.7-2.6 2.1-3.5l-53.6-84.3c-.5-.8-2.4-.6-4.1.4z" fill="#656565"/><path d="m47.3 37.3c-1.7 1.1-3.5 1.3-4.1.4l53.6 84.3c.5.9 2.4.7 4.1-.4s2.7-2.6 2.1-3.5l-53.6-84.3c.5.9-.4 2.4-2.1 3.5z" opacity=".2"/><path d="m57 27-10-5-12 6v4l10 5 12-6z" fill="#f90"/><path d="m45 37 12-6v-4l-12 6z" opacity=".29"/><path d="m45 37-10-5v-4l10 5z" opacity=".11"/><path d="m57 188-10-5-12 6v36l10 5 12-6z" fill="#f90"/><path d="m45 230 12-6v-36l-12 6z" opacity=".29"/><path d="m45 230-10-5v-36l10 5z" opacity=".11"/><path d="m43 43v142.4c0 1.5 1.8 2.6 4 2.6s4-1.2 4-2.6v-142.4c-.1-5.2-8-2.5-8 0z" fill="#656565"/><path d="m43 43v142.4c0 1.5 1.8 2.6 4 2.6s4-1.2 4-2.6v-142.4c-.1-5.2-8-2.5-8 0z" opacity=".2"/><path d="m46 32-10-5-2 1-10 10v115l10 45 10 5 2-1z" fill="#f90"/><path d="m44 203 2-1v-170l-2 1z" opacity=".29"/><path d="m44 203-10-5-10-45v-115l10-10 10 5z" opacity=".11"/><path d="m66 204.6 4-2 40-12.4v47.8l-4 2h-15.9s-13.2.4-18.7-9c-3.5-6-5.4-12.9-5.4-19.8z" fill="#f90"/><path d="m66 204.6v6.6c0 7 1.9 13.8 5.4 19.8 5.5 9.4 18.7 9 18.7 9h15.9v-47.8z" opacity=".11"/><path d="m106 192.2v47.8l4-2v-47.8z" opacity=".29"/><path d="m106 192-2-1-36 18v48l2 1 36-18z" fill="#f90"/><path d="m70 258 36-18v-48l-36 18z" opacity=".29"/><path d="m70 258-2-1v-48l2 1z" opacity=".11"/><path d="m68 205.4-2-1-36 18v24.2l2 1 36-18z" fill="#f90"/><path d="m32 247.6 36-18v-24.2l-36 18z" opacity=".29"/><path d="m32 247.6-2-1v-24.2l2 1z" opacity=".11"/><path d="m106 186-2-1h-2l-2 2v6l2 1 4-2z" fill="#f90"/><path d="m102 194 4-2v-6h-2l-2 2z" opacity=".29"/><path d="m102 194-2-1v-6l2 1z" opacity=".11"/><path d="m98 190-2-1h-2l-2 2v6l2 1 4-2z" fill="#f90"/><path d="m94 198 4-2v-6h-2l-2 2z" opacity=".29"/><path d="m94 198-2-1v-6l2 1z" opacity=".11"/><path d="m90 194-2-1h-2l-2 2v6l2 1 4-2z" fill="#f90"/><path d="m86 202 4-2v-6h-2l-2 2z" opacity=".29"/><path d="m86 202-2-1v-6l2 1z" opacity=".11"/><path d="m82 198-2-1h-2l-2 2v6l2 1 4-2z" fill="#f90"/><path d="m78 206 4-2v-6h-2l-2 2z" opacity=".29"/><path d="m78 206-2-1v-6l2 1z" opacity=".11"/><path d="m74 202-2-1h-2l-2 2v6l2 1 4-2z" fill="#f90"/><path d="m70 210 4-2v-6h-2l-2 2z" opacity=".29"/><path d="m70 210-2-1v-6l2 1z" opacity=".11"/><path d="m26 224.6 4-2 40-12.4v47.8l-4 2h-15.9s-13.2.4-18.7-9c-3.5-6-5.4-12.9-5.4-19.8z" fill="#f90"/><path d="m26 224.6v6.6c0 7 1.9 13.8 5.4 19.8 5.5 9.4 18.7 9 18.7 9h15.9v-47.8z" opacity=".11"/><path d="m66 212.2v47.8l4-2v-47.8z" opacity=".29"/><path d="m40 47-2 1v6l65 147 16 8 2-1-27-85z" fill="#f90"/><path d="m38 54v-6l54 76 27 85-16-8z" opacity=".11"/><path d="m121 208-27-85-2 1 27 85z" opacity=".29"/><path d="m225 133-10-5-10 5v85l10 5 10-5z" fill="#f90"/><path d="m215 223 10-5v-85l-10 5z" opacity=".29"/><path d="m215 223-10-5v-85l10 5z" opacity=".11"/><path d="m215 191-10-5-116 58v24.5l10 5 116-58z" fill="#f90"/><path d="m99 273.5 116-58v-24.5l-116 58z" opacity=".29"/><path d="m99 273.5-10-5v-24.5l10 5z" opacity=".11"/><path d="m215 149.5-10-5-116 58v24.5l10 5 116-58z" fill="#f90"/><path d="m99 232 116-58v-24.5l-116 58z" opacity=".29"/><path d="m99 232-10-5v-24.5l10 5z" opacity=".11"/><path d="m99 196-10-5-10 5v85l10 5 10-5z" fill="#f90"/><path d="m89 286 10-5v-85l-10 5z" opacity=".29"/><path d="m89 286-10-5v-85l10 5z" opacity=".11"/><path d="m368.7 242.4c-11.4-5.7-21.8-6.1-29.1-2.2l-21.1 10.6c-7.1 3.8-11.5 11.5-11.5 22.5 0 22.4 18.2 49.7 40.6 60.9 12.3 6.2 23.3 6.2 30.8 1.2l17.1-8.6c8.5-3.2 13.8-11.4 13.8-23.6 0-22.3-18.2-49.6-40.6-60.8z" fill="#2d3134"/><path d="m388.2 313.9c0 22.4-18.2 31.5-40.6 20.3s-40.6-38.5-40.6-60.9 18.2-31.5 40.6-20.3 40.6 38.5 40.6 60.9z" opacity=".11"/><path d="m349.4 252c-12.2-6.1-23.1-6.2-30.6-1.4 7-2.3 16.1-1.3 25.9 3.6 22.4 11.2 40.6 38.5 40.6 60.9 0 10.2-3.8 17.7-10 21.7 9-3 14.7-11.3 14.7-23.9 0-22.4-18.2-49.7-40.6-60.9z" fill="#fff" opacity=".1"/><g fill="#f90"><path d="m367.5 303.5c0 11-8.9 15.4-19.9 9.9s-19.9-18.9-19.9-29.8c0-11 8.9-15.4 19.9-9.9s19.9 18.9 19.9 29.8z"/><path d="m365.9 302.7c0 10.1-8.2 14.2-18.3 9.1-10.1-5-18.3-17.3-18.3-27.4s8.2-14.2 18.3-9.1 18.3 17.3 18.3 27.4z"/><path d="m365.9 302.7c0 10.1-8.2 14.2-18.3 9.1-10.1-5-18.3-17.3-18.3-27.4s8.2-14.2 18.3-9.1 18.3 17.3 18.3 27.4z"/></g><path d="m365.9 302.7c0 10.1-8.2 14.2-18.3 9.1-10.1-5-18.3-17.3-18.3-27.4s8.2-14.2 18.3-9.1 18.3 17.3 18.3 27.4z" opacity=".29"/><path d="m347.6 275.3c-10.1-5-18.3-1-18.3 9.1 0 5.5 2.4 11.6 6.2 16.8l25.8-12.9c-3.3-5.4-8.2-10.2-13.7-13z" opacity=".15"/><path d="m351.1 277.4-4.8 2.6c-2.2 1-4 2.7-4 6 0 5.5 4.5 12.2 9.9 14.9 2.6 1.3 4.9 1.5 6.6.8l6.5-3.1c-1.5-7.9-7.1-16.2-14.2-21.2z" fill="#f90"/><path d="m351.1 277.4-4.8 2.6c-2.2 1-4 2.7-4 6 0 5.5 4.5 12.2 9.9 14.9 2.6 1.3 4.9 1.5 6.6.8l6.5-3.1c-1.5-7.9-7.1-16.2-14.2-21.2z" opacity=".29"/><path d="m377.1 280.5c6.9 10.7 11.1 22.6 11.1 33.4 0 10.1-3.7 17.5-9.8 21.6l17.1-8.6c8.5-3.2 13.8-11.4 13.8-23.6 0-10.8-4.2-22.7-11.1-33.4z" opacity=".29"/><path d="m362.2 295.9c0 5.5-4.5 7.7-9.9 5-5.5-2.7-9.9-9.4-9.9-14.9s4.5-7.7 9.9-5c5.5 2.7 9.9 9.4 9.9 14.9z" fill="#f90"/><g opacity=".5"><path d="m353.9 285.2c0 .9-.7 1.3-1.6.8-.9-.4-1.6-1.5-1.6-2.4s.7-1.3 1.6-.8 1.6 1.5 1.6 2.4z"/><path d="m353.9 298.2c0 .9-.7 1.3-1.6.8-.9-.4-1.6-1.5-1.6-2.4s.7-1.3 1.6-.8c.9.4 1.6 1.5 1.6 2.4z"/><path d="m348.8 283.5c.6 1 .6 2 0 2.3s-1.7-.2-2.3-1.1-.6-2 0-2.3c.7-.4 1.7.1 2.3 1.1z"/><path d="m358 297.2c.6 1 .6 2 0 2.3s-1.7-.2-2.3-1.1-.6-2 0-2.3 1.7.2 2.3 1.1z"/><path d="m345.8 286.1c.9.4 1.6 1.5 1.6 2.4s-.7 1.3-1.6.8c-.9-.4-1.6-1.5-1.6-2.4-.1-.9.7-1.3 1.6-.8z"/><path d="m358.8 292.6c.9.4 1.6 1.5 1.6 2.4s-.7 1.3-1.6.8c-.9-.4-1.6-1.5-1.6-2.4-.1-.9.7-1.3 1.6-.8z"/><path d="m346.5 291.5c.6-.3 1.7.2 2.3 1.1s.6 2 0 2.3-1.7-.2-2.3-1.1c-.6-1-.6-2 0-2.3z"/><path d="m355.7 286.9c.6-.3 1.7.2 2.3 1.1.6 1 .6 2 0 2.3s-1.7-.2-2.3-1.1-.6-2 0-2.3z"/></g><path d="m347.6 253c-22.4-11.2-40.6-2.1-40.6 20.3s18.2 49.7 40.6 60.9 40.6 2.1 40.6-20.3-18.2-49.7-40.6-60.9zm0 76.3c-19.7-9.9-35.7-33.9-35.7-53.6s16-27.7 35.7-17.9c19.7 9.9 35.7 33.9 35.7 53.6s-16 27.8-35.7 17.9z" fill="#fff" opacity=".1"/><g opacity=".5"><path d="m344.6 254.8 6.5 3.2-3.2-4.9c-.1 0-.2-.1-.3-.1-2-1-3.9-1.8-5.8-2.5z"/><path d="m351.1 332.7-6.5-3.2 2.4 4.4.6.3c1.9 1 3.8 1.8 5.7 2.4z"/><path d="m326.3 252.1 5.6-.4-4.4-3.4c-.1 0-.2 0-.2 0-1.7.1-3.3.4-4.8.9z"/><path d="m369.3 335-5.6.4 3.7 3.4h.5c1.7-.1 3.2-.4 4.7-.8z"/><path d="m313.7 260.5 3.2-4-4.4-1c0 .1-.1.1-.1.2-1 1.2-1.8 2.5-2.5 4z"/><path d="m381.7 326.2-3.2 4 4 1.5c.1-.1.2-.2.3-.3 1-1.2 1.8-2.5 2.5-3.9z"/><path d="m310.3 277.8v-6.5l-3.2 1.6v.3c0 2 .1 4 .4 6z"/><path d="m385 308.7v6.5l3.2-.8c0-.2 0-.4 0-.5 0-1.9-.1-3.9-.4-5.9z"/><path d="m316.8 299.3-3.2-7.2-1.2 3.8c0 .1.1.2.1.3 1 2.2 2.1 4.4 3.3 6.5z"/><path d="m378.2 287.1 3.2 7.2 1.6-2.9c-.1-.2-.2-.4-.3-.6-1-2.1-2-4.2-3.2-6.3z"/><path d="m331.5 319.3-5.6-6.1 1.2 5c.1.1.2.2.2.3 1.7 1.8 3.5 3.6 5.2 5.2z"/><path d="m363.2 267.3 5.6 6.1-.5-4.3c-.2-.2-.3-.4-.5-.5-1.7-1.8-3.4-3.5-5.1-5z"/></g><g opacity=".5"><path d="m341.2 239.4c-.5.2-1.1.5-1.6.8l-5.3 2.6-.6 1-11.2 5.3c1.5-.4 3.1-.7 4.8-.9h.2l11.3-4.8z"/><path d="m391.5 260.8c-1.2-1.4-2.5-2.9-3.8-4.2l-6.4 7.5-18.5-.7c1.7 1.6 3.4 3.2 5.1 5l.5.5 16.3.4z"/><path d="m347.6 253c.1 0 .2.1.3.1l18-1.8 4.4-8.2c-.5-.3-1-.5-1.5-.8-1.2-.6-2.3-1.1-3.4-1.6l-4.2 7.2-19.3 2.5c1.8.8 3.7 1.6 5.7 2.6z"/><path d="m399.2 317.3 8.8-4.2c.7-2.2 1.1-4.6 1.3-7.2l-9.3 4.9-12-2.8c.3 2 .4 3.9.4 5.9v.5z"/><path d="m385.2 327.5c-.7 1.4-1.5 2.7-2.5 3.9-.1.1-.2.2-.3.3l2.6.4 7-3.5z"/><path d="m383 291.4 15.7 3.3 8-7c-.8-2.4-1.7-4.9-2.8-7.3l-8 6.7-16.3-2.6c1.1 2 2.2 4.1 3.2 6.3.1.2.2.4.2.6z"/></g><path d="m310 220-2 1v16l75 57 32 51 10 5 2-1-30-66z" fill="#f90"/><path d="m308 237v-16l87 63 30 66-10-5-32-51z" opacity=".11"/><path d="m427 349-30-66-2 1 30 66z" opacity=".29"/><path d="m140.2 219.3c-12.6-6.3-24.1-6.8-32.2-2.5l-23.3 11.7c-7.9 4.2-12.7 12.8-12.7 24.9 0 24.8 20.1 54.9 44.9 67.3 13.6 6.8 25.8 6.8 34 1.4l18.9-9.5c9.4-3.5 15.3-12.6 15.3-26.1 0-24.7-20.1-54.8-44.9-67.2z" fill="#2d3134"/><path d="m161.7 298.3c0 24.8-20.1 34.8-44.9 22.4s-44.8-42.5-44.8-67.2 20.1-34.8 44.9-22.4 44.8 42.4 44.8 67.2z" opacity=".11"/><path d="m118.9 229.9c-13.5-6.7-25.6-6.8-33.8-1.5 7.8-2.6 17.8-1.5 28.6 4 24.8 12.4 44.9 42.5 44.9 67.3 0 11.3-4.2 19.5-11.1 24 9.9-3.3 16.2-12.5 16.2-26.4.1-24.9-20-55-44.8-67.4z" fill="#fff" opacity=".1"/><path d="m138.9 286.9c0 12.1-9.8 17.1-22 11s-22-20.8-22-33c0-12.1 9.8-17.1 22-11 12.1 6.1 22 20.8 22 33z" fill="#f90"/><path d="m137.1 286c0 11.2-9 15.7-20.2 10.1s-20.2-19.1-20.2-30.3 9-15.7 20.2-10.1c11.1 5.6 20.2 19.1 20.2 30.3z" fill="#f90"/><path d="m137.1 286c0 11.2-9 15.7-20.2 10.1s-20.2-19.1-20.2-30.3 9-15.7 20.2-10.1c11.1 5.6 20.2 19.1 20.2 30.3z" fill="#f90"/><path d="m137.1 286c0 11.2-9 15.7-20.2 10.1s-20.2-19.1-20.2-30.3 9-15.7 20.2-10.1c11.1 5.6 20.2 19.1 20.2 30.3z" opacity=".29"/><path d="m116.9 255.7c-11.2-5.6-20.2-1.1-20.2 10.1 0 6 2.6 12.8 6.8 18.6l28.5-14.2c-3.7-6.1-9.1-11.5-15.1-14.5z" opacity=".15"/><path d="m120.8 258-5.3 2.8c-2.5 1.1-4.4 3-4.4 6.6 0 6.1 4.9 13.5 11 16.5 2.8 1.4 5.4 1.6 7.3.8l7.2-3.5c-1.8-8.5-8-17.7-15.8-23.2z" fill="#f90"/><path d="m120.8 258-5.3 2.8c-2.5 1.1-4.4 3-4.4 6.6 0 6.1 4.9 13.5 11 16.5 2.8 1.4 5.4 1.6 7.3.8l7.2-3.5c-1.8-8.5-8-17.7-15.8-23.2z" opacity=".29"/><path d="m149.5 261.4c7.6 11.8 12.3 25 12.3 36.9 0 11.2-4.1 19.3-10.9 23.8l18.9-9.5c9.4-3.5 15.3-12.6 15.3-26.1 0-11.9-4.7-25.1-12.2-36.9z" opacity=".29"/><path d="m133 278.4c0 6.1-4.9 8.5-11 5.5s-11-10.4-11-16.5 4.9-8.5 11-5.5 11 10.4 11 16.5z" fill="#f90"/><g opacity=".5"><path d="m123.8 266.6c0 1-.8 1.4-1.8.9s-1.8-1.7-1.8-2.7.8-1.4 1.8-.9 1.8 1.8 1.8 2.7z"/><path d="m123.8 281c0 1-.8 1.4-1.8.9s-1.8-1.7-1.8-2.7.8-1.4 1.8-.9 1.8 1.7 1.8 2.7z"/><path d="m118.2 264.7c.7 1.1.7 2.2 0 2.5-.7.4-1.8-.2-2.5-1.3s-.7-2.2 0-2.5 1.8.2 2.5 1.3z"/><path d="m128.4 279.9c.7 1.1.7 2.2 0 2.5s-1.8-.2-2.5-1.3-.7-2.2 0-2.5c.6-.3 1.8.3 2.5 1.3z"/><path d="m114.9 267.5c1 .5 1.8 1.7 1.8 2.7s-.8 1.4-1.8.9-1.8-1.7-1.8-2.7.8-1.4 1.8-.9z"/><path d="m129.2 274.7c1 .5 1.8 1.7 1.8 2.7s-.8 1.4-1.8.9-1.8-1.7-1.8-2.7.8-1.4 1.8-.9z"/><path d="m115.7 273.6c.7-.4 1.8.2 2.5 1.3s.7 2.2 0 2.5c-.7.4-1.8-.2-2.5-1.3-.7-1-.7-2.2 0-2.5z"/><path d="m125.8 268.5c.7-.4 1.8.2 2.5 1.3s.7 2.2 0 2.5-1.8-.2-2.5-1.3c-.7-1-.7-2.2 0-2.5z"/></g><path d="m116.9 231c-24.8-12.4-44.9-2.3-44.9 22.5s20.1 54.9 44.9 67.3 44.9 2.3 44.9-22.4c-.1-24.9-20.1-55-44.9-67.4zm0 84.4c-21.8-10.9-39.5-37.4-39.5-59.2s17.7-30.7 39.5-19.7c21.8 10.9 39.5 37.4 39.5 59.2s-17.7 30.6-39.5 19.7z" fill="#fff" opacity=".1"/><g opacity=".5"><path d="m113.6 233 7.2 3.6-3.6-5.4c-.1-.1-.2-.1-.3-.2-2.2-1.1-4.3-2-6.4-2.7z"/><path d="m120.8 319.1-7.2-3.6 2.7 4.9.6.3c2.1 1.1 4.2 1.9 6.2 2.7z"/><path d="m93.4 230 6.2-.5-4.9-3.8c-.1 0-.2 0-.3 0-1.9.1-3.7.5-5.3.9z"/><path d="m140.9 321.6-6.2.5 4.1 3.8h.5c1.8-.1 3.6-.5 5.2-.9z"/><path d="m79.4 239.3 3.6-4.4-4.9-1.1c-.1.1-.1.1-.2.2-1.1 1.3-2 2.8-2.8 4.4z"/><path d="m154.5 311.9-3.6 4.4 4.4 1.7c.1-.1.2-.2.3-.4 1.1-1.3 2-2.7 2.7-4.3z"/><path d="m75.7 258.5v-7.2l-3.6 1.8v.3c0 2.2.2 4.4.5 6.6z"/><path d="m158.2 292.6v7.2l3.6-.9c0-.2 0-.4 0-.6 0-2.1-.2-4.3-.4-6.5z"/><path d="m82.8 282.2-3.6-8-1.3 4.2c.1.1.1.2.1.3 1.1 2.4 2.3 4.8 3.6 7.1z"/><path d="m150.7 268.7 3.6 8 1.8-3.2c-.1-.2-.2-.5-.3-.7-1.1-2.4-2.2-4.7-3.5-6.9z"/><path d="m99.1 304.3-6.2-6.7 1.3 5.5.3.3c1.9 2 3.8 3.9 5.8 5.7z"/><path d="m134.1 246.8 6.2 6.7-.5-4.7c-.2-.2-.3-.4-.5-.6-1.8-2-3.7-3.8-5.6-5.6z"/></g><g opacity=".5"><path d="m109.8 216c-.6.3-1.2.5-1.8.8l-5.8 2.9-.6 1.1-12.4 5.8c1.7-.5 3.4-.8 5.3-.9h.3l12.5-5.3z"/><path d="m165.4 239.7c-1.4-1.6-2.8-3.2-4.2-4.7l-7 8.3-20.5-.7c1.9 1.7 3.8 3.6 5.6 5.6.2.2.3.4.5.6l18 .4z"/><path d="m116.9 231c.1.1.2.1.3.2l19.9-2 4.8-9c-.6-.3-1.1-.6-1.7-.9-1.3-.6-2.5-1.2-3.8-1.7l-4.6 7.9-21.4 2.7c2.2.8 4.3 1.7 6.5 2.8z"/><path d="m173.9 302.1 9.7-4.7c.7-2.4 1.2-5.1 1.4-8l-10.3 5.4-13.3-3.1c.3 2.2.4 4.3.4 6.5v.6z"/><path d="m158.4 313.4c-.8 1.5-1.7 3-2.7 4.3-.1.1-.2.2-.3.4l2.9.4 7.7-3.8z"/><path d="m156.1 273.5 17.3 3.6 8.8-7.7c-.9-2.7-1.9-5.4-3.1-8l-8.9 7.4-18-2.9c1.3 2.3 2.4 4.6 3.5 6.9.2.2.3.4.4.7z"/></g><path d="m170 209.9-41-20.9-40.2 20.1 41.1 20.9 20.1 30 40-20z" fill="#f90"/><path d="m190 240-20-30.1-40.1 20.1 20.1 30z" opacity=".1"/><path d="m214 79-94 47-8 71 41.9 21 19.1 29.8v58l33 16.2 94-47v-50l-12-109z" fill="#2d3134"/><path d="m183 257.6v-12.6l-22-34.6-39-19.5 6-49.9 62 31.1 12 94.9z" fill="#656565"/><path d="m160 212-6-3v-57l6 3z" fill="#2d3134"/><path d="m193 192-30.3 21.2 19.7 30.8 15.6-6z" opacity=".1"/><path d="m174 164-51.6 27.1 38.6 19.3 1.7 2.8 30.3-16.2-3-24.9z" fill="#fff" opacity=".1"/><path d="m120 126-8 71 41.9 21 19.1 29.8v58l33 16.2v-50l-12-109z" opacity=".11"/><path d="m296 224-11-95-86 43 11 95z" fill="#656565"/><path d="m200 179h91l-6-50-86 43z" fill="#fff" opacity=".15"/><path d="m288 127v-11l-94 47v11z" fill="#2d3134"/><path d="m300 275v-50l-12-109-94 47 12 109v50z" opacity=".29"/><path d="m212 70-94 47v15l78 39 94-47v-15z" fill="#f90"/><path d="m118 132v-15l78 39v15z" opacity=".11"/><path d="m214.4 154.7c0 2.9 2.4 4.1 5.3 2.7 2.9-1.5 5.3-5 5.3-8s-2.4-4.1-5.3-2.7c-2.9 1.5-5.3 5.1-5.3 8z" fill="#fff"/><path d="m263.4 130.6c0 2.9 2.4 4.1 5.3 2.7 2.9-1.5 5.3-5 5.3-8 0-2.9-2.4-4.1-5.3-2.7-2.9 1.5-5.3 5-5.3 8z" fill="#fff"/><path d="m288 120v-7l-12 6v7z" fill="#fc0"/><path d="m210 159v-7l-12 6v7z" fill="#fc0"/><ellipse cx="270.2" cy="126.5" fill="#2d3134" opacity=".3" rx="3.1" ry="2.1" transform="matrix(-.6313 .7756 -.7756 -.6313 538.8724 -3.2474)"/><ellipse cx="220.2" cy="150.5" fill="#2d3134" opacity=".3" rx="3.1" ry="2.1" transform="matrix(-.6313 .7756 -.7756 -.6313 475.922 74.6812)"/><path d="m290 124v-15l-94 47v15z" opacity=".29"/><path d="m200 251-17 6.8v-13l15-6.8z" opacity=".2"/><path d="m160 157v29.1l16.8 8.4 20.2 34.5-7-57z" opacity=".15"/><path d="m179 269-10 5v52l4 2 4-2 6-55z" fill="#f90"/><path d="m169 274 4 2v52l-4-2z" opacity=".11"/><path d="m183 271-10 5v52l4-2z" opacity=".29"/><path d="m181 282-8 4v4l18 9 4-10z" fill="#f90"/><path d="m173 286v4l18 9v-4z" opacity=".11"/><path d="m179 299-6 3v4l18 9 2-9z" fill="#f90"/><path d="m173 302v4l18 9v-4z" opacity=".11"/><path d="m177 316-4 2v4l18 9v-8z" fill="#f90"/><path d="m173 318v4l18 9v-4z" opacity=".11"/><path d="m201 280-10 5v52l4 2 4-2 6-55z" fill="#f90"/><path d="m191 285 4 2v52l-4-2z" opacity=".11"/><path d="m205 282-10 5v52l4-2z" opacity=".29"/><path d="m386 345v-11l-56 28v11z" fill="#f90"/><path d="m386 345v-11l-56 28v11z" opacity=".29"/><path d="m280 270 114 57-56 28-114-57z" fill="#2d3134"/><path d="m394 338v-11l-56 28v11z" fill="#f90"/><path d="m394 338v-11l-56 28v11z" opacity=".29"/><path d="m224 320v-22l114 57v11l-8-4v11z" fill="#f90"/><path d="m224 320v-22l114 57v11l-8-4v11z" opacity=".11"/><path d="m224 227 56-28 82 50.5c14.9 9 24 25.1 24 42.5v31l-56 28-106-53z" fill="#f90"/><path d="m322.6 297.3-7.6-3.8c-3.2-1.6-7 .7-7 4.3v25.6c0 5.3 3 10.1 7.7 12.4l10.8 5.4c2.2 1.1 4.9 1.1 7.1 0l52.4-26.2v-22.9c0-7.3-1.6-14.4-4.6-20.8l-51.9 26c-2.2 1.1-4.7 1.1-6.9 0z" fill="#2d3134"/><path d="m224 298v-71l82 50.5c14.9 9 24 25.1 24 42.5v31z" opacity=".11"/><path d="m350 308.3v-5c0-2-2.1-3.3-3.9-2.4l-12.6 6.3c-.9.5-1.5 1.4-1.5 2.4v5c0 2 2.1 3.3 3.9 2.4l12.6-6.3c.9-.4 1.5-1.3 1.5-2.4z" fill="#fff"/><ellipse cx="344.2" cy="307.4" fill="#2d3134" opacity=".3" rx="4.9" ry="3.2" transform="matrix(-.6313 .7756 -.7756 -.6313 799.9012 234.4486)"/><ellipse cx="338" cy="310.4" fill="#2d3134" opacity=".3" rx="4.9" ry="3.2" transform="matrix(-.6313 .7756 -.7756 -.6313 792.0521 244.1803)"/><path d="m349.4 309.9-16.9-1.9c-.3.5-.6 1-.6 1.6v5c0 2 2.1 3.3 3.9 2.4l12.6-6.3c.5-.1.8-.4 1-.8z" fill="#fff" opacity=".3"/><path d="m384 291.3v-5c0-2-2.1-3.3-3.9-2.4l-12.6 6.3c-.9.5-1.5 1.4-1.5 2.4v5c0 2 2.1 3.3 3.9 2.4l12.6-6.3c.9-.4 1.5-1.3 1.5-2.4z" fill="#fff"/><ellipse cx="378.2" cy="290.4" fill="#2d3134" opacity=".3" rx="4.9" ry="3.2" transform="matrix(-.6313 .7756 -.7756 -.6313 842.1801 180.3479)"/><ellipse cx="372" cy="293.4" fill="#2d3134" opacity=".3" rx="4.9" ry="3.2" transform="matrix(-.6313 .7756 -.7756 -.6313 834.3309 190.0796)"/><path d="m383.4 292.9-16.9-1.9c-.3.5-.6 1-.6 1.6v5c0 2 2.1 3.3 3.9 2.4l12.6-6.3c.5-.1.8-.4 1-.8z" fill="#fff" opacity=".3"/><path d="m381.4 270.8-55.4 27.7-.9-.5c3.2 6.6 4.9 13.9 4.9 21.5v30.9l56-28v-30.9c0-7.2-1.6-14.3-4.6-20.7z" opacity=".29"/><path d="m372.5 262.4-49.3 23.9c-2.1 1-2.8 3.7-1.5 5.7v.1c1.1 1.6 3.2 2.1 4.9 1.3l49.3-23.9c2.1-1 2.9-3.7 1.6-5.7 0 0 0 0 0-.1-1.1-1.6-3.2-2.2-5-1.3z" fill="#fff" opacity=".1"/><path d="m268.7 293.8c-11.4-5.7-21.8-6.1-29.1-2.2l-21.1 10.6c-7.1 3.8-11.5 11.5-11.5 22.5 0 22.4 18.2 49.7 40.6 60.9 12.3 6.2 23.3 6.2 30.8 1.2l17.1-8.6c8.5-3.2 13.8-11.4 13.8-23.6 0-22.3-18.2-49.6-40.6-60.8z" fill="#2d3134"/><path d="m288.2 365.3c0 22.4-18.2 31.5-40.6 20.3s-40.6-38.5-40.6-60.9 18.2-31.5 40.6-20.3 40.6 38.5 40.6 60.9z" opacity=".11"/><path d="m249.4 303.4c-12.2-6.1-23.1-6.2-30.6-1.4 7-2.3 16.1-1.3 25.9 3.6 22.4 11.2 40.6 38.5 40.6 60.9 0 10.2-3.8 17.7-10 21.7 9-3 14.7-11.3 14.7-23.9 0-22.5-18.2-49.7-40.6-60.9z" fill="#fff" opacity=".1"/><path d="m267.5 354.9c0 11-8.9 15.4-19.9 9.9s-19.9-18.9-19.9-29.8c0-11 8.9-15.4 19.9-9.9s19.9 18.8 19.9 29.8z" fill="#f90"/><path d="m265.9 354.1c0 10.1-8.2 14.2-18.3 9.1-10.1-5-18.3-17.3-18.3-27.4s8.2-14.2 18.3-9.1 18.3 17.3 18.3 27.4z" fill="#f90"/><path d="m265.9 354.1c0 10.1-8.2 14.2-18.3 9.1-10.1-5-18.3-17.3-18.3-27.4s8.2-14.2 18.3-9.1 18.3 17.3 18.3 27.4z" fill="#f90"/><path d="m265.9 354.1c0 10.1-8.2 14.2-18.3 9.1-10.1-5-18.3-17.3-18.3-27.4s8.2-14.2 18.3-9.1 18.3 17.3 18.3 27.4z" opacity=".29"/><path d="m247.6 326.7c-10.1-5-18.3-1-18.3 9.1 0 5.5 2.4 11.6 6.2 16.8l25.8-12.9c-3.3-5.4-8.2-10.3-13.7-13z" opacity=".15"/><path d="m251.1 328.8-4.8 2.6c-2.2 1-4 2.7-4 6 0 5.5 4.5 12.2 9.9 14.9 2.6 1.3 4.9 1.5 6.6.8l6.5-3.1c-1.5-7.9-7.1-16.2-14.2-21.2z" fill="#f90"/><path d="m251.1 328.8-4.8 2.6c-2.2 1-4 2.7-4 6 0 5.5 4.5 12.2 9.9 14.9 2.6 1.3 4.9 1.5 6.6.8l6.5-3.1c-1.5-7.9-7.1-16.2-14.2-21.2z" opacity=".29"/><path d="m277.1 331.9c6.9 10.7 11.1 22.6 11.1 33.4 0 10.1-3.7 17.5-9.8 21.6l17.1-8.6c8.5-3.2 13.8-11.4 13.8-23.6 0-10.8-4.2-22.7-11.1-33.4z" opacity=".29"/><path d="m262.2 347.3c0 5.5-4.5 7.7-9.9 5-5.5-2.7-9.9-9.4-9.9-14.9s4.5-7.7 9.9-5c5.5 2.7 9.9 9.4 9.9 14.9z" fill="#f90"/><g opacity=".5"><path d="m253.9 336.6c0 .9-.7 1.3-1.6.8s-1.6-1.5-1.6-2.4.7-1.3 1.6-.8 1.6 1.5 1.6 2.4z"/><path d="m253.9 349.6c0 .9-.7 1.3-1.6.8s-1.6-1.5-1.6-2.4.7-1.3 1.6-.8 1.6 1.5 1.6 2.4z"/><path d="m248.8 334.9c.6 1 .6 2 0 2.3s-1.7-.2-2.3-1.1c-.6-1-.6-2 0-2.3.7-.4 1.7.1 2.3 1.1z"/><path d="m258 348.6c.6 1 .6 2 0 2.3s-1.7-.2-2.3-1.1c-.6-1-.6-2 0-2.3s1.7.2 2.3 1.1z"/><path d="m245.8 337.4c.9.4 1.6 1.5 1.6 2.4s-.7 1.3-1.6.8-1.6-1.5-1.6-2.4.7-1.2 1.6-.8z"/><path d="m258.8 343.9c.9.4 1.6 1.5 1.6 2.4s-.7 1.3-1.6.8c-.9-.4-1.6-1.5-1.6-2.4s.7-1.2 1.6-.8z"/><path d="m246.5 342.9c.6-.3 1.7.2 2.3 1.1.6 1 .6 2 0 2.3s-1.7-.2-2.3-1.1c-.6-1-.6-2 0-2.3z"/><path d="m255.7 338.3c.6-.3 1.7.2 2.3 1.1s.6 2 0 2.3-1.7-.2-2.3-1.1c-.6-1-.6-2 0-2.3z"/></g><path d="m247.6 304.4c-22.4-11.2-40.6-2.1-40.6 20.3s18.2 49.7 40.6 60.9 40.6 2.1 40.6-20.3-18.2-49.7-40.6-60.9zm0 76.3c-19.7-9.9-35.7-33.9-35.7-53.6s16-27.7 35.7-17.9 35.7 33.9 35.7 53.6c0 19.8-16 27.8-35.7 17.9z" fill="#fff" opacity=".1"/><g opacity=".5"><path d="m244.6 306.2 6.5 3.2-3.2-4.9c-.1 0-.2-.1-.3-.1-2-1-3.9-1.8-5.8-2.5z"/><path d="m251.1 384.1-6.5-3.2 2.4 4.4c.2.1.4.2.6.3 1.9 1 3.8 1.8 5.7 2.4z"/><path d="m226.3 303.5 5.6-.4-4.4-3.4c-.1 0-.2 0-.2 0-1.7.1-3.3.4-4.8.9z"/><path d="m269.3 386.4-5.6.4 3.7 3.4h.5c1.7-.1 3.2-.4 4.7-.8z"/><path d="m213.7 311.9 3.2-4-4.4-1c0 .1-.1.1-.1.2-1 1.2-1.8 2.5-2.5 4z"/><path d="m281.7 377.6-3.2 4 4 1.5.3-.3c1-1.2 1.8-2.5 2.5-3.9z"/><path d="m210.3 329.2v-6.5l-3.2 1.6v.3c0 2 .1 4 .4 6z"/><path d="m285 360.1v6.5l3.2-.8c0-.2 0-.4 0-.5 0-1.9-.1-3.9-.4-5.9z"/><path d="m216.8 350.7-3.2-7.2-1.2 3.8c0 .1.1.2.1.3 1 2.2 2.1 4.4 3.3 6.5z"/><path d="m278.2 338.5 3.2 7.2 1.6-2.9c-.1-.2-.2-.4-.3-.6-1-2.1-2-4.2-3.2-6.3z"/><path d="m231.5 370.7-5.6-6.1 1.2 5c.1.1.2.2.2.3 1.7 1.8 3.5 3.6 5.2 5.2z"/><path d="m263.2 318.6 5.6 6.1-.5-4.3c-.2-.2-.3-.4-.5-.5-1.7-1.8-3.4-3.5-5.1-5z"/></g><g opacity=".5"><path d="m241.2 290.8c-.5.2-1.1.5-1.6.8l-5.3 2.6-.6 1-11.2 5.3c1.5-.4 3.1-.7 4.8-.9h.2l11.3-4.8z"/><path d="m291.5 312.2c-1.2-1.4-2.5-2.9-3.8-4.2l-6.4 7.5-18.5-.7c1.7 1.6 3.4 3.2 5.1 5l.5.5 16.3.4z"/><path d="m247.6 304.4c.1 0 .2.1.3.1l18-1.8 4.4-8.2c-.5-.3-1-.5-1.5-.8-1.2-.6-2.3-1.1-3.4-1.6l-4.2 7.2-19.3 2.5c1.8.8 3.7 1.6 5.7 2.6z"/><path d="m299.2 368.7 8.8-4.2c.7-2.2 1.1-4.6 1.3-7.2l-9.3 4.9-12-2.8c.3 2 .4 3.9.4 5.9v.5z"/><path d="m285.2 378.9c-.7 1.4-1.5 2.7-2.5 3.9-.1.1-.2.2-.3.3l2.6.4 7-3.5z"/><path d="m283 342.8 15.7 3.3 8-7c-.8-2.4-1.7-4.9-2.8-7.3l-8 6.7-16.3-2.6c1.1 2 2.2 4.1 3.2 6.3.1.2.2.4.2.6z"/></g><path d="m244.9 178.3-4.2 6.7c2.1 1.3 3.3 3.5 3.3 5.9v38.4c0 1.5 1.8 2.6 4 2.6s4-1.2 4-2.6v-38.3c0-5.2-2.6-9.9-7.1-12.7z" fill="#2d3134"/><path d="m251 249-2 1v16l75 57 32 51 10 5 2-1-30-66z" fill="#f90"/><path d="m249 266v-16l87 63 30 66-10-5-32-51z" opacity=".11"/><path d="m368 378-30-66-2 1 30 66z" opacity=".29"/><path d="m470 300-130 65-20 20v35l30 15 130-65z" fill="#f90"/><path d="m470 300 10 70-30-15v-35z" opacity=".11"/><path d="m470 300-130 65-20 20 130-65z" opacity=".35"/><path d="m450 355-130 65v-35l130-65z" opacity=".29"/><path d="m470 300-130 65 10 70 130-65zm-128.9 65.6 128.1-64.1 9.7 67.9-128.1 64.1z" fill="#f90"/><path d="m470 300-130 65 10 70 130-65zm-128.9 65.6 128.1-64.1 9.7 67.9-128.1 64.1z" opacity=".29"/><path d="m463 368 16 8h4v-3l-16-8-4 2z" fill="#f90"/><path d="m463 368 16 8h4v-1h-4l-16-8z" opacity=".11"/><path d="m443 378 16 8h4v-3l-16-8-4 2z" fill="#f90"/><path d="m443 378 16 8h4v-1h-4l-16-8z" opacity=".11"/><path d="m423 388 16 8h4v-3l-16-8-4 2z" fill="#f90"/><path d="m423 388 16 8h4v-1h-4l-16-8z" opacity=".11"/><path d="m403 398 16 8h4v-3l-16-8-4 2z" fill="#f90"/><path d="m403 398 16 8h4v-1h-4l-16-8z" opacity=".11"/><path d="m383 408 16 8h4v-3l-16-8-4 2z" fill="#f90"/><path d="m383 408 16 8h4v-1h-4l-16-8z" opacity=".11"/><path d="m363 418 16 8h4v-3l-16-8-4 2z" fill="#f90"/><path d="m363 418 16 8h4v-1h-4l-16-8z" opacity=".11"/><path d="m453 373 16 8h4v-3l-16-8-4 2z" fill="#f90"/><path d="m453 373 16 8h4v-1h-4l-16-8z" opacity=".11"/><path d="m433 383 16 8h4v-3l-16-8-4 2z" fill="#f90"/><path d="m433 383 16 8h4v-1h-4l-16-8z" opacity=".11"/><path d="m413 393 16 8h4v-3l-16-8-4 2z" fill="#f90"/><path d="m413 393 16 8h4v-1h-4l-16-8z" opacity=".11"/><path d="m393 403 16 8h4v-3l-16-8-4 2z" fill="#f90"/><path d="m393 403 16 8h4v-1h-4l-16-8z" opacity=".11"/><path d="m373 413 16 8h4v-3l-16-8-4 2z" fill="#f90"/><path d="m373 413 16 8h4v-1h-4l-16-8z" opacity=".11"/><path d="m349.7 425.9.8 5.3 9.5 4.8h4v-3z" fill="#f90"/><path d="m353 423 16 8h4v-3l-16-8-4 2z" fill="#f90"/><path d="m353 423 16 8h4v-1h-4l-16-8z" opacity=".11"/><path d="m360 435-9.7-4.8.2 1 9.5 4.8h4v-1z" opacity=".11"/><path d="m340 365 10 70-30-15v-35z" fill="#f90"/><path d="m340 365 10 70-30-15v-35z" opacity=".11"/></svg>