<?xml version="1.0" encoding="UTF-8" standalone="no"?>
<!-- Generator: Adobe Illustrator 18.1.0, SVG Export Plug-In . SVG Version: 6.00 Build 0)  -->

<svg
   xmlns:dc="http://purl.org/dc/elements/1.1/"
   xmlns:cc="http://creativecommons.org/ns#"
   xmlns:rdf="http://www.w3.org/1999/02/22-rdf-syntax-ns#"
   xmlns:svg="http://www.w3.org/2000/svg"
   xmlns="http://www.w3.org/2000/svg"
   xmlns:sodipodi="http://sodipodi.sourceforge.net/DTD/sodipodi-0.dtd"
   xmlns:inkscape="http://www.inkscape.org/namespaces/inkscape"
   version="1.1"
   id="Layer_1"
   x="0px"
   y="0px"
   viewBox="0 0 592 360"
   enable-background="new 0 0 592 360"
   xml:space="preserve"
   sodipodi:docname="durable_goods_warehouse_16x21.svg"
   inkscape:version="0.92.4 (5da689c313, 2019-01-14)"><metadata
   id="metadata9623"><rdf:RDF><cc:Work
       rdf:about=""><dc:format>image/svg+xml</dc:format><dc:type
         rdf:resource="http://purl.org/dc/dcmitype/StillImage" /><dc:title></dc:title></cc:Work></rdf:RDF></metadata><defs
   id="defs9621" /><sodipodi:namedview
   pagecolor="#ffffff"
   bordercolor="#666666"
   borderopacity="1"
   objecttolerance="10"
   gridtolerance="10"
   guidetolerance="10"
   inkscape:pageopacity="0"
   inkscape:pageshadow="2"
   inkscape:window-width="1366"
   inkscape:window-height="705"
   id="namedview9619"
   showgrid="true"
   inkscape:zoom="0.91016109"
   inkscape:cx="305.75897"
   inkscape:cy="146.17808"
   inkscape:window-x="-8"
   inkscape:window-y="-8"
   inkscape:window-maximized="1"
   inkscape:current-layer="Layer_1"><inkscape:grid
     type="axonomgrid"
     id="grid9627"
     units="px"
     empspacing="5"
     spacingy="16"
     gridanglex="26.57"
     gridanglez="26.57" /></sodipodi:namedview>
<g
   id="g9907"><path
     inkscape:connector-curvature="0"
     id="path9629"
     d="m 111.97582,288 143.96891,72 15.99655,-8 5.52553,-13.23664 -117.50135,-62.81441 z"
     style="fill:#656565;stroke:none;stroke-width:1px;stroke-linecap:butt;stroke-linejoin:miter;stroke-opacity:1;fill-opacity:1" /><g
     id="g9616">
	<g
   id="g9096">
		<polygon
   id="polygon9068"
   points="400,224 464,256 272,352 208,320   "
   fill="#656565" />
		<polygon
   id="polygon9070"
   points="400,224 464,256 272,352 208,320   "
   fill="#656565" />
		<polygon
   id="polygon9072"
   points="426,272.5 366,242.5 365,243 425,273   "
   fill="#FFCC00"
   opacity="0.7" />
		<g
   id="g9076">
			<polygon
   id="polygon9074"
   points="406,282.5 346,252.5 345,253 405,283    "
   fill="#FFCC00"
   opacity="0.7" />
		</g>
		<polygon
   id="polygon9078"
   points="330,320.5 270,290.5 269,291 329,321   "
   fill="#FFCC00"
   opacity="0.7" />
		<g
   id="g9082">
			<polygon
   id="polygon9080"
   points="310,330.5 250,300.5 249,301 309,331    "
   fill="#FFCC00"
   opacity="0.7" />
		</g>
		<polygon
   id="polygon9084"
   points="394,288.5 334,258.5 333,259 393,289   "
   fill="#FFCC00"
   opacity="0.7" />
		<polygon
   id="polygon9086"
   points="362,304.5 302,274.5 301,275 361,305   "
   fill="#FFCC00"
   opacity="0.7" />
		<g
   id="g9090">
			<polygon
   id="polygon9088"
   points="342,314.5 282,284.5 281,285 341,315    "
   fill="#FFCC00"
   opacity="0.7" />
		</g>
		<g
   id="g9094">
			<polygon
   id="polygon9092"
   points="374,298.5 314,268.5 313,269 373,299    "
   fill="#FFCC00"
   opacity="0.7" />
		</g>
	</g>
	<g
   id="g9104">
		<polygon
   id="polygon9098"
   points="400,160 400,224 464,256 592,192 592,128   "
   fill="#E5E5E5" />
		<polygon
   id="polygon9100"
   points="464,256 400,224 400,160 464,192   "
   opacity="0.11" />
		<polygon
   id="polygon9102"
   points="464,256 592,192 592,128 464,192   "
   opacity="0.29" />
	</g>
	<g
   id="g9164">
		<polygon
   id="polygon9106"
   points="0,168 0,232 64,264 128,232 128,168   "
   fill="#E5E5E5" />
		<polygon
   id="polygon9108"
   points="64,264 128,232 128,168 64,200   "
   opacity="0.29" />
		<g
   id="g9134">
			<g
   id="g9120">
				<polygon
   id="polygon9110"
   points="37,203 55,212 55,204 37,195     "
   fill="#FFFFFF" />
				<polygon
   id="polygon9112"
   points="38,202.5 54,210.5 54,204.5 38,196.5     "
   fill="#3399CC" />
				<polygon
   id="polygon9114"
   points="38,199.5 54,207.5 54,204.5 38,196.5     "
   opacity="0.15" />
				<polygon
   id="polygon9116"
   points="38,197.5 54,205.5 54,204.5 38,196.5     "
   opacity="0.15" />
				<polygon
   id="polygon9118"
   points="38,202.5 54,204.5 38,196.5     "
   opacity="0.15" />
			</g>
			<g
   id="g9132">
				<polygon
   id="polygon9122"
   points="5,187 23,196 23,188 5,179     "
   fill="#FFFFFF" />
				<polygon
   id="polygon9124"
   points="6,186.5 22,194.5 22,188.5 6,180.5     "
   fill="#3399CC" />
				<polygon
   id="polygon9126"
   points="6,183.5 22,191.5 22,188.5 6,180.5     "
   opacity="0.15" />
				<polygon
   id="polygon9128"
   points="6,181.5 22,189.5 22,188.5 6,180.5     "
   opacity="0.15" />
				<polygon
   id="polygon9130"
   points="6,186.5 22,188.5 6,180.5     "
   opacity="0.15" />
			</g>
		</g>
		<g
   id="g9160">
			<g
   id="g9146">
				<polygon
   id="polygon9136"
   points="37,235 55,244 55,236 37,227     "
   fill="#FFFFFF" />
				<polygon
   id="polygon9138"
   points="38,234.5 54,242.5 54,236.5 38,228.5     "
   fill="#3399CC" />
				<polygon
   id="polygon9140"
   points="38,231.5 54,239.5 54,236.5 38,228.5     "
   opacity="0.15" />
				<polygon
   id="polygon9142"
   points="38,229.5 54,237.5 54,236.5 38,228.5     "
   opacity="0.15" />
				<polygon
   id="polygon9144"
   points="38,234.5 54,236.5 38,228.5     "
   opacity="0.15" />
			</g>
			<g
   id="g9158">
				<polygon
   id="polygon9148"
   points="5,219 23,228 23,220 5,211     "
   fill="#FFFFFF" />
				<polygon
   id="polygon9150"
   points="6,218.5 22,226.5 22,220.5 6,212.5     "
   fill="#3399CC" />
				<polygon
   id="polygon9152"
   points="6,215.5 22,223.5 22,220.5 6,212.5     "
   opacity="0.15" />
				<polygon
   id="polygon9154"
   points="6,213.5 22,221.5 22,220.5 6,212.5     "
   opacity="0.15" />
				<polygon
   id="polygon9156"
   points="6,218.5 22,220.5 6,212.5     "
   opacity="0.15" />
			</g>
		</g>
		<polygon
   id="polygon9162"
   points="64,264 0,232 0,168 64,200   "
   opacity="0.11" />
	</g>
	<polygon
   id="polygon9166"
   points="80,192 80,256 208,320 400,224 400,160  "
   fill="#E5E5E5" />
	<g
   id="g9192">
		<g
   id="g9178">
			<polygon
   id="polygon9168"
   points="363,195 345,204 345,196 363,187    "
   fill="#FFFFFF" />
			<polygon
   id="polygon9170"
   points="362,194.5 346,202.5 346,196.5 362,188.5    "
   fill="#3399CC" />
			<polygon
   id="polygon9172"
   points="362,191.5 346,199.5 346,196.5 362,188.5    "
   opacity="0.15" />
			<polygon
   id="polygon9174"
   points="362,189.5 346,197.5 346,196.5 362,188.5    "
   opacity="0.15" />
			<polygon
   id="polygon9176"
   points="362,194.5 346,196.5 362,188.5    "
   opacity="0.15" />
		</g>
		<g
   id="g9190">
			<polygon
   id="polygon9180"
   points="395,179 377,188 377,180 395,171    "
   fill="#FFFFFF" />
			<polygon
   id="polygon9182"
   points="394,178.5 378,186.5 378,180.5 394,172.5    "
   fill="#3399CC" />
			<polygon
   id="polygon9184"
   points="394,175.5 378,183.5 378,180.5 394,172.5    "
   opacity="0.15" />
			<polygon
   id="polygon9186"
   points="394,173.5 378,181.5 378,180.5 394,172.5    "
   opacity="0.15" />
			<polygon
   id="polygon9188"
   points="394,178.5 378,180.5 394,172.5    "
   opacity="0.15" />
		</g>
	</g>
	<g
   id="g9214">
		<polygon
   id="polygon9194"
   points="380,232 390,227 390,209 380,214   "
   fill="#FFFFFF" />
		<polygon
   id="polygon9196"
   points="389,210.5 381,214.5 381,231.5 389,227.5   "
   fill="#656565" />
		<polygon
   id="polygon9198"
   points="381,230.5 389,226.5 389,225.5 381,229.5   "
   fill="#FFFFFF"
   opacity="0.25" />
		<polygon
   id="polygon9200"
   points="381,228.5 389,224.5 389,223.5 381,227.5   "
   fill="#FFFFFF"
   opacity="0.25" />
		<polygon
   id="polygon9202"
   points="381,226.5 389,222.5 389,221.5 381,225.5   "
   fill="#FFFFFF"
   opacity="0.25" />
		<polygon
   id="polygon9204"
   points="381,224.5 389,220.5 389,219.5 381,223.5   "
   fill="#FFFFFF"
   opacity="0.25" />
		<polygon
   id="polygon9206"
   points="381,222.5 389,218.5 389,217.5 381,221.5   "
   fill="#FFFFFF"
   opacity="0.25" />
		<polygon
   id="polygon9208"
   points="381,220.5 389,216.5 389,215.5 381,219.5   "
   fill="#FFFFFF"
   opacity="0.25" />
		<polygon
   id="polygon9210"
   points="381,218.5 389,214.5 389,213.5 381,217.5   "
   fill="#FFFFFF"
   opacity="0.25" />
		<polygon
   id="polygon9212"
   points="381,216.5 389,212.5 389,211.5 381,215.5   "
   fill="#FFFFFF"
   opacity="0.25" />
	</g>
	<polygon
   id="polygon9216"
   points="336,0 0,168 64,200 80,192 208,256 400,160 464,192 592,128  "
   fill="#2D3134" />
	<polygon
   id="polygon9218"
   points="336,0 0,168 64,200 80,192 208,256 400,160 464,192 592,128  "
   fill="#2D3134" />
	<g
   id="g9260">
		<g
   id="g9258">
			<g
   id="g9242">
				<polygon
   id="polygon9220"
   points="251,297 249,298 249,276 267,267 267,289 265,290 265,273 251,280     "
   fill="#2D3134" />
				<g
   id="g9240">
					<polygon
   id="polygon9222"
   points="265,273 251,280 251,296 265,289      "
   fill="#656565" />
					<polygon
   id="polygon9224"
   points="251,295 265,288 265,287 251,294      "
   fill="#FFFFFF"
   opacity="0.25" />
					<polygon
   id="polygon9226"
   points="251,293 265,286 265,285 251,292      "
   fill="#FFFFFF"
   opacity="0.25" />
					<polygon
   id="polygon9228"
   points="251,291 265,284 265,283 251,290      "
   fill="#FFFFFF"
   opacity="0.25" />
					<polygon
   id="polygon9230"
   points="251,289 265,282 265,281 251,288      "
   fill="#FFFFFF"
   opacity="0.25" />
					<polygon
   id="polygon9232"
   points="251,287 265,280 265,279 251,286      "
   fill="#FFFFFF"
   opacity="0.25" />
					<polygon
   id="polygon9234"
   points="251,285 265,278 265,277 251,284      "
   fill="#FFFFFF"
   opacity="0.25" />
					<polygon
   id="polygon9236"
   points="251,283 265,276 265,275 251,282      "
   fill="#FFFFFF"
   opacity="0.25" />
					<polygon
   id="polygon9238"
   points="251,281 265,274 265,273 251,280      "
   fill="#FFFFFF"
   opacity="0.25" />
				</g>
			</g>
			<g
   id="g9256">
				<g
   id="g9254">
					<polygon
   id="polygon9244"
   points="267,243 249,252 249,244 267,235      "
   fill="#FFFFFF" />
					<polygon
   id="polygon9246"
   points="266,242.5 250,250.5 250,244.5 266,236.5      "
   fill="#3399CC" />
					<polygon
   id="polygon9248"
   points="266,239.5 250,247.5 250,244.5 266,236.5      "
   opacity="0.15" />
					<polygon
   id="polygon9250"
   points="266,237.5 250,245.5 250,244.5 266,236.5      "
   opacity="0.15" />
					<polygon
   id="polygon9252"
   points="266,242.5 250,244.5 266,236.5      "
   opacity="0.15" />
				</g>
			</g>
		</g>
	</g>
	<g
   id="g9302">
		<g
   id="g9300">
			<g
   id="g9284">
				<polygon
   id="polygon9262"
   points="283,281 281,282 281,260 299,251 299,273 297,274 297,257 283,264     "
   fill="#2D3134" />
				<g
   id="g9282">
					<polygon
   id="polygon9264"
   points="297,257 283,264 283,280 297,273      "
   fill="#656565" />
					<polygon
   id="polygon9266"
   points="283,279 297,272 297,271 283,278      "
   fill="#FFFFFF"
   opacity="0.25" />
					<polygon
   id="polygon9268"
   points="283,277 297,270 297,269 283,276      "
   fill="#FFFFFF"
   opacity="0.25" />
					<polygon
   id="polygon9270"
   points="283,275 297,268 297,267 283,274      "
   fill="#FFFFFF"
   opacity="0.25" />
					<polygon
   id="polygon9272"
   points="283,273 297,266 297,265 283,272      "
   fill="#FFFFFF"
   opacity="0.25" />
					<polygon
   id="polygon9274"
   points="283,271 297,264 297,263 283,270      "
   fill="#FFFFFF"
   opacity="0.25" />
					<polygon
   id="polygon9276"
   points="283,269 297,262 297,261 283,268      "
   fill="#FFFFFF"
   opacity="0.25" />
					<polygon
   id="polygon9278"
   points="283,267 297,260 297,259 283,266      "
   fill="#FFFFFF"
   opacity="0.25" />
					<polygon
   id="polygon9280"
   points="283,265 297,258 297,257 283,264      "
   fill="#FFFFFF"
   opacity="0.25" />
				</g>
			</g>
			<g
   id="g9298">
				<g
   id="g9296">
					<polygon
   id="polygon9286"
   points="299,227 281,236 281,228 299,219      "
   fill="#FFFFFF" />
					<polygon
   id="polygon9288"
   points="298,226.5 282,234.5 282,228.5 298,220.5      "
   fill="#3399CC" />
					<polygon
   id="polygon9290"
   points="298,223.5 282,231.5 282,228.5 298,220.5      "
   opacity="0.15" />
					<polygon
   id="polygon9292"
   points="298,221.5 282,229.5 282,228.5 298,220.5      "
   opacity="0.15" />
					<polygon
   id="polygon9294"
   points="298,226.5 282,228.5 298,220.5      "
   opacity="0.15" />
				</g>
			</g>
		</g>
	</g>
	<g
   id="g9320">
		<g
   id="g9318">
			<g
   id="g9316">
				<g
   id="g9314">
					<polygon
   id="polygon9304"
   points="235,259 217,268 217,260 235,251      "
   fill="#FFFFFF" />
					<polygon
   id="polygon9306"
   points="234,258.5 218,266.5 218,260.5 234,252.5      "
   fill="#3399CC" />
					<polygon
   id="polygon9308"
   points="234,255.5 218,263.5 218,260.5 234,252.5      "
   opacity="0.15" />
					<polygon
   id="polygon9310"
   points="234,253.5 218,261.5 218,260.5 234,252.5      "
   opacity="0.15" />
					<polygon
   id="polygon9312"
   points="234,258.5 218,260.5 234,252.5      "
   opacity="0.15" />
				</g>
			</g>
		</g>
	</g>
	<g
   id="g9362">
		<g
   id="g9360">
			<g
   id="g9344">
				<polygon
   id="polygon9322"
   points="315,265 313,266 313,244 331,235 331,257 329,258 329,241 315,248     "
   fill="#2D3134" />
				<g
   id="g9342">
					<polygon
   id="polygon9324"
   points="329,241 315,248 315,264 329,257      "
   fill="#656565" />
					<polygon
   id="polygon9326"
   points="315,263 329,256 329,255 315,262      "
   fill="#FFFFFF"
   opacity="0.25" />
					<polygon
   id="polygon9328"
   points="315,261 329,254 329,253 315,260      "
   fill="#FFFFFF"
   opacity="0.25" />
					<polygon
   id="polygon9330"
   points="315,259 329,252 329,251 315,258      "
   fill="#FFFFFF"
   opacity="0.25" />
					<polygon
   id="polygon9332"
   points="315,257 329,250 329,249 315,256      "
   fill="#FFFFFF"
   opacity="0.25" />
					<polygon
   id="polygon9334"
   points="315,255 329,248 329,247 315,254      "
   fill="#FFFFFF"
   opacity="0.25" />
					<polygon
   id="polygon9336"
   points="315,253 329,246 329,245 315,252      "
   fill="#FFFFFF"
   opacity="0.25" />
					<polygon
   id="polygon9338"
   points="315,251 329,244 329,243 315,250      "
   fill="#FFFFFF"
   opacity="0.25" />
					<polygon
   id="polygon9340"
   points="315,249 329,242 329,241 315,248      "
   fill="#FFFFFF"
   opacity="0.25" />
				</g>
			</g>
			<g
   id="g9358">
				<g
   id="g9356">
					<polygon
   id="polygon9346"
   points="331,211 313,220 313,212 331,203      "
   fill="#FFFFFF" />
					<polygon
   id="polygon9348"
   points="330,210.5 314,218.5 314,212.5 330,204.5      "
   fill="#3399CC" />
					<polygon
   id="polygon9350"
   points="330,207.5 314,215.5 314,212.5 330,204.5      "
   opacity="0.15" />
					<polygon
   id="polygon9352"
   points="330,205.5 314,213.5 314,212.5 330,204.5      "
   opacity="0.15" />
					<polygon
   id="polygon9354"
   points="330,210.5 314,212.5 330,204.5      "
   opacity="0.15" />
				</g>
			</g>
		</g>
	</g>
	<g
   id="g9404">
		<g
   id="g9402">
			<g
   id="g9386">
				<polygon
   id="polygon9364"
   points="347,249 345,250 345,228 363,219 363,241 361,242 361,225 347,232     "
   fill="#2D3134" />
				<g
   id="g9384">
					<polygon
   id="polygon9366"
   points="361,225 347,232 347,248 361,241      "
   fill="#656565" />
					<polygon
   id="polygon9368"
   points="347,247 361,240 361,239 347,246      "
   fill="#FFFFFF"
   opacity="0.25" />
					<polygon
   id="polygon9370"
   points="347,245 361,238 361,237 347,244      "
   fill="#FFFFFF"
   opacity="0.25" />
					<polygon
   id="polygon9372"
   points="347,243 361,236 361,235 347,242      "
   fill="#FFFFFF"
   opacity="0.25" />
					<polygon
   id="polygon9374"
   points="347,241 361,234 361,233 347,240      "
   fill="#FFFFFF"
   opacity="0.25" />
					<polygon
   id="polygon9376"
   points="347,239 361,232 361,231 347,238      "
   fill="#FFFFFF"
   opacity="0.25" />
					<polygon
   id="polygon9378"
   points="347,237 361,230 361,229 347,236      "
   fill="#FFFFFF"
   opacity="0.25" />
					<polygon
   id="polygon9380"
   points="347,235 361,228 361,227 347,234      "
   fill="#FFFFFF"
   opacity="0.25" />
					<polygon
   id="polygon9382"
   points="347,233 361,226 361,225 347,232      "
   fill="#FFFFFF"
   opacity="0.25" />
				</g>
			</g>
			<g
   id="g9400">
				<g
   id="g9398">
					<polygon
   id="polygon9388"
   points="363,195 345,204 345,196 363,187      "
   fill="#FFFFFF" />
					<polygon
   id="polygon9390"
   points="362,194.5 346,202.5 346,196.5 362,188.5      "
   fill="#3399CC" />
					<polygon
   id="polygon9392"
   points="362,191.5 346,199.5 346,196.5 362,188.5      "
   opacity="0.15" />
					<polygon
   id="polygon9394"
   points="362,189.5 346,197.5 346,196.5 362,188.5      "
   opacity="0.15" />
					<polygon
   id="polygon9396"
   points="362,194.5 346,196.5 362,188.5      "
   opacity="0.15" />
				</g>
			</g>
		</g>
	</g>
	<g
   id="g9434">
		<g
   id="g9432">
			<g
   id="g9430">
				<g
   id="g9416">
					<polygon
   id="polygon9406"
   points="181,259 199,268 199,260 181,251      "
   fill="#FFFFFF" />
					<polygon
   id="polygon9408"
   points="182,258.5 198,266.5 198,260.5 182,252.5      "
   fill="#3399CC" />
					<polygon
   id="polygon9410"
   points="182,255.5 198,263.5 198,260.5 182,252.5      "
   opacity="0.15" />
					<polygon
   id="polygon9412"
   points="182,253.5 198,261.5 198,260.5 182,252.5      "
   opacity="0.15" />
					<polygon
   id="polygon9414"
   points="182,258.5 198,260.5 182,252.5      "
   opacity="0.15" />
				</g>
				<g
   id="g9428">
					<polygon
   id="polygon9418"
   points="149,243 167,252 167,244 149,235      "
   fill="#FFFFFF" />
					<polygon
   id="polygon9420"
   points="150,242.5 166,250.5 166,244.5 150,236.5      "
   fill="#3399CC" />
					<polygon
   id="polygon9422"
   points="150,239.5 166,247.5 166,244.5 150,236.5      "
   opacity="0.15" />
					<polygon
   id="polygon9424"
   points="150,237.5 166,245.5 166,244.5 150,236.5      "
   opacity="0.15" />
					<polygon
   id="polygon9426"
   points="150,242.5 166,244.5 150,236.5      "
   opacity="0.15" />
				</g>
			</g>
		</g>
	</g>
	<g
   id="g9464">
		<g
   id="g9462">
			<g
   id="g9460">
				<g
   id="g9446">
					<polygon
   id="polygon9436"
   points="117,227 135,236 135,228 117,219      "
   fill="#FFFFFF" />
					<polygon
   id="polygon9438"
   points="118,226.5 134,234.5 134,228.5 118,220.5      "
   fill="#3399CC" />
					<polygon
   id="polygon9440"
   points="118,223.5 134,231.5 134,228.5 118,220.5      "
   opacity="0.15" />
					<polygon
   id="polygon9442"
   points="118,221.5 134,229.5 134,228.5 118,220.5      "
   opacity="0.15" />
					<polygon
   id="polygon9444"
   points="118,226.5 134,228.5 118,220.5      "
   opacity="0.15" />
				</g>
				<g
   id="g9458">
					<polygon
   id="polygon9448"
   points="85,211 103,220 103,212 85,203      "
   fill="#FFFFFF" />
					<polygon
   id="polygon9450"
   points="86,210.5 102,218.5 102,212.5 86,204.5      "
   fill="#3399CC" />
					<polygon
   id="polygon9452"
   points="86,207.5 102,215.5 102,212.5 86,204.5      "
   opacity="0.15" />
					<polygon
   id="polygon9454"
   points="86,205.5 102,213.5 102,212.5 86,204.5      "
   opacity="0.15" />
					<polygon
   id="polygon9456"
   points="86,210.5 102,212.5 86,204.5      "
   opacity="0.15" />
				</g>
			</g>
		</g>
	</g>
	<polygon
   id="polygon9466"
   points="208,320 80,256 80,192 208,256  "
   opacity="0.11" />
	<g
   id="g9488">
		<polygon
   id="polygon9468"
   points="220,312 230,307 230,289 220,294   "
   fill="#FFFFFF" />
		<polygon
   id="polygon9470"
   points="229,290.5 221,294.5 221,311.5 229,307.5   "
   fill="#656565" />
		<polygon
   id="polygon9472"
   points="221,310.5 229,306.5 229,305.5 221,309.5   "
   fill="#FFFFFF"
   opacity="0.25" />
		<polygon
   id="polygon9474"
   points="221,308.5 229,304.5 229,303.5 221,307.5   "
   fill="#FFFFFF"
   opacity="0.25" />
		<polygon
   id="polygon9476"
   points="221,306.5 229,302.5 229,301.5 221,305.5   "
   fill="#FFFFFF"
   opacity="0.25" />
		<polygon
   id="polygon9478"
   points="221,304.5 229,300.5 229,299.5 221,303.5   "
   fill="#FFFFFF"
   opacity="0.25" />
		<polygon
   id="polygon9480"
   points="221,302.5 229,298.5 229,297.5 221,301.5   "
   fill="#FFFFFF"
   opacity="0.25" />
		<polygon
   id="polygon9482"
   points="221,300.5 229,296.5 229,295.5 221,299.5   "
   fill="#FFFFFF"
   opacity="0.25" />
		<polygon
   id="polygon9484"
   points="221,298.5 229,294.5 229,293.5 221,297.5   "
   fill="#FFFFFF"
   opacity="0.25" />
		<polygon
   id="polygon9486"
   points="221,296.5 229,292.5 229,291.5 221,295.5   "
   fill="#FFFFFF"
   opacity="0.25" />
	</g>
	<polygon
   id="polygon9490"
   points="208,320 400,224 400,160 208,256  "
   opacity="0.29" />
	<g
   id="g9498">
		<polygon
   id="polygon9492"
   points="400,234 390,239 380,234 380,232 390,227 394,229   "
   fill="#999999" />
		<polygon
   id="polygon9494"
   points="390,239 390,239 384,234 380,232 380,234   "
   opacity="0.11" />
		<polygon
   id="polygon9496"
   points="394,229 384,234 390,239 390,239 390,239 400,234   "
   opacity="0.15" />
	</g>
	<g
   id="g9506">
		<polygon
   id="polygon9500"
   points="240,314 230,319 220,314 220,312 230,307 234,309   "
   fill="#999999" />
		<polygon
   id="polygon9502"
   points="230,319 230,319 224,314 220,312 220,314   "
   opacity="0.11" />
		<polygon
   id="polygon9504"
   points="234,309 224,314 230,319 230,319 230,319 240,314   "
   opacity="0.15" />
	</g>
	<g
   id="g9566">
		<polygon
   id="polygon9508"
   points="64,232 64,264 128,296 144,288 144,256   "
   fill="#E5E5E5" />
		<g
   id="g9520">
			<polygon
   id="polygon9510"
   points="141,260.5 141,289.5 130,295 130,266    "
   fill="#3399CC" />
			<polygon
   id="polygon9512"
   points="140,289 140,260.9 141,260.5 141,289.5 130,295 130,294.1    "
   fill="#262626"
   opacity="0.45" />
			<polygon
   id="polygon9514"
   points="142,268 142,269 130,275 130,274    "
   fill="#E5E5E5"
   opacity="0.5" />
			<polygon
   id="polygon9516"
   points="142,277 142,278 130,284 130,283    "
   fill="#E5E5E5"
   opacity="0.5" />
			<polygon
   id="polygon9518"
   points="136,292 135,292.5 135,263.2 136,262.7    "
   fill="#E5E5E5" />
		</g>
		<g
   id="g9554">
			<polygon
   id="polygon9522"
   points="120,291 68,265 68,238.5 67,238 67,265.5 120,292    "
   fill="#262626"
   opacity="0.45" />
			<polygon
   id="polygon9524"
   points="120,263.5 67,238 67,265.5 120,292    "
   fill="#3399CC" />
			<g
   id="g9546">
				<polygon
   id="polygon9526"
   points="67,244 67,245 126,275 126,274     "
   fill="#E5E5E5"
   opacity="0.5" />
				<polygon
   id="polygon9528"
   points="67,253 67,254 126,284 126,283     "
   fill="#E5E5E5"
   opacity="0.5" />
				<polygon
   id="polygon9530"
   points="90,277 91,277.5 91,249.5 90,249     "
   fill="#E5E5E5" />
				<polygon
   id="polygon9532"
   points="84,274 85,274.5 85,246.9 84,246.4     "
   fill="#E5E5E5" />
				<polygon
   id="polygon9534"
   points="78,271 79,271.5 79,243.9 78,243.4     "
   fill="#E5E5E5" />
				<polygon
   id="polygon9536"
   points="72,268 73,268.5 73,240.9 72,240.4     "
   fill="#E5E5E5" />
				<polygon
   id="polygon9538"
   points="102,283 103,283.5 103,255.6 102,255.1     "
   fill="#E5E5E5" />
				<polygon
   id="polygon9540"
   points="96,280 97,280.5 97,252.6 96,252.1     "
   fill="#E5E5E5" />
				<polygon
   id="polygon9542"
   points="108,286 109,286.5 109,258.4 108,257.9     "
   fill="#E5E5E5" />
				<polygon
   id="polygon9544"
   points="114,289 115,289.5 115,261.2 114,260.7     "
   fill="#E5E5E5" />
			</g>
			<polygon
   id="polygon9548"
   points="120,264 100,279 120,270    "
   fill="#FFFFFF"
   opacity="0.2" />
			<polygon
   id="polygon9550"
   points="85,274.5 85.4,274.7 109,265 77,270.5    "
   fill="#FFFFFF"
   opacity="0.1" />
			<polygon
   id="polygon9552"
   points="88.1,248.5 75.4,257.6 92.6,250.6    "
   fill="#FFFFFF"
   opacity="0.15" />
		</g>
		<polygon
   id="polygon9556"
   points="126,295 122,293 122,261 126,263   "
   fill="#FF9900" />
		<polygon
   id="polygon9558"
   points="144,288 128,296 128,264 144,256   "
   opacity="0.29" />
		<polygon
   id="polygon9560"
   points="64,264 128,296 128,264 64,232   "
   opacity="0.11" />
		<polygon
   id="polygon9562"
   points="128,264 144,256 80,224 64,232   "
   fill="#2D3134" />
		<polygon
   id="polygon9564"
   points="128,264 144,256 80,224 64,232   "
   fill="#2D3134" />
	</g>
	<g
   id="g9578">
		<polygon
   id="polygon9568"
   points="530,112 554,124 554,126 542,132 518,120 518,118   "
   fill="#999999" />
		<polygon
   id="polygon9570"
   points="518,120 542,132 542,130 518,118   "
   opacity="0.11" />
		<polygon
   id="polygon9572"
   points="554,126 542,132 542,130 554,124   "
   opacity="0.29" />
		<path
   id="path9574"
   d="M526,118.5c0,1.4,2.2,2.5,5,2.5s5-1.1,5-2.5s-2.2-2.5-5-2.5S526,117.1,526,118.5z M528,118.5    c0-0.8,1.3-1.5,3-1.5s3,0.7,3,1.5s-1.3,1.5-3,1.5S528,119.3,528,118.5z"
   fill="#656565" />
		<path
   id="path9576"
   d="M536,123.5c0,1.4,2.2,2.5,5,2.5s5-1.1,5-2.5s-2.2-2.5-5-2.5S536,122.1,536,123.5z M538,123.5    c0-0.8,1.3-1.5,3-1.5s3,0.7,3,1.5s-1.3,1.5-3,1.5S538,124.3,538,123.5z"
   fill="#656565" />
	</g>
	<g
   id="g9590">
		<polygon
   id="polygon9580"
   points="512,121 536,133 536,135 524,141 500,129 500,127   "
   fill="#999999" />
		<polygon
   id="polygon9582"
   points="500,129 524,141 524,139 500,127   "
   opacity="0.11" />
		<polygon
   id="polygon9584"
   points="536,135 524,141 524,139 536,133   "
   opacity="0.29" />
		<path
   id="path9586"
   d="M508,127.5c0,1.4,2.2,2.5,5,2.5s5-1.1,5-2.5s-2.2-2.5-5-2.5S508,126.1,508,127.5z M510,127.5    c0-0.8,1.3-1.5,3-1.5s3,0.7,3,1.5s-1.3,1.5-3,1.5S510,128.3,510,127.5z"
   fill="#656565" />
		<path
   id="path9588"
   d="M518,132.5c0,1.4,2.2,2.5,5,2.5s5-1.1,5-2.5s-2.2-2.5-5-2.5S518,131.1,518,132.5z M520,132.5    c0-0.8,1.3-1.5,3-1.5s3,0.7,3,1.5s-1.3,1.5-3,1.5S520,133.3,520,132.5z"
   fill="#656565" />
	</g>
	<g
   id="g9602">
		<polygon
   id="polygon9592"
   points="466,144 490,156 490,158 478,164 454,152 454,150   "
   fill="#999999" />
		<polygon
   id="polygon9594"
   points="454,152 478,164 478,162 454,150   "
   opacity="0.11" />
		<polygon
   id="polygon9596"
   points="490,158 478,164 478,162 490,156   "
   opacity="0.29" />
		<path
   id="path9598"
   d="M462,150.5c0,1.4,2.2,2.5,5,2.5s5-1.1,5-2.5s-2.2-2.5-5-2.5S462,149.1,462,150.5z M464,150.5    c0-0.8,1.3-1.5,3-1.5s3,0.7,3,1.5s-1.3,1.5-3,1.5S464,151.3,464,150.5z"
   fill="#656565" />
		<path
   id="path9600"
   d="M472,155.5c0,1.4,2.2,2.5,5,2.5s5-1.1,5-2.5s-2.2-2.5-5-2.5S472,154.1,472,155.5z M474,155.5    c0-0.8,1.3-1.5,3-1.5s3,0.7,3,1.5s-1.3,1.5-3,1.5S474,156.3,474,155.5z"
   fill="#656565" />
	</g>
	<g
   id="g9614">
		<polygon
   id="polygon9604"
   points="448,153 472,165 472,167 460,173 436,161 436,159   "
   fill="#999999" />
		<polygon
   id="polygon9606"
   points="436,161 460,173 460,171 436,159   "
   opacity="0.11" />
		<polygon
   id="polygon9608"
   points="472,167 460,173 460,171 472,165   "
   opacity="0.29" />
		<path
   id="path9610"
   d="M444,159.5c0,1.4,2.2,2.5,5,2.5s5-1.1,5-2.5s-2.2-2.5-5-2.5S444,158.1,444,159.5z M446,159.5    c0-0.8,1.3-1.5,3-1.5s3,0.7,3,1.5s-1.3,1.5-3,1.5S446,160.3,446,159.5z"
   fill="#656565" />
		<path
   id="path9612"
   d="M454,164.5c0,1.4,2.2,2.5,5,2.5s5-1.1,5-2.5s-2.2-2.5-5-2.5S454,163.1,454,164.5z M456,164.5    c0-0.8,1.3-1.5,3-1.5s3,0.7,3,1.5s-1.3,1.5-3,1.5S456,165.3,456,164.5z"
   fill="#656565" />
	</g>
</g></g>
</svg>