<?xml version="1.0" encoding="UTF-8" standalone="no"?>
<svg
   xmlns:dc="http://purl.org/dc/elements/1.1/"
   xmlns:cc="http://creativecommons.org/ns#"
   xmlns:rdf="http://www.w3.org/1999/02/22-rdf-syntax-ns#"
   xmlns:svg="http://www.w3.org/2000/svg"
   xmlns="http://www.w3.org/2000/svg"
   xmlns:sodipodi="http://sodipodi.sourceforge.net/DTD/sodipodi-0.dtd"
   xmlns:inkscape="http://www.inkscape.org/namespaces/inkscape"
   enable-background="new 0 0 64 80"
   viewBox="0 0 64 76"
   version="1.1"
   id="svg386"
   sodipodi:docname="house_2x2.svg"
   width="64"
   height="76"
   inkscape:version="0.92.4 (5da689c313, 2019-01-14)">
  <metadata
     id="metadata392">
    <rdf:RDF>
      <cc:Work
         rdf:about="">
        <dc:format>image/svg+xml</dc:format>
        <dc:type
           rdf:resource="http://purl.org/dc/dcmitype/StillImage" />
        <dc:title></dc:title>
      </cc:Work>
    </rdf:RDF>
  </metadata>
  <defs
     id="defs390" />
  <sodipodi:namedview
     pagecolor="#ffffff"
     bordercolor="#666666"
     borderopacity="1"
     objecttolerance="10"
     gridtolerance="10"
     guidetolerance="10"
     inkscape:pageopacity="0"
     inkscape:pageshadow="2"
     inkscape:window-width="1366"
     inkscape:window-height="705"
     id="namedview388"
     showgrid="true"
     fit-margin-top="0"
     fit-margin-left="0"
     fit-margin-right="0"
     fit-margin-bottom="0"
     inkscape:zoom="4.8878756"
     inkscape:cx="37.643287"
     inkscape:cy="32.242367"
     inkscape:window-x="-8"
     inkscape:window-y="-8"
     inkscape:window-maximized="1"
     inkscape:current-layer="svg386">
    <inkscape:grid
       type="axonomgrid"
       id="grid394"
       units="px"
       empspacing="5"
       spacingy="16"
       gridanglex="26.57"
       gridanglez="26.57"
       originx="0"
       originy="0" />
  </sodipodi:namedview>
  <g
     id="g488"
     transform="translate(0,-4)">
    <path
       id="path202"
       d="m 6,63 -4,2 28,14 4,-2 z"
       inkscape:connector-curvature="0"
       style="fill:#999999" />
    <path
       id="path204"
       d="M 16,4 0,28 V 64 L 2,65 34,49 V 13 L 18,5 Z"
       inkscape:connector-curvature="0"
       style="fill:#e5e5e5" />
    <path
       id="path206"
       d="M 2,29 0,28 v 36 l 2,1 z"
       inkscape:connector-curvature="0"
       style="opacity:0.06000001" />
    <path
       id="path208"
       d="M 34,49 2,65 V 29 L 18,5 34,13 Z"
       inkscape:connector-curvature="0"
       style="opacity:0.38999999" />
    <path
       id="path210"
       d="M 34,77 6,63 V 29 l 28,14 z"
       inkscape:connector-curvature="0"
       style="fill:#e5e5e5" />
    <path
       id="path212"
       d="m 17,53.5 -8,-4 v 15 l 8,4 z"
       inkscape:connector-curvature="0"
       style="fill:#ffffff" />
    <path
       id="path214"
       d="m 10,51 6,3 v 14 l -6,-3 z"
       inkscape:connector-curvature="0"
       style="fill:#656565" />
    <path
       id="path216"
       d="m 11,52.5 4,2 v 4 l -4,-2 z"
       inkscape:connector-curvature="0"
       style="fill:#3399cc" />
    <path
       id="path218"
       d="m 11,52.5 4,2 v 1 l -4,-2 z"
       inkscape:connector-curvature="0"
       style="opacity:0.15" />
    <path
       id="path220"
       d="m 27,41.5 -6,-3 v 15 l 6,3 z"
       inkscape:connector-curvature="0"
       style="fill:#ffffff" />
    <path
       id="path222"
       d="m 22,40 4,2 v 14 l -4,-2 z"
       inkscape:connector-curvature="0"
       style="fill:#656565" />
    <path
       id="path224"
       d="m 23,41.5 2,1 v 12 l -2,-1 z"
       inkscape:connector-curvature="0"
       style="fill:#3399cc" />
    <path
       id="path226"
       d="m 23,41.5 2,1 v 1 l -2,-1 z"
       inkscape:connector-curvature="0"
       style="opacity:0.15" />
    <path
       id="path228"
       d="m 32,44 -6,-3 v 15 l 6,3 z"
       inkscape:connector-curvature="0"
       style="fill:#ffffff" />
    <path
       id="path230"
       d="m 27,42.5 4,2 v 14 l -4,-2 z"
       inkscape:connector-curvature="0"
       style="fill:#656565" />
    <path
       id="path232"
       d="m 28,44 2,1 v 12 l -2,-1 z"
       inkscape:connector-curvature="0"
       style="fill:#3399cc" />
    <path
       id="path234"
       d="m 28,44 2,1 v 1 l -2,-1 z"
       inkscape:connector-curvature="0"
       style="opacity:0.15" />
    <path
       id="path236"
       d="m 6,29 28,14 v 6 L 6,35 Z"
       inkscape:connector-curvature="0"
       style="opacity:0.1" />
    <path
       id="path238"
       d="m 6,46 28,14 v 6 L 6,52 Z"
       inkscape:connector-curvature="0"
       style="opacity:0.1" />
    <path
       id="path240"
       d="M 34,77 6,63 V 29 l 28,14 z"
       inkscape:connector-curvature="0"
       style="opacity:0.06000001" />
    <path
       id="path242"
       d="m 16,55 4,-2 V 36 l -4,2 z"
       inkscape:connector-curvature="0"
       style="fill:#baa794" />
    <path
       id="path244"
       d="m 16,55 4,-2 V 36 l -4,2 z"
       inkscape:connector-curvature="0"
       style="opacity:0.38999999" />
    <path
       id="path246"
       d="m 20,52 10,5 v 4 L 16,54 Z"
       inkscape:connector-curvature="0"
       style="fill:#999999" />
    <path
       id="path248"
       d="m 16,47 14,7 v 6 L 16,53 Z"
       inkscape:connector-curvature="0"
       style="opacity:0.6;fill:#3399cc" />
    <path
       id="path250"
       d="m 23,50.7 7,3.3 v 6 l -3,-1.4 z"
       inkscape:connector-curvature="0"
       style="opacity:0.15" />
    <path
       id="path252"
       d="M 16,47 19,48.4 24.3,57 16,53 Z"
       inkscape:connector-curvature="0"
       style="opacity:0.2;fill:#ffffff" />
    <path
       id="path254"
       d="m 16,53 14,7 v 2 L 16,55 Z"
       inkscape:connector-curvature="0"
       style="fill:#e5e5e5" />
    <path
       id="path256"
       d="M 16,55 2,48 V 31 l 14,7 z"
       inkscape:connector-curvature="0"
       style="fill:#baa794" />
    <path
       id="path258"
       d="M 30,79 16,72 V 55 l 14,7 z"
       inkscape:connector-curvature="0"
       style="fill:#baa794" />
    <path
       id="path260"
       d="m 13,38.5 -8,-4 v 11 l 8,4 z"
       inkscape:connector-curvature="0"
       style="fill:#656565" />
    <path
       id="path262"
       d="m 6,36 6,3 v 9 L 6,45 Z"
       inkscape:connector-curvature="0"
       style="fill:#ffffff" />
    <path
       id="path264"
       d="m 7,37.5 4,2 v 7 l -4,-2 z"
       inkscape:connector-curvature="0"
       style="fill:#3399cc" />
    <path
       id="path266"
       d="m 7,37.5 4,2 v 1 l -4,-2 z"
       inkscape:connector-curvature="0"
       style="opacity:0.15" />
    <path
       id="path268"
       d="m 27,62.5 -8,-4 v 11 l 8,4 z"
       inkscape:connector-curvature="0"
       style="fill:#656565" />
    <path
       id="path270"
       d="m 20,60 6,3 v 9 l -6,-3 z"
       inkscape:connector-curvature="0"
       style="fill:#ffffff" />
    <path
       id="path272"
       d="m 21,61.5 4,2 v 7 l -4,-2 z"
       inkscape:connector-curvature="0"
       style="fill:#3399cc" />
    <path
       id="path274"
       d="m 21,61.5 4,2 v 1 l -4,-2 z"
       inkscape:connector-curvature="0"
       style="opacity:0.15" />
    <path
       id="path276"
       d="M 30,62 16,55 v -2 l 14,7 z"
       inkscape:connector-curvature="0"
       style="fill:#e5e5e5" />
    <path
       id="path278"
       d="M 30,45 2,31 v -2 l 28,14 z"
       inkscape:connector-curvature="0"
       style="fill:#e5e5e5" />
    <path
       id="path280"
       d="M 2,29.2 18,5.7 48,20.8 32,44.3 Z"
       inkscape:connector-curvature="0"
       style="fill:#2d3134" />
    <path
       id="path282"
       d="M 2,29.2 18,5.7 48,20.8 32,44.3 Z"
       inkscape:connector-curvature="0"
       style="opacity:0.06000001" />
    <path
       id="path284"
       d="m 18,5.7 -0.7,1.2 29.7,14.9 1,-1 z"
       inkscape:connector-curvature="0"
       style="opacity:0.2;fill:#ffffff" />
    <path
       id="path286"
       d="M 46,19 30,43 v 36 l 2,1 32,-16 V 28 L 48,20 Z"
       inkscape:connector-curvature="0"
       style="fill:#e5e5e5" />
    <path
       id="path288"
       d="m 32,44 -2,-1 v 36 l 2,1 z"
       inkscape:connector-curvature="0"
       style="opacity:0.06000001" />
    <g
       id="g332"
       style="opacity:0.1">
      <path
         id="path290"
         d="m 37.8,71.1 c -0.6,0.3 -1.1,1 -1.1,1.6 0,0.6 0.5,0.8 1.1,0.5 0.6,-0.3 1.1,-1 1.1,-1.6 0,-0.6 -0.5,-0.8 -1.1,-0.5 z"
         inkscape:connector-curvature="0" />
      <path
         id="path292"
         d="m 60.3,60.8 c 0.7,-0.4 1.3,-1.2 1.3,-1.9 0,-0.7 -0.6,-1 -1.3,-0.6 -0.7,0.4 -1.3,1.2 -1.3,1.9 0,0.7 0.6,1 1.3,0.6 z"
         inkscape:connector-curvature="0" />
      <path
         id="path294"
         d="m 34.7,64.7 c 0.5,-0.2 0.9,-0.8 0.9,-1.3 0,-0.5 -0.4,-0.7 -0.9,-0.4 -0.5,0.2 -0.9,0.8 -0.9,1.3 0.1,0.4 0.5,0.6 0.9,0.4 z"
         inkscape:connector-curvature="0" />
      <path
         id="path296"
         d="m 58.5,29.9 c 0,-0.7 -0.6,-1 -1.3,-0.6 -0.7,0.4 -1.3,1.2 -1.3,1.9 0,0.7 0.6,1 1.3,0.6 0.8,-0.3 1.3,-1.2 1.3,-1.9 z"
         inkscape:connector-curvature="0" />
      <path
         id="path298"
         d="m 57.3,53.2 c 0,-0.1 -0.1,-0.2 -0.2,-0.1 -0.1,0.1 -0.2,0.2 -0.2,0.3 0,0.1 0.1,0.2 0.2,0.1 0.1,-0.1 0.2,-0.2 0.2,-0.3 z"
         inkscape:connector-curvature="0" />
      <path
         id="path300"
         d="m 47.5,70 c 0,-0.1 -0.1,-0.2 -0.2,-0.1 -0.1,0.1 -0.2,0.2 -0.2,0.3 0,0.1 0.1,0.2 0.2,0.1 0.1,-0.1 0.2,-0.2 0.2,-0.3 z"
         inkscape:connector-curvature="0" />
      <path
         id="path302"
         d="m 57.4,45.1 c -0.4,0.2 -0.6,0.6 -0.6,1 0,0.4 0.3,0.5 0.6,0.3 0.4,-0.2 0.6,-0.6 0.6,-1 0,-0.4 -0.3,-0.5 -0.6,-0.3 z"
         inkscape:connector-curvature="0" />
      <path
         id="path304"
         d="m 50.6,34.5 c 0,0.1 0.1,0.2 0.2,0.1 0.1,-0.1 0.2,-0.2 0.2,-0.3 0,-0.1 -0.1,-0.2 -0.2,-0.1 -0.1,0 -0.2,0.2 -0.2,0.3 z"
         inkscape:connector-curvature="0" />
      <path
         id="path306"
         d="m 42.6,36.1 c 0.7,-0.4 1.3,-1.2 1.3,-1.9 0,-0.7 -0.6,-1 -1.3,-0.6 -0.7,0.4 -1.3,1.2 -1.3,1.9 0,0.6 0.6,0.9 1.3,0.6 z"
         inkscape:connector-curvature="0" />
      <path
         id="path308"
         d="m 36.3,45.2 c -0.7,0.4 -1.3,1.2 -1.3,1.9 0,0.7 0.6,1 1.3,0.6 0.7,-0.4 1.3,-1.2 1.3,-1.9 0,-0.7 -0.6,-1 -1.3,-0.6 z"
         inkscape:connector-curvature="0" />
      <path
         id="path310"
         d="m 41,62.7 c 0,-0.6 -0.5,-0.8 -1.1,-0.5 -0.6,0.3 -1.1,1 -1.1,1.6 0,0.6 0.5,0.8 1.1,0.5 0.6,-0.3 1.1,-1 1.1,-1.6 z"
         inkscape:connector-curvature="0" />
      <path
         id="path312"
         d="m 49.5,56.4 c 0,-0.6 -0.5,-0.8 -1.1,-0.5 -0.6,0.3 -1.1,1 -1.1,1.6 0,0.6 0.5,0.8 1.1,0.5 0.6,-0.2 1.1,-1 1.1,-1.6 z"
         inkscape:connector-curvature="0" />
      <path
         id="path314"
         d="m 34.7,67.6 c -0.4,0.2 -0.6,0.6 -0.6,1 0,0.4 0.3,0.5 0.6,0.3 0.4,-0.2 0.6,-0.6 0.6,-1 0,-0.4 -0.2,-0.5 -0.6,-0.3 z"
         inkscape:connector-curvature="0" />
      <path
         id="path316"
         d="m 50.2,45.2 c -0.6,0.3 -1.1,1 -1.1,1.6 0,0.6 0.5,0.8 1.1,0.5 0.6,-0.3 1.1,-1 1.1,-1.6 -0.1,-0.5 -0.5,-0.8 -1.1,-0.5 z"
         inkscape:connector-curvature="0" />
      <path
         id="path318"
         d="m 50.8,26.8 c 0,0.6 0.5,0.8 1.1,0.5 0.6,-0.3 1.1,-1 1.1,-1.6 0,-0.6 -0.5,-0.8 -1.1,-0.5 -0.6,0.3 -1.1,1 -1.1,1.6 z"
         inkscape:connector-curvature="0" />
      <path
         id="path320"
         d="m 49.7,66.9 c 0.5,-0.2 0.9,-0.8 0.9,-1.3 0,-0.5 -0.4,-0.7 -0.9,-0.4 -0.5,0.2 -0.9,0.8 -0.9,1.3 0.1,0.5 0.4,0.6 0.9,0.4 z"
         inkscape:connector-curvature="0" />
      <path
         id="path322"
         d="m 59.4,37.1 c -0.2,0.1 -0.3,0.3 -0.3,0.5 0,0.2 0.1,0.2 0.3,0.2 0.2,-0.1 0.3,-0.3 0.3,-0.5 0,-0.3 -0.1,-0.3 -0.3,-0.2 z"
         inkscape:connector-curvature="0" />
      <path
         id="path324"
         d="m 60.8,56.2 c -0.2,0.1 -0.3,0.3 -0.3,0.5 0,0.2 0.1,0.2 0.3,0.2 0.2,-0.1 0.3,-0.3 0.3,-0.5 0,-0.2 -0.2,-0.2 -0.3,-0.2 z"
         inkscape:connector-curvature="0" />
      <path
         id="path326"
         d="m 59.3,40.1 c 0,-0.2 -0.2,-0.3 -0.4,-0.2 -0.2,0.1 -0.4,0.3 -0.4,0.5 0,0.2 0.2,0.3 0.4,0.2 0.3,-0.1 0.4,-0.3 0.4,-0.5 z"
         inkscape:connector-curvature="0" />
      <path
         id="path328"
         d="m 45.6,51.5 c 0,-0.2 -0.2,-0.3 -0.4,-0.2 -0.2,0.1 -0.4,0.3 -0.4,0.5 0,0.2 0.2,0.3 0.4,0.2 0.2,-0.1 0.4,-0.3 0.4,-0.5 z"
         inkscape:connector-curvature="0" />
      <path
         id="path330"
         d="m 40.8,40 c -0.5,0.2 -0.9,0.8 -0.9,1.3 0,0.5 0.4,0.7 0.9,0.4 0.5,-0.3 0.9,-0.8 0.9,-1.3 0,-0.5 -0.4,-0.7 -0.9,-0.4 z"
         inkscape:connector-curvature="0" />
    </g>
    <g
       id="g376"
       style="opacity:0.1">
      <path
         id="path334"
         d="m 43.5,34 c 0,0.7 -0.6,1.6 -1.3,1.9 -0.2,0.1 -0.4,0.2 -0.6,0.1 0.2,0.1 0.6,0.1 0.9,-0.1 0.7,-0.4 1.3,-1.2 1.3,-1.9 0,-0.5 -0.3,-0.8 -0.7,-0.8 0.3,0.2 0.4,0.5 0.4,0.8 z"
         inkscape:connector-curvature="0" />
      <path
         id="path336"
         d="m 45.2,51.3 v 0.1 c 0,0.2 -0.2,0.4 -0.4,0.5 0,0.1 0.2,0.2 0.3,0.1 0.2,-0.1 0.4,-0.3 0.4,-0.5 0.1,-0.2 -0.1,-0.3 -0.3,-0.2 z"
         inkscape:connector-curvature="0" />
      <path
         id="path338"
         d="m 41.2,39.9 c 0.1,0.1 0.2,0.2 0.2,0.4 0,0.5 -0.4,1.1 -0.9,1.3 -0.1,0.1 -0.2,0.1 -0.3,0.1 0.2,0.1 0.4,0.1 0.7,0 0.5,-0.2 0.9,-0.8 0.9,-1.3 -0.1,-0.4 -0.3,-0.6 -0.6,-0.5 z"
         inkscape:connector-curvature="0" />
      <path
         id="path340"
         d="m 36.9,45 c 0.2,0.1 0.4,0.4 0.4,0.7 0,0.7 -0.6,1.6 -1.3,1.9 -0.2,0.1 -0.4,0.2 -0.6,0.1 0.2,0.1 0.6,0.1 0.9,-0.1 0.7,-0.4 1.3,-1.2 1.3,-1.9 0,-0.4 -0.3,-0.7 -0.7,-0.7 z"
         inkscape:connector-curvature="0" />
      <path
         id="path342"
         d="m 48.9,55.8 c 0.2,0.1 0.3,0.3 0.3,0.6 0,0.6 -0.5,1.3 -1.1,1.6 -0.2,0.1 -0.3,0.1 -0.5,0.1 0.2,0.1 0.5,0.1 0.8,0 0.6,-0.3 1.1,-1 1.1,-1.6 0,-0.5 -0.3,-0.7 -0.6,-0.7 z"
         inkscape:connector-curvature="0" />
      <path
         id="path344"
         d="m 57.1,53.1 c -0.1,0.1 -0.2,0.2 -0.2,0.3 0,0.1 0.1,0.2 0.2,0.1 0.1,-0.1 0.2,-0.2 0.2,-0.3 0,-0.1 -0.1,-0.2 -0.2,-0.1 z"
         inkscape:connector-curvature="0" />
      <path
         id="path346"
         d="m 52.7,25.6 c 0,0.6 -0.5,1.3 -1.1,1.6 -0.2,0.1 -0.3,0.1 -0.5,0.1 0.2,0.1 0.5,0.1 0.8,0 0.6,-0.3 1.1,-1 1.1,-1.6 0,-0.4 -0.3,-0.7 -0.6,-0.7 0.2,0.1 0.3,0.3 0.3,0.6 z"
         inkscape:connector-curvature="0" />
      <path
         id="path348"
         d="m 61.1,56.4 c 0,-0.2 -0.1,-0.2 -0.3,-0.2 0,0.2 -0.1,0.3 -0.3,0.4 0,0.1 0.1,0.2 0.3,0.1 0.1,0.1 0.3,-0.1 0.3,-0.3 z"
         inkscape:connector-curvature="0" />
      <path
         id="path350"
         d="m 50.6,34.5 c 0,0.1 0.1,0.2 0.2,0.1 0.1,-0.1 0.2,-0.2 0.2,-0.3 0,-0.1 -0.1,-0.2 -0.2,-0.1 -0.1,0 -0.2,0.2 -0.2,0.3 z"
         inkscape:connector-curvature="0" />
      <path
         id="path352"
         d="m 58.2,29.8 c 0,0.7 -0.6,1.6 -1.3,1.9 -0.2,0.1 -0.4,0.2 -0.6,0.1 0.2,0.1 0.6,0.1 0.9,-0.1 0.7,-0.4 1.3,-1.2 1.3,-1.9 0,-0.5 -0.3,-0.8 -0.7,-0.8 0.3,0.2 0.4,0.5 0.4,0.8 z"
         inkscape:connector-curvature="0" />
      <path
         id="path354"
         d="M 59,39.9 V 40 c 0,0.2 -0.2,0.4 -0.4,0.5 0,0.1 0.2,0.2 0.3,0.1 0.2,-0.1 0.4,-0.3 0.4,-0.5 0,-0.2 -0.1,-0.3 -0.3,-0.2 z"
         inkscape:connector-curvature="0" />
      <path
         id="path356"
         d="m 40.4,62 c 0.2,0.1 0.3,0.3 0.3,0.6 0,0.6 -0.5,1.3 -1.1,1.6 -0.2,0.1 -0.3,0.1 -0.5,0.1 0.2,0.1 0.5,0.1 0.8,0 C 40.5,64 41,63.3 41,62.7 41,62.2 40.7,62 40.4,62 Z"
         inkscape:connector-curvature="0" />
      <path
         id="path358"
         d="m 38.3,70.9 c 0.2,0.1 0.3,0.3 0.3,0.6 0,0.6 -0.5,1.3 -1.1,1.6 -0.2,0.1 -0.3,0.1 -0.5,0.1 0.2,0.1 0.5,0.1 0.8,0 0.6,-0.3 1.1,-1 1.1,-1.6 0,-0.4 -0.2,-0.7 -0.6,-0.7 z"
         inkscape:connector-curvature="0" />
      <path
         id="path360"
         d="m 57.5,45 c 0.1,0.1 0.1,0.2 0.1,0.3 0,0.4 -0.3,0.8 -0.6,1 -0.1,0 -0.1,0 -0.2,0.1 0.1,0.1 0.3,0.1 0.5,0 0.4,-0.2 0.6,-0.6 0.6,-1 C 58,45.1 57.8,45 57.5,45 Z"
         inkscape:connector-curvature="0" />
      <path
         id="path362"
         d="M 47.2,69.9 C 47.1,70 47,70.1 47,70.2 c 0,0.1 0.1,0.2 0.2,0.1 0.1,-0.1 0.2,-0.2 0.2,-0.3 0,-0.1 0,-0.2 -0.2,-0.1 z"
         inkscape:connector-curvature="0" />
      <path
         id="path364"
         d="m 35.1,62.8 c 0.1,0.1 0.2,0.2 0.2,0.4 0,0.5 -0.4,1.1 -0.9,1.3 -0.1,0.1 -0.2,0.1 -0.3,0.1 0.2,0.1 0.4,0.1 0.7,0 0.5,-0.2 0.9,-0.8 0.9,-1.3 -0.1,-0.3 -0.3,-0.5 -0.6,-0.5 z"
         inkscape:connector-curvature="0" />
      <path
         id="path366"
         d="m 50.6,45.1 c 0.2,0.1 0.3,0.3 0.3,0.6 0,0.6 -0.5,1.3 -1.1,1.6 -0.2,0.1 -0.3,0.1 -0.5,0.1 0.2,0.1 0.5,0.1 0.8,0 0.6,-0.3 1.1,-1 1.1,-1.6 0,-0.5 -0.2,-0.7 -0.6,-0.7 z"
         inkscape:connector-curvature="0" />
      <path
         id="path368"
         d="m 60.9,58.1 c 0.2,0.1 0.4,0.4 0.4,0.7 0,0.7 -0.6,1.6 -1.3,1.9 -0.2,0.1 -0.4,0.2 -0.6,0.1 0.2,0.1 0.6,0.1 0.9,-0.1 0.7,-0.4 1.3,-1.2 1.3,-1.9 0,-0.4 -0.3,-0.7 -0.7,-0.7 z"
         inkscape:connector-curvature="0" />
      <path
         id="path370"
         d="m 34.9,67.6 c 0.1,0.1 0.1,0.2 0.1,0.3 0,0.4 -0.3,0.8 -0.6,1 -0.1,0 -0.1,0 -0.2,0.1 0.1,0.1 0.3,0.1 0.5,0 0.4,-0.2 0.6,-0.6 0.6,-1 0.1,-0.3 -0.1,-0.5 -0.4,-0.4 z"
         inkscape:connector-curvature="0" />
      <path
         id="path372"
         d="m 50,65.1 c 0.1,0.1 0.2,0.2 0.2,0.4 0,0.5 -0.4,1.1 -0.9,1.3 -0.1,0.1 -0.2,0.1 -0.3,0.1 0.2,0.1 0.4,0.1 0.7,0 0.5,-0.2 0.9,-0.8 0.9,-1.3 0,-0.4 -0.2,-0.6 -0.6,-0.5 z"
         inkscape:connector-curvature="0" />
      <path
         id="path374"
         d="m 59.4,37.1 c 0,0.2 -0.1,0.4 -0.3,0.5 0,0.1 0.1,0.2 0.3,0.1 0.2,-0.1 0.3,-0.3 0.3,-0.5 0,-0.2 -0.1,-0.2 -0.3,-0.1 z"
         inkscape:connector-curvature="0" />
    </g>
    <path
       id="path378"
       d="M 64,64 32,80 V 44 l 16,-24 16,8 z"
       inkscape:connector-curvature="0"
       style="opacity:0.38999999" />
    <path
       id="path380"
       d="M 30,45 V 43 L 2,29 v 2 17 l 14,7 v 17 l 14,7 V 54 L 16,47 v -9 z"
       inkscape:connector-curvature="0"
       style="opacity:0.06000001" />
    <path
       id="path382"
       d="m 6,63 -4,2 14,7 v -4 z"
       inkscape:connector-curvature="0"
       style="fill:#999999" />
    <path
       id="path384"
       d="m 6,63 -4,2 14,7 v -4 z"
       inkscape:connector-curvature="0"
       style="opacity:0.1" />
  </g>
</svg>
