<?xml version="1.0" encoding="UTF-8" standalone="no"?>
<svg
   xmlns:dc="http://purl.org/dc/elements/1.1/"
   xmlns:cc="http://creativecommons.org/ns#"
   xmlns:rdf="http://www.w3.org/1999/02/22-rdf-syntax-ns#"
   xmlns:svg="http://www.w3.org/2000/svg"
   xmlns="http://www.w3.org/2000/svg"
   xmlns:sodipodi="http://sodipodi.sourceforge.net/DTD/sodipodi-0.dtd"
   xmlns:inkscape="http://www.inkscape.org/namespaces/inkscape"
   enable-background="new 0 0 176 144"
   height="144"
   viewBox="0 0 176 144"
   width="176"
   version="1.1"
   id="svg6512"
   sodipodi:docname="wheel_factory_7x4.svg"
   inkscape:version="0.92.4 (5da689c313, 2019-01-14)">
  <metadata
     id="metadata6518">
    <rdf:RDF>
      <cc:Work
         rdf:about="">
        <dc:format>image/svg+xml</dc:format>
        <dc:type
           rdf:resource="http://purl.org/dc/dcmitype/StillImage" />
        <dc:title></dc:title>
      </cc:Work>
    </rdf:RDF>
  </metadata>
  <defs
     id="defs6516" />
  <sodipodi:namedview
     pagecolor="#ffffff"
     bordercolor="#666666"
     borderopacity="1"
     objecttolerance="10"
     gridtolerance="10"
     guidetolerance="10"
     inkscape:pageopacity="0"
     inkscape:pageshadow="2"
     inkscape:window-width="886"
     inkscape:window-height="480"
     id="namedview6514"
     showgrid="false"
     inkscape:zoom="1.6388889"
     inkscape:cx="88"
     inkscape:cy="72"
     inkscape:window-x="0"
     inkscape:window-y="0"
     inkscape:window-maximized="0"
     inkscape:current-layer="svg6512" />
  <path
     d="m64 32-64 32v24l112 56 64-32v-24z"
     fill="#e5e5e5"
     id="path6270" />
  <path
     d="m48 96v4l64 32v-4z"
     fill="#656565"
     id="path6272" />
  <g
     fill="#e5e5e5"
     id="g6318">
    <path
       d="m102 127 1 .5v-4l-1-.5z"
       opacity=".5"
       id="path6274" />
    <path
       d="m106 125-1-.5v4l1 .5z"
       opacity=".5"
       id="path6276" />
    <path
       d="m108 130 1 .5v-4l-1-.5z"
       opacity=".5"
       id="path6278" />
    <path
       d="m112 128-1-.5v4l1 .5z"
       opacity=".5"
       id="path6280" />
    <path
       d="m96 124 1 .5v-4l-1-.5z"
       opacity=".5"
       id="path6282" />
    <path
       d="m100 122-1-.5v4l1 .5z"
       opacity=".5"
       id="path6284" />
    <path
       d="m90 121 1 .5v-4l-1-.5z"
       opacity=".5"
       id="path6286" />
    <path
       d="m94 119-1-.5v4l1 .5z"
       opacity=".5"
       id="path6288" />
    <path
       d="m84 118 1 .5v-4l-1-.5z"
       opacity=".5"
       id="path6290" />
    <path
       d="m88 116-1-.5v4l1 .5z"
       opacity=".5"
       id="path6292" />
    <path
       d="m78 115 1 .5v-4l-1-.5z"
       opacity=".5"
       id="path6294" />
    <path
       d="m82 113-1-.5v4l1 .5z"
       opacity=".5"
       id="path6296" />
    <path
       d="m72 112 1 .5v-4l-1-.5z"
       opacity=".5"
       id="path6298" />
    <path
       d="m76 110-1-.5v4l1 .5z"
       opacity=".5"
       id="path6300" />
    <path
       d="m66 109 1 .5v-4l-1-.5z"
       opacity=".5"
       id="path6302" />
    <path
       d="m70 107-1-.5v4l1 .5z"
       opacity=".5"
       id="path6304" />
    <path
       d="m60 106 1 .5v-4l-1-.5z"
       opacity=".5"
       id="path6306" />
    <path
       d="m64 104-1-.5v4l1 .5z"
       opacity=".5"
       id="path6308" />
    <path
       d="m54 103 1 .5v-4l-1-.5z"
       opacity=".5"
       id="path6310" />
    <path
       d="m58 101-1-.5v4l1 .5z"
       opacity=".5"
       id="path6312" />
    <path
       d="m48 100 1 .5v-4l-1-.5z"
       opacity=".5"
       id="path6314" />
    <path
       d="m52 98-1-.5v4l1 .5z"
       opacity=".5"
       id="path6316" />
  </g>
  <path
     d="m164 102v16l-8 4v-16z"
     fill="#656565"
     id="path6320" />
  <path
     d="m162 119-1 .5v-16l1-.5z"
     fill="#e5e5e5"
     opacity=".5"
     id="path6322" />
  <path
     d="m158 105 1-.5v16l-1 .5z"
     fill="#e5e5e5"
     opacity=".5"
     id="path6324" />
  <path
     d="m148 110v16l-8 4v-16z"
     fill="#656565"
     id="path6326" />
  <path
     d="m146 127-1 .5v-16l1-.5z"
     fill="#e5e5e5"
     opacity=".5"
     id="path6328" />
  <path
     d="m142 113 1-.5v16l-1 .5z"
     fill="#e5e5e5"
     opacity=".5"
     id="path6330" />
  <path
     d="m132 118v16l-8 4v-16z"
     fill="#656565"
     id="path6332" />
  <path
     d="m130 135-1 .5v-16l1-.5z"
     fill="#e5e5e5"
     opacity=".5"
     id="path6334" />
  <path
     d="m126 121 1-.5v16l-1 .5z"
     fill="#e5e5e5"
     opacity=".5"
     id="path6336" />
  <path
     d="m176 112-64 32v-24l64-32z"
     opacity=".29"
     id="path6338" />
  <path
     d="m40 108-32-16v-24l32 16z"
     fill="#fff"
     id="path6340" />
  <path
     d="m9 69.5 30 15v23l-30-15z"
     fill="#2d3134"
     id="path6342" />
  <path
     d="m39 106.5-30-15v-1l30 15z"
     fill="#fff"
     opacity=".25"
     id="path6344" />
  <path
     d="m39 104.5-30-15v-1l30 15z"
     fill="#fff"
     opacity=".25"
     id="path6346" />
  <path
     d="m39 102.5-30-15v-1l30 15z"
     fill="#fff"
     opacity=".25"
     id="path6348" />
  <path
     d="m39 100.5-30-15v-1l30 15z"
     fill="#fff"
     opacity=".25"
     id="path6350" />
  <path
     d="m39 98.5-30-15v-1l30 15z"
     fill="#fff"
     opacity=".25"
     id="path6352" />
  <path
     d="m39 96.5-30-15v-1l30 15z"
     fill="#fff"
     opacity=".25"
     id="path6354" />
  <path
     d="m39 94.5-30-15v-1l30 15z"
     fill="#fff"
     opacity=".25"
     id="path6356" />
  <path
     d="m39 86.5-30-15v-1l30 15z"
     fill="#fff"
     opacity=".25"
     id="path6358" />
  <path
     d="m39 92.5-30-15v-1l30 15z"
     fill="#fff"
     opacity=".25"
     id="path6360" />
  <path
     d="m39 90.5-30-15v-1l30 15z"
     fill="#fff"
     opacity=".25"
     id="path6362" />
  <path
     d="m39 88.5-30-15v-1l30 15z"
     fill="#fff"
     opacity=".25"
     id="path6364" />
  <path
     d="m112 144-112-56v-24l112 56z"
     opacity=".11"
     id="path6366" />
  <path
     d="m64 8-64 32v24l112 56 64-32v-24z"
     fill="#f90"
     id="path6368" />
  <path
     d="m48 72v4l64 32v-4z"
     fill="#656565"
     id="path6370" />
  <path
     d="m102 103 1 .5v-4l-1-.5z"
     fill="#f90"
     opacity=".5"
     id="path6372" />
  <path
     d="m106 101-1-.5v4l1 .5z"
     fill="#f90"
     opacity=".5"
     id="path6374" />
  <path
     d="m108 106 1 .5v-4l-1-.5z"
     fill="#f90"
     opacity=".5"
     id="path6376" />
  <path
     d="m112 104-1-.5v4l1 .5z"
     fill="#f90"
     opacity=".5"
     id="path6378" />
  <path
     d="m96 100 1 .5v-4l-1-.5z"
     fill="#f90"
     opacity=".5"
     id="path6380" />
  <path
     d="m100 98-1-.5v4l1 .5z"
     fill="#f90"
     opacity=".5"
     id="path6382" />
  <path
     d="m90 97 1 .5v-4l-1-.5z"
     fill="#f90"
     opacity=".5"
     id="path6384" />
  <path
     d="m94 95-1-.5v4l1 .5z"
     fill="#f90"
     opacity=".5"
     id="path6386" />
  <path
     d="m84 94 1 .5v-4l-1-.5z"
     fill="#f90"
     opacity=".5"
     id="path6388" />
  <path
     d="m88 92-1-.5v4l1 .5z"
     fill="#f90"
     opacity=".5"
     id="path6390" />
  <path
     d="m78 91 1 .5v-4l-1-.5z"
     fill="#f90"
     opacity=".5"
     id="path6392" />
  <path
     d="m82 89-1-.5v4l1 .5z"
     fill="#f90"
     opacity=".5"
     id="path6394" />
  <path
     d="m72 88 1 .5v-4l-1-.5z"
     fill="#f90"
     opacity=".5"
     id="path6396" />
  <path
     d="m76 86-1-.5v4l1 .5z"
     fill="#f90"
     opacity=".5"
     id="path6398" />
  <path
     d="m66 85 1 .5v-4l-1-.5z"
     fill="#f90"
     opacity=".5"
     id="path6400" />
  <path
     d="m70 83-1-.5v4l1 .5z"
     fill="#f90"
     opacity=".5"
     id="path6402" />
  <path
     d="m60 82 1 .5v-4l-1-.5z"
     fill="#f90"
     opacity=".5"
     id="path6404" />
  <path
     d="m64 80-1-.5v4l1 .5z"
     fill="#f90"
     opacity=".5"
     id="path6406" />
  <path
     d="m54 79 1 .5v-4l-1-.5z"
     fill="#f90"
     opacity=".5"
     id="path6408" />
  <path
     d="m58 77-1-.5v4l1 .5z"
     fill="#f90"
     opacity=".5"
     id="path6410" />
  <path
     d="m48 76 1 .5v-4l-1-.5z"
     fill="#f90"
     opacity=".5"
     id="path6412" />
  <path
     d="m52 74-1-.5v4l1 .5z"
     fill="#f90"
     opacity=".5"
     id="path6414" />
  <path
     d="m39 67.5-30-15v4l30 15z"
     fill="#656565"
     id="path6416" />
  <path
     d="m33 68.5 1 .5v-4l-1-.5z"
     fill="#f90"
     opacity=".5"
     id="path6418" />
  <path
     d="m37 66.5-1-.5v4l1 .5z"
     fill="#f90"
     opacity=".5"
     id="path6420" />
  <path
     d="m27 65.5 1 .5v-4l-1-.5z"
     fill="#f90"
     opacity=".5"
     id="path6422" />
  <path
     d="m31 63.5-1-.5v4l1 .5z"
     fill="#f90"
     opacity=".5"
     id="path6424" />
  <path
     d="m21 62.5 1 .5v-4l-1-.5z"
     fill="#f90"
     opacity=".5"
     id="path6426" />
  <path
     d="m25 60.5-1-.5v4l1 .5z"
     fill="#f90"
     opacity=".5"
     id="path6428" />
  <path
     d="m15 59.5 1 .5v-4l-1-.5z"
     fill="#f90"
     opacity=".5"
     id="path6430" />
  <path
     d="m19 57.5-1-.5v4l1 .5z"
     fill="#f90"
     opacity=".5"
     id="path6432" />
  <path
     d="m9 56.5 1 .5v-4l-1-.5z"
     fill="#f90"
     opacity=".5"
     id="path6434" />
  <path
     d="m13 54.5-1-.5v4l1 .5z"
     fill="#f90"
     opacity=".5"
     id="path6436" />
  <path
     d="m176 72v4l-64 32v-4z"
     fill="#656565"
     id="path6438" />
  <path
     d="m122 103-1 .5v-4l1-.5z"
     fill="#f90"
     opacity=".5"
     id="path6440" />
  <path
     d="m118 101 1-.5v4l-1 .5z"
     fill="#f90"
     opacity=".5"
     id="path6442" />
  <path
     d="m116 106-1 .5v-4l1-.5z"
     fill="#f90"
     opacity=".5"
     id="path6444" />
  <path
     d="m112 104 1-.5v4l-1 .5z"
     fill="#f90"
     opacity=".5"
     id="path6446" />
  <path
     d="m128 100-1 .5v-4l1-.5z"
     fill="#f90"
     opacity=".5"
     id="path6448" />
  <path
     d="m124 98 1-.5v4l-1 .5z"
     fill="#f90"
     opacity=".5"
     id="path6450" />
  <path
     d="m134 97-1 .5v-4l1-.5z"
     fill="#f90"
     opacity=".5"
     id="path6452" />
  <path
     d="m130 95 1-.5v4l-1 .5z"
     fill="#f90"
     opacity=".5"
     id="path6454" />
  <path
     d="m140 94-1 .5v-4l1-.5z"
     fill="#f90"
     opacity=".5"
     id="path6456" />
  <path
     d="m136 92 1-.5v4l-1 .5z"
     fill="#f90"
     opacity=".5"
     id="path6458" />
  <path
     d="m146 91-1 .5v-4l1-.5z"
     fill="#f90"
     opacity=".5"
     id="path6460" />
  <path
     d="m142 89 1-.5v4l-1 .5z"
     fill="#f90"
     opacity=".5"
     id="path6462" />
  <path
     d="m152 88-1 .5v-4l1-.5z"
     fill="#f90"
     opacity=".5"
     id="path6464" />
  <path
     d="m148 86 1-.5v4l-1 .5z"
     fill="#f90"
     opacity=".5"
     id="path6466" />
  <path
     d="m158 85-1 .5v-4l1-.5z"
     fill="#f90"
     opacity=".5"
     id="path6468" />
  <path
     d="m154 83 1-.5v4l-1 .5z"
     fill="#f90"
     opacity=".5"
     id="path6470" />
  <path
     d="m164 82-1 .5v-4l1-.5z"
     fill="#f90"
     opacity=".5"
     id="path6472" />
  <path
     d="m160 80 1-.5v4l-1 .5z"
     fill="#f90"
     opacity=".5"
     id="path6474" />
  <path
     d="m170 79-1 .5v-4l1-.5z"
     fill="#f90"
     opacity=".5"
     id="path6476" />
  <path
     d="m166 77 1-.5v4l-1 .5z"
     fill="#f90"
     opacity=".5"
     id="path6478" />
  <path
     d="m176 76-1 .5v-4l1-.5z"
     fill="#f90"
     opacity=".5"
     id="path6480" />
  <path
     d="m172 74 1-.5v4l-1 .5z"
     fill="#f90"
     opacity=".5"
     id="path6482" />
  <path
     d="m112 120-112-56v-24l112 56z"
     opacity=".11"
     id="path6484" />
  <path
     d="m176 88-64 32v-24l64-32z"
     opacity=".29"
     id="path6486" />
  <path
     d="m64 4-64 32v4l112 56 64-32v-4z"
     fill="#999"
     id="path6488" />
  <path
     d="m112 96-112-56v-4l112 56z"
     opacity=".11"
     id="path6490" />
  <path
     d="m176 64-64 32v-4l64-32z"
     opacity=".29"
     id="path6492" />
  <path
     d="m72 12-16 8v4l16 8 16-8v-4z"
     fill="#999"
     id="path6494" />
  <path
     d="m88 24-16 8v-4l16-8z"
     opacity=".29"
     id="path6496" />
  <path
     d="m72 32-16-8v-4l16 8z"
     opacity=".11"
     id="path6498" />
  <path
     d="m104 28-16 8v4l16 8 16-8v-4z"
     fill="#999"
     id="path6500" />
  <path
     d="m120 40-16 8v-4l16-8z"
     opacity=".29"
     id="path6502" />
  <path
     d="m104 48-16-8v-4l16 8z"
     opacity=".11"
     id="path6504" />
  <path
     d="m136 44-16 8v4l16 8 16-8v-4z"
     fill="#999"
     id="path6506" />
  <path
     d="m152 56-16 8v-4l16-8z"
     opacity=".29"
     id="path6508" />
  <path
     d="m136 64-16-8v-4l16 8z"
     opacity=".11"
     id="path6510" />
</svg>
